<svg width="640" height="480" xmlns="http://www.w3.org/2000/svg">

 <g>
  <title>background</title>
  <rect fill="none" id="canvas_background" height="482" width="642" y="-1" x="-1"/>
 </g>
 <g>
  <title>Layer 1</title>
  <path id="svg_1" fill="#D0CFD5" fill-rule="evenodd" stroke="#D0CFD5" stroke-width="0.5px" d="m1258.2,385.8l0.3,0.2l0.3,0.2l0.2,0.3l0.2,0.3l0.3,0.2l0.3,0.2l0.2,0.3l0.2,0.3l0.3,0.2l0.3,0.2l0.2,0.3l0.2,0.3l0.3,0.2l0.3,0.2l0.2,0.3l0.2,0.3l0.3,0.2l0.3,0.2l0.2,0.3l0.2,0.3l0.3,0.2l0.3,0.2l0.2,0.3l0.5,0.3l0.5,0.2l0,199l0,199l-170.5,0l-170.5,0l0.5,-1.5q0.5,-1.5 6.5,-2.7q6,-1.3 12.5,-1.3q6.5,0 7,-0.5q0.5,-0.5 1.5,-0.8l1,-0.2l0,-1q0,-1 1,-1.2l1,-0.3l0.2,-0.3l0.3,-0.2l0,-0.5q0,-0.5 -1,-3.5q-1,-3 -3,-14q-2,-11 -1,-15.5l1,-4.5l0.3,-0.2l0.2,-0.3l0.2,-0.3l0.3,-0.2l0.3,-0.2l0.2,-0.3l1.5,-0.5l1.5,-0.5l6,1.5q6,1.5 11,3.8q5,2.2 9.2,8.7q4.3,6.5 5.3,9.5q1,3 1.5,4l0.5,1l0.3,0.2l0.2,0.3l0.2,0.3l0.3,0.2l0.3,0.2l0.2,0.3l0.2,0.3l0.3,0.2l0.3,0.2l0.2,0.3l2,0.5l2,0.5l0.2,0.3l0.3,0.2l0.3,-0.2l0.2,-0.3l1,-0.5l1,-0.5l0.2,-0.3l0.3,-0.2l0.5,-1l0.5,-1l0,-5q0,-5 -1.5,-8.5q-1.5,-3.5 -2.5,-9.5q-1,-6 1.3,-9.5q2.2,-3.5 12.2,-6.7q10,-3.3 17.5,-7l7.5,-3.8l0.2,0q0.3,0 0.6,-0.5l0.2,-0.5l0.2,0q0.3,0 0.6,-0.5l0.2,-0.5l0.2,0q0.3,0 0.6,-0.5l0.2,-0.5l0.2,0q0.3,0 0.6,-0.5l0.2,-0.5l0.5,-0.2q0.5,-0.3 0.7,-0.6l0.3,-0.2l0.3,-0.2l0.2,-0.3l0.2,-0.3l0.3,-0.2l0.3,-0.2q0.2,-0.3 4.4,-5q4.3,-4.8 10.8,-16.8q6.5,-12 10.2,-15.5q3.8,-3.5 4,-4.5q0.3,-1 4.8,-5q4.5,-4 5,-9.5q0.5,-5.5 -2.5,-10.5q-3,-5 -6.3,-7q-3.2,-2 -4.4,-4.5q-1.3,-2.5 -1.8,-7.5q-0.5,-5 1,-8q1.5,-3 8.2,-4.8q6.8,-1.7 10.3,-4.2l3.5,-2.5l0.2,-0.3l0.3,-0.2l0,-5q0,-5 -2.7,-7.8q-2.8,-2.7 -4,-6.4q-1.3,-3.8 4.2,-10.8q5.5,-7 5.8,-12q0.2,-5 -0.8,-5q-1,0 -1.5,-2.5q-0.5,-2.5 -3.5,-3q-3,-0.5 -2.8,-1.5q0.3,-1 -1,-1.8l-1.2,-0.7l1.2,-0.7q1.3,-0.8 1.3,-1.8l0,-1l-0.3,-1l-0.2,-1l0.2,0l0.3,0l0.3,-0.5l0.2,-0.5l0.2,0l0.3,0l0.3,-0.5l0.2,-0.5l0.2,0l0.3,0l0.3,-0.5l0.2,-0.5l0.2,0l0.3,0l0.3,-0.5l0.2,-0.5l0.2,0q0.3,0 0.6,-0.2l0.2,-0.3l1,-0.5l1,-0.5l0.2,-0.3l0.3,-0.2l0.3,-0.2l0.2,-0.3l1,0l1,0l2.5,1q2.5,1 3,1.3l0.5,0.2l0,0.2q0,0.3 0.5,0.6l0.5,0.2l0,0.2q0,0.3 0.5,0.6l0.5,0.2l0,0.2q0,0.3 0.5,0.6l0.5,0.2l0,0.2q0,0.3 0.5,0.6l0.5,0.2l0,0.2q0,0.3 0.5,0.6l0.5,0.2l0.2,1.5l0.3,1.5l4.3,4.2q4.2,4.3 9.2,4.3q5,0 21,-13.5q16,-13.5 17,-13.8q1,-0.2 4.5,-5q3.5,-4.7 9.5,-4.7q6,0 17.5,3q11.5,3 15,3l3.5,0l1,-0.5l1,-0.5l0.2,-0.3l0.3,-0.2l0.3,-0.2l0.2,-0.3l0.2,-0.3l0.3,-0.2l0.5,-1l0.5,-1l0,-2l0,-2l-0.5,-1.5q-0.5,-1.5 -1.8,-2.7q-1.2,-1.3 -6.7,-9.6q-5.5,-8.2 -6.5,-8.2q-1,0 -7.8,-13q-6.7,-13 -10.2,-25q-3.5,-12 -6.5,-16q-3,-4 -4.5,-9.5q-1.5,-5.5 -3.2,-7q-1.8,-1.5 -2,-3q-0.3,-1.5 -1,-0.3q-0.8,1.3 -3.3,0.8q-2.5,-0.5 -9,1.5q-6.5,2 -11,7.3q-4.5,5.2 -6,5.4q-1.5,0.3 -2.7,2.6l-1.3,2.2l-0.3,0.2l-0.2,0.3l-1,0.5l-1,0.5l-0.2,0.3l-0.3,0.2l-0.3,0.2l-0.2,0.3l-2.5,0.3l-2.5,0.2l0.2,-3l0.3,-3l0.3,-0.2l0.2,-0.3l0.2,-0.3l0.3,-0.2l0,-2q0,-2 1.5,-6q1.5,-4 3.5,-13.5q2,-9.5 4.5,-16q2.5,-6.5 8.2,-12.3q5.8,-5.7 4.8,-6q-1,-0.2 -1,-3.2q0,-3 -1,-3q-1,0 -1.2,-1.5q-0.3,-1.5 -2.6,-2l-2.2,-0.5l0,-1l0,-1l3.8,-3.5q3.7,-3.5 4.2,-4.5l0.5,-1l0.3,-0.2l0.2,-0.3l0.2,-0.3l0.3,-0.2l0.3,-0.2l0.2,-0.3l0.2,-0.3l0.3,-0.2l0.5,-1l0.5,-1l0.3,-0.2l0.2,-0.3l0.2,-0.3l0.3,-0.2l0.3,-0.2l0.2,-0.3l0.2,-0.3l0.3,-0.2l0.3,-0.2l0.2,-0.3l0.5,-0.3l0.5,-0.2l-0.2,1l-0.3,1l-0.3,0.2l-0.2,0.3l-0.2,0.3l-0.3,0.2l-0.5,1.5l-0.5,1.5l-0.3,0.2l-0.2,0.3l0.2,0.3l0.3,0.2l0.3,1l0.2,1l1,-0.2l1,-0.3l0.2,-0.3l0.3,-0.2l0.3,-0.2l0.2,-0.3l1.5,-0.5l1.5,-0.5l5,-3.5q5,-3.5 6.5,-4.2q1.5,-0.8 1.5,-1.8q0,-1 8.8,-4.5q8.7,-3.5 9.4,-3.3q0.8,0.3 10.8,-0.7q10,-1 23.2,6.7q13.3,7.8 15,10.3q1.8,2.5 5.3,5q3.5,2.5 11,12.3q7.5,9.7 7.7,10zm-94,36q-0.2,-0.3 0,-0.6l0.3,-0.2l0,0.5q0,0.5 -0.3,0.3z"/>
  <path id="svg_2" fill="#DEDDE4" fill-rule="evenodd" stroke="#DEDDE4" stroke-width="0.5px" d="m458.8,230.8l0.2,-0.3l0.2,-0.3l0.3,-0.2l0.3,0.2l0.2,0.3l1,0.5l1,0.5l1,0.5l1,0.5l8.5,7.5q8.5,7.5 12.7,9.8q4.3,2.2 15.8,11.2q11.5,9 18.2,18.2q6.8,9.3 13.3,17q6.5,7.8 10.3,11.3q3.7,3.5 7.4,7.3q3.8,3.7 4.3,4l0.5,0.2l0,0.2q0,0.3 0.5,0.6l0.5,0.2l0,0.2q0,0.3 0.5,0.6l0.5,0.2l2.8,7q2.7,7 8.2,21q5.5,14 5.5,17.5q0,3.5 -0.5,4.5l-0.5,1l-0.3,1.5l-0.2,1.5l-1,0.2l-1,0.3l-1.5,0.5q-1.5,0.5 -5,0.5q-3.5,0 -14,-2.5q-10.5,-2.5 -19.5,-7.5q-9,-5 -12.2,-7.7q-3.3,-2.8 -5,-3.6q-1.8,-0.7 -5,-3.4q-3.3,-2.8 -9.6,0.7q-6.2,3.5 -8.2,11.3q-2,7.7 -7.5,10.2q-5.5,2.5 -6,3.8q-0.5,1.2 -4.5,3.2q-4,2 -4,3q0,1 -1,1q-1,0 -1,1.5q0,1.5 -6.5,1.3q-6.5,-0.3 -9,0.7q-2.5,1 -4.3,3.3q-1.7,2.2 -7.7,7.7q-6,5.5 -14.3,9.7q-8.2,4.3 -10,6q-1.7,1.8 -3.2,4.8q-1.5,3 -0.8,6.5q0.8,3.5 1.8,3.7q1,0.3 5,5.8l4,5.5l0.2,0.3l0.3,0.2l0.3,0.2l0.2,0.3l0.2,0.3l0.3,0.2l0.3,0.2l0.2,0.3l-0.2,0.3l-0.3,0.2l-0.3,0.2l-0.2,0.3l-5,2.5q-5,2.5 -9,5.5q-4,3 -5.5,3.3q-1.5,0.2 -1.5,1.2q0,1 -6.5,4.2q-6.5,3.3 -13.5,6.3q-7,3 -7.2,5.3q-0.3,2.2 0.2,3.7q0.5,1.5 0,8q-0.5,6.5 -0.8,6.7l-0.2,0.3l-0.2,0.3l-0.3,0.2l-0.5,1l-0.5,1l-0.3,0.2l-0.2,0.3l-0.2,0.3l-0.3,0.2l-0.3,0.2l-0.2,0.3l-0.2,0.3l-0.3,0.2l-0.3,0.2l-0.2,0.3l-2,0l-2,0l-0.2,-0.3l-0.3,-0.2l-0.3,-0.2q-0.2,-0.3 -3.7,-2q-3.5,-1.8 -3.5,-2.8q0,-1 -1,-1.2q-1,-0.3 -2,-2.6q-1,-2.2 -2,-2.2q-1,0 -1,-1.5q0,-1.5 -1,-1.7q-1,-0.3 -8.5,-11.3q-7.5,-11 -9,-13.7q-1.5,-2.8 -2.5,-3q-1,-0.3 -6.5,-7q-5.5,-6.8 -6.5,-6.8q-1,0 -2.5,-4.8q-1.5,-4.7 -3.3,-12q-1.7,-7.2 -2.4,-7.7q-0.8,-0.5 -2,-3.5q-1.3,-3 -7,-12q-5.8,-9 -6.8,-9q-1,0 -2.5,-2.2q-1.5,-2.3 -10.5,-16.3q-9,-14 -11.8,-20.7q-2.7,-6.8 -5.4,-8.8q-2.8,-2 -2.8,-3q0,-1 -1,-1.2q-1,-0.3 -6,-0.6q-5,-0.2 -5.2,0.8q-0.3,1 -2,1.5q-1.8,0.5 -7,8.5l-5.3,8l-0.3,0.2l-0.2,0.3l-0.2,0.3l-0.3,0.2l-0.5,1l-0.5,1l-0.3,2l-0.2,2l-1,0l-1,0l0.2,-1l0.3,-1l0.5,-2l0.5,-2l0.5,-3q0.5,-3 1.5,-7.5q1,-4.5 8.5,-20.5q7.5,-16 10.8,-20.8l3.2,-4.7l0.2,-0.3l0.3,-0.2l0.3,-1.5q0.2,-1.5 -2.8,-1.5l-3,0l0.2,-0.5l0.3,-0.5l0.3,-0.2l0.2,-0.3l0.2,-0.3l0.3,-0.2l0.3,-0.2l0.2,-0.3l3.2,-2.3q3.3,-2.2 3.6,-3.2q0.2,-1 5.7,-1.2q5.5,-0.3 8.7,-1.6q3.3,-1.2 4,-3q0.8,-1.7 11.8,-8.7q11,-7 18,-6.5q7,0.5 11.5,2q4.5,1.5 17.5,1q13,-0.5 25,-3q12,-2.5 14,-3.2q2,-0.8 2.5,-2q0.5,-1.3 3.5,-2.6q3,-1.2 6,-4.4q3,-3.3 8.8,-7q5.7,-3.8 6,-4l0.2,-0.3l1,-0.3l1,-0.2l-0.2,0.5l-0.3,0.5l-0.3,1l-0.2,1l1,0l1,0l1,0.2l1,0.3l-1,0.3q-1,0.2 -1,1.7q0,1.5 1.5,1.3l1.5,-0.3l10.5,-1q10.5,-1 14,3q3.5,4 4.5,4.3q1,0.2 1,1.2q0,1 2,1.8q2,0.7 5.5,0.7l3.5,0l0.2,-0.3l0.3,-0.2l0.3,-0.2l0.2,-0.3l1,-0.3l1,-0.2l0.2,-1q0.3,-1 1.8,-13l1.5,-12l0.3,-0.2l0.2,-0.3l0.2,-0.3l0.3,-0.2l0.3,-0.2l0.2,-0.3l0.2,-0.3l0.3,-0.2l0.3,-0.2l0.2,-0.3l0.2,-0.3l0.3,-0.2l0.3,-0.2z"/>
  <path id="svg_3" fill="#E0DFE7" fill-rule="evenodd" stroke="#E0DFE7" stroke-width="0.5px" d="m1083.5,562l1.5,-0.5l2,0l2,0l0.2,0.3l0.3,0.2l0,1.5l0,1.5l-0.3,0.2l-0.2,0.3l-0.2,0.3l-0.3,0.2l-0.3,0.2l-0.2,0.3l-0.2,0.3l-0.3,0.2l-0.3,0.2l-0.2,0.3l-0.2,0.3l-0.3,0.2l-0.3,0.2l-0.2,0.3l-0.2,0.3l-0.3,0.2l-0.3,1q-0.2,1 -3,2.5q-2.7,1.5 -3,4q-0.2,2.5 -1.2,2.5q-1,0 -1.5,1.2q-0.5,1.3 -1.5,1.6q-1,0.2 -0.8,3.2q0.3,3 1.6,5.2q1.2,2.3 2.2,2.6q1,0.2 2.2,3.7q1.3,3.5 1.3,5l0,1.5l-4.7,3.2q-4.8,3.3 -8,4.6q-3.3,1.2 -4.8,8.2q-1.5,7 1.5,13q3,6 4.3,6.5q1.2,0.5 5,6.5q3.7,6 3.4,11q-0.2,5 -2.7,6q-2.5,1 -6,4.8q-3.5,3.7 -10.3,14.4q-6.7,10.8 -12.2,19.8q-5.5,9 -5.8,9.2q-0.2,0.3 -0.4,0.6l-0.3,0.2l-0.3,0.2l-0.2,0.3l-0.2,0.3l-0.3,0.2l-0.3,1l-0.2,1l-0.5,0.2q-0.5,0.3 -0.5,0.6l0,0.2l-0.5,0.2q-0.5,0.3 -0.5,0.6l0,0.2l-0.5,0.2q-0.5,0.3 -0.5,0.6l0,0.2l-0.5,0.2q-0.5,0.3 -0.5,0.6l0,0.2l-7.5,3.8q-7.5,3.7 -17.5,7q-10,3.2 -12.2,6.7q-2.3,3.5 -1.3,9.5q1,6 2.5,9.5q1.5,3.5 1.5,8.5l0,5l-0.5,1l-0.5,1l-0.3,0.2l-0.2,0.3l-1,0.5l-1,0.5l-0.2,0.3l-0.3,0.2l-0.3,-0.2l-0.2,-0.3l-2,-0.5l-2,-0.5l-0.2,-0.3l-0.3,-0.2l-0.3,-0.2l-0.2,-0.3l-0.2,-0.3l-0.3,-0.2l-0.3,-0.2l-0.2,-0.3l-0.2,-0.3l-0.3,-0.2l-0.5,-1q-0.5,-1 -1.5,-4q-1,-3 -5.3,-9.5q-4.2,-6.5 -9.2,-8.7q-5,-2.3 -11,-3.8l-6,-1.5l-1.5,0.5l-1.5,0.5l-0.2,0.3l-0.3,0.2l-0.3,0.2l-0.2,0.3l-0.2,0.3l-0.3,0.2l-1,4.5q-1,4.5 1,15.5q2,11 3,14q1,3 1,3.5l0,0.5l-0.3,0.2l-0.2,0.3l-1,0.3q-1,0.2 -1,1.2l0,1l-1,0.2q-1,0.3 -1.5,0.8q-0.5,0.5 -7,0.5q-6.5,0 -12.5,1.3q-6,1.2 -6.5,2.7l-0.5,1.5l-109.5,0l-109.5,0l-0.2,-1.5l-0.3,-1.5l-0.5,-1l-0.5,-1l-0.3,-0.2l-0.2,-0.3l-0.2,-0.3l-0.3,-0.2l-0.3,-0.2l-0.2,-0.3l-0.2,-0.3l-0.3,-0.2l-0.5,-1q-0.5,-1 -4.5,-4.5q-4,-3.5 -6,-7.5q-2,-4 -1.7,-4.8q0.2,-0.7 1.7,-5.4q1.5,-4.8 8,-8.3q6.5,-3.5 7.3,-7.5q0.7,-4 0.2,-6q-0.5,-2 1.5,-16.5q2,-14.5 5,-25.5q3,-11 6,-17.5q3,-6.5 4,-12q1,-5.5 4.7,-10q3.8,-4.5 6.3,-4.7l2.5,-0.3l1,-0.5l1,-0.5l0.2,-0.3l0.3,-0.2l0.3,-0.5l0.2,-0.5l8.2,-4.5q8.3,-4.5 12.3,-8q4,-3.5 4.3,-4.5q0.2,-1 4,-3.5q3.7,-2.5 4,-4q0.2,-1.5 8.2,-7.7q8,-6.3 13,-7.8q5,-1.5 6,-2l1,-0.5l0.2,-0.3l0.3,-0.2l0.3,-0.2l0.2,-0.3l0.2,-0.3l0.3,-0.2l0.3,-0.2l0.2,-0.3l0.2,-0.3l0.3,-0.2l0.3,-0.2l0.2,-0.3l0.2,-0.3q0.3,-0.2 0.6,-0.7l0.2,-0.5l1.5,-0.2l1.5,-0.3l0,-0.3l0,-0.2l4.5,-0.2q4.5,-0.3 6,-0.3l1.5,0l0.2,0.3l0.3,0.2l0.3,0.2l0.2,0.3l0.2,0.3l0.3,0.2l0.3,0.2l0.2,0.3l1,0.5l1,0.5l0.2,0.3l0.3,0.2l0,0.5l0,0.5l-0.5,6q-0.5,6 -3.2,14q-2.8,8 -3.8,8q-1,0 -3.8,5.5q-2.7,5.5 -6.7,21.5q-4,16 -7.3,23.5q-3.2,7.5 -4.2,7.5q-1,0 -5.8,7q-4.7,7 -3.2,13.5q1.5,6.5 2.5,7.5q1,1 2.5,5.5q1.5,4.5 1.8,4.7l0.2,0.3l1,0.5l1,0.5l4,-1q4,-1 10.5,-6.5q6.5,-5.5 8.3,-7.8q1.7,-2.2 3.4,-9.4q1.8,-7.3 5.6,-14q3.7,-6.8 7.4,-10q3.8,-3.3 7.3,-3.8q3.5,-0.5 6.5,0q3,0.5 5.8,-0.2q2.7,-0.8 4.2,-3.3q1.5,-2.5 5.8,-1.3q4.2,1.3 9.7,2.8q5.5,1.5 15,1.2q9.5,-0.2 9.5,-1.2q0,-1 13,-0.8q13,0.3 22.8,-2q9.7,-2.2 25,-8q15.2,-5.7 23.7,-10.2q8.5,-4.5 10.5,-5l2,-0.5l6,-1q6,-1 7,-2.7q1,-1.8 2,-1.8q1,0 0.5,-1.2q-0.5,-1.3 3,-2.6q3.5,-1.2 5.5,-3.4q2,-2.3 3,-2.6q1,-0.2 1,-1.2q0,-1 1.8,-1.5q1.7,-0.5 6.4,-9.3q4.8,-8.7 5.8,-9q1,-0.2 1,-1.7q0,-1.5 8,-3q8,-1.5 8,-2.5q0,-1 2.5,-1.5q2.5,-0.5 2,-3q-0.5,-2.5 0.5,-2.5q1,0 0.5,-3.5q-0.5,-3.5 -1.3,-4q-0.7,-0.5 0,-2q0.8,-1.5 1.8,-1.5q1,0 1.5,-2.5q0.5,-2.5 3,-3.5q2.5,-1 3.5,-3.5q1,-2.5 4.5,-4.5q3.5,-2 3.5,-3q0,-1 1.8,-2q1.7,-1 2.4,-2.8q0.8,-1.7 1,-2l0.3,-0.2l0.3,-0.2l0.2,-0.3l0.2,-0.3l0.3,-0.2l0.3,-0.2l0.2,-0.3l1.5,-0.5zm-89,89.5l2.5,0l-1,0.5l-1,0.5l-0.2,0.3l-0.3,0.2l-0.3,-0.2l-0.2,-0.3l-0.2,-0.3l-0.3,-0.2l-0.3,0.2l-0.2,0.3l-0.8,-0.3q-0.7,-0.2 -0.4,-0.4q0.2,-0.3 2.7,-0.3z"/>
  <path id="svg_4" fill="#DFDEE5" fill-rule="evenodd" stroke="#DFDEE5" stroke-width="0.5px" d="m768.2,74l-0.2,-1l2.8,3.5q2.7,3.5 3,5l0.2,1.5l-1,0q-1,0 -1.8,3q-0.7,3 -1.4,2.2q-0.8,-0.7 -7.3,2q-6.5,2.8 -7.7,8.3q-1.3,5.5 -2.3,7q-1,1.5 -3.5,5.5l-2.5,4l0,1l0,1l0.3,0.2l0.2,0.3l0.2,0.3l0.3,0.2l0.5,1l0.5,1l0.3,0.2l0.2,0.3l0.2,0.3l0.3,0.2l0.3,0.2l0.2,0.3l1,0.5l1,0.5l1,0.5l1,0.5l1,0l1,0l0.2,-0.3l0.3,-0.2l0.3,-0.2l0.2,-0.3l1,-0.3l1,-0.2l2.2,-6.5q2.3,-6.5 5.8,-10q3.5,-3.5 4.2,-5.3q0.8,-1.7 2.8,-2.4q2,-0.8 1,-2.6q-1,-1.7 1.5,-1.2q2.5,0.5 4,-0.2q1.5,-0.8 2,0q0.5,0.7 6.5,3.7q6,3 17.8,10.7q11.7,7.8 14.2,10.8q2.5,3 2.8,4.8q0.2,1.7 2.2,4q2,2.2 10.2,6.7q8.3,4.5 19,9.5q10.8,5 14,10.5q3.3,5.5 4.6,9.3q1.2,3.7 6.2,8.2q5,4.5 9.5,7.5q4.5,3 9,3.3q4.5,0.2 4,-1q-0.5,-1.3 2.5,-0.6q3,0.8 3,-0.2q0,-1 5.2,-4q5.3,-3 5.6,-4q0.2,-1 4,-4.5q3.7,-3.5 6.4,-5.5q2.8,-2 9.8,-12q7,-10 12.5,-14.8q5.5,-4.7 10,-6.4q4.5,-1.8 4.5,-0.8q0,1 1.8,1q1.7,0 8,3.8q6.2,3.7 10.2,4.7q4,1 4.5,1.3l0.5,0.2l0,0.2l0,0.3l1,0.5l1,0.5l5,1q5,1 7,1.3l2,0.2l0.5,0.8q0.5,0.7 1,1l0.5,0.2l3,7.5q3,7.5 6.2,10.5q3.3,3 5.8,6.5q2.5,3.5 4.8,8.5q2.2,5 6.2,7.2q4,2.3 12.2,1.6q8.3,-0.8 10.6,-2.6q2.2,-1.7 6.2,-1.2q4,0.5 6.2,-3.2q2.3,-3.8 2.8,-14.8q0.5,-11 1.5,-15.5q1,-4.5 -0.3,-7q-1.2,-2.5 -4.2,-2.3q-3,0.3 -4,-0.2l-1,-0.5l-0.2,-0.3l-0.3,-0.2l-0.3,-0.2l-0.2,-0.3l-0.2,-0.3l-0.3,-0.2l-0.3,-0.2l-0.2,-0.3l-0.2,-0.3l-0.3,-0.2l0,-2l0,-2l0.3,-0.2l0.2,-0.3l1.5,-0.5l1.5,-0.5l0.2,-0.3l0.3,-0.2l0.3,0.2l0.2,0.3l2,0.5l2,0.5l0.2,0.3l0.3,0.2l0.3,0.2l0.2,0.3l2.8,1.7q2.7,1.8 2.4,5.3q-0.2,3.5 6.3,6.7q6.5,3.3 8.7,5.6q2.3,2.2 2.6,4.2q0.2,2 4.4,5.5q4.3,3.5 8.3,8q4,4.5 4.3,4.7l0.2,0.3l0.2,0.3l0.3,0.2l0.3,0.2l0.2,0.3l0.2,0.3l0.3,0.2l0.3,0.2l0.2,0.3l0.2,0.3l0.3,0.2l0.3,0.2l0.2,0.3l1,0.3l1,0.2l0,0.2q0,0.3 0.5,0.6l0.5,0.2l0,0.2q0,0.3 0.5,0.6l0.5,0.2l3,1.8q3,1.7 10,2.2q7,0.5 8.2,1.2q1.3,0.8 4.3,4.8q3,4 7.7,8.2q4.8,4.3 8.6,5q3.7,0.8 3.2,6.8q-0.5,6 -1,8.5l-0.5,2.5l-0.5,2l-0.5,2l-0.3,0.2l-0.2,0.3l-0.2,0.3l-0.3,0.2l-0.3,0.2l-0.2,0.3l-1,0.5l-1,0.5l-1,0l-1,0l-0.2,-0.3l-0.3,-0.2l0,-3q0,-3 0,-4q0,-1 0,-4q0,-3 -1.7,-4.5q-1.8,-1.5 -1.8,-2.5q0,-1 -1.5,-1.2q-1.5,-0.3 -10,-5.3q-8.5,-5 -17,-5.5q-8.5,-0.5 -13,2q-4.5,2.5 -8,6.2q-3.5,3.8 -4.5,3.8q-1,0 -3.8,4q-2.7,4 -11,13.2q-8.2,9.3 -11.7,13q-3.5,3.8 -4.5,4q-1,0.3 -4.5,4q-3.5,3.8 -4.5,4q-1,0.3 -2.5,2.6q-1.5,2.2 -2.5,2.2q-1,0 -9,10.8q-8,10.7 -13.2,20q-5.3,9.2 -9.8,14.7q-4.5,5.5 -14.8,17.5l-10.2,12l-0.5,0.2q-0.5,0.3 -0.5,0.6l0,0.2l-0.5,0.2q-0.5,0.3 -0.7,0.6l-0.3,0.2l-0.3,0.2l-0.2,0.3l-1,0.5l-1,0.5l-0.2,0.3l-0.3,0.2l-0.3,0.2l-0.2,0.3l-1,0.5l-1,0.5l-0.2,0.3q-0.3,0.2 -4.3,5.2q-4,5 -2.5,7q1.5,2 0.8,2.5q-0.8,0.5 -0.8,1.5q0,1 -3.5,2.2q-3.5,1.3 -9,2.3l-5.5,1l-2,0.5l-2,0.5l0,0.3l0,0.2l-1,-0.2q-1,-0.3 -16,-0.8q-15,-0.5 -33.5,3.5q-18.5,4 -27.5,4.5q-9,0.5 -12.5,2l-3.5,1.5l-1,0.3l-1,0.2l0.2,1l0.3,1l0,0.5l0,0.5l-0.5,1l-0.5,1l-0.3,0.2l-0.2,0.3l-0.2,0.3l-0.3,0.2l-0.3,0.2l-0.2,0.3l-0.2,0.3l-0.3,0.2l-0.3,0.2l-0.2,0.3l2.5,2.5q2.5,2.5 4,2.8q1.5,0.2 5.5,7.4q4,7.3 9.8,12.6q5.7,5.2 6.2,7.2q0.5,2 0.8,3.5l0.2,1.5l1,0l1,0l-0.2,2l-0.3,2l-0.3,0.2l-0.2,0.3l0.2,0.3l0.3,0.2l0.3,0.2l0.2,0.3l-1.5,0l-1.5,0l-2,0q-2,0 -14.5,1.3l-12.5,1.2l-3,0.2l-3,0.3l-2,0.5q-2,0.5 -15.5,1q-13.5,0.5 -18.5,3q-5,2.5 -14.5,3.5q-9.5,1 -11.3,2.7q-1.7,1.8 -4.4,2q-2.8,0.3 -20.8,-9.7q-18,-10 -24,-14.5l-6,-4.5l-0.2,-0.3l-0.3,-0.2l0.5,-3.5q0.5,-3.5 4.8,-7.3q4.2,-3.7 5.2,-4q1,-0.2 1,-2q0,-1.7 1.2,-3q1.3,-1.2 1.6,-1.7l0.2,-0.5l0.2,0q0.3,0 0.6,-0.5l0.2,-0.5l0.2,0q0.3,0 0.6,-0.5l0.2,-0.5l0,-0.2q0,-0.3 3.8,-4q3.7,-3.8 6.4,-6.3q2.8,-2.5 2.8,-3.5q0,-1 1.5,-1.2q1.5,-0.3 6.5,-3.8q5,-3.5 7.2,-10.2q2.3,-6.8 4,-8.6q1.8,-1.7 2.3,-3.4q0.5,-1.8 1.5,-1.8q1,0 1.2,-1.5q0.3,-1.5 -2.4,-8.5q-2.8,-7 -4.3,-7.2q-1.5,-0.3 -2.3,-2q-0.7,-1.8 -4.7,-2.3l-4,-0.5l-0.3,-0.2l-0.2,-0.3l-1,-0.5l-1,-0.5l-0.2,-0.3l-0.3,-0.2l-0.5,-1l-0.5,-1l-0.5,-1l-0.5,-1l0,-1l0,-1l0.3,-0.2l0.2,-0.3l1,0l1,0l1.5,0.5l1.5,0.5l0.2,0.3l0.3,0.2l0.3,0.2l0.2,0.3l2.8,1.7q2.7,1.8 3.4,3q0.8,1.3 2.3,1.6q1.5,0.2 1.5,1.2l0,1l3.5,-1.8q3.5,-1.7 4,-3q0.5,-1.2 2,-1.2q1.5,0 1.5,-1q0,-1 2.2,-2q2.3,-1 3,-7q0.8,-6 3,-8q2.3,-2 5.8,-7.5q3.5,-5.5 5.2,-6.5q1.8,-1 1.8,-2q0,-1 8.2,-5.5q8.3,-4.5 8.6,-4.7l0.2,-0.3l1,-0.3l1,-0.2l0.2,-1.5l0.3,-1.5l0.3,-0.5l0.2,-0.5l0.2,0l0.3,0l0.3,-0.5l0.2,-0.5l1,-0.2l1,-0.3l0,-0.3l0,-0.2l0.2,0l0.3,0l0.3,-0.2l0.2,-0.3l0.2,-0.3l0.3,-0.2l0.3,-1l0.2,-1l-1,0.2l-1,0.3l-2,0l-2,0l-0.2,-0.3l-0.3,-0.2l-0.3,0.2l-0.2,0.3l-0.2,0.3l-0.3,0.2l-0.3,0.2l-0.2,0.3l-1.5,0q-1.5,0 -14.3,4.3q-12.7,4.2 -23,5.4q-10.2,1.3 -8.7,0.3q1.5,-1 -6,-2.5q-7.5,-1.5 -12.5,-4l-5,-2.5l-1.5,-0.3l-1.5,-0.2l0,-1l0,-1l1,-0.2l1,-0.3l0.2,-0.3l0.3,-0.2l0.3,-0.2l0.2,-0.3l0.2,-0.3l0.3,-0.2l2.3,-3.2q2.2,-3.3 13.7,-10.8q11.5,-7.5 16.7,-14.2q5.3,-6.8 9,-10.6q3.8,-3.7 8,-6q4.3,-2.2 6,-3.7q1.8,-1.5 1.8,-2.5q0,-1 2,-1.5q2,-0.5 4.5,-4.3q2.5,-3.7 4,-4.4q1.5,-0.8 1.5,-1.8q0,-1 3.5,-0.8q3.5,0.3 11.3,2.6q7.7,2.2 11.4,4q3.8,1.7 13.3,2.2q9.5,0.5 9.7,0.8q0.3,0.2 0.6,0.4l0.2,0.3l2,0.5l2,0.5l2.5,0l2.5,0l-0.2,-0.3l-0.3,-0.2l-0.3,-0.2l-0.2,-0.3l-0.2,-0.3l-0.3,-0.2l-0.3,-0.2l-0.2,-0.3l-0.2,-0.3l-0.3,-0.2l-0.3,-0.2l-0.2,-0.3l-2,-0.5l-2,-0.5l-0.2,-0.3l-0.3,-0.2l-0.3,-0.2q-0.2,-0.3 -10.2,-5.3q-10,-5 -24.5,-13q-14.5,-8 -31,-10.5q-16.5,-2.5 -16.7,-4.8q-0.3,-2.2 -2.8,-5.7q-2.5,-3.5 -6.2,-4.3q-3.8,-0.7 -14.8,-1l-11,-0.2l-0.5,-0.2q-0.5,-0.3 -0.7,-1.6l-0.3,-1.2l0.3,-0.2l0.2,-0.3l-2,-0.5q-2,-0.5 -8,-4.8l-6,-4.2l-0.2,-1l-0.3,-1l-0.3,-0.2l-0.2,-0.3l-0.2,-0.3l-0.3,-0.2l-0.3,-0.2l-0.2,-0.3l-0.2,-0.3l-0.3,-0.2l-0.3,-0.2l-0.2,-0.3l-0.2,-0.3l-0.3,-0.2l-0.3,-0.2l-0.2,-0.3l-1.5,-0.3l-1.5,-0.2l0,-1l0,-1l1,0.2l1,0.3l3.5,0.5l3.5,0.5l7,2q7,2 10.2,0.3q3.3,-1.8 9.8,-10.8q6.5,-9 9.2,-14.5q2.8,-5.5 4.3,-5.5q1.5,0 1.5,-2l0,-2l1.5,-0.2l1.5,-0.3l-0.2,-0.3l-0.3,-0.2l-0.5,-2l-0.5,-2l-0.3,-0.2l-0.2,-0.3l-1,-0.5l-1,-0.5l-2,0l-2,0l0.2,0.3l0.3,0.2l0.3,1l0.2,1l-1,0.2q-1,0.3 -1.5,0.3q-0.5,0 -1.3,0.7q-0.7,0.8 -4,2.8q-3.2,2 -5,4.5q-1.7,2.5 -5.7,10.5q-4,8 -6.7,9.8l-2.8,1.7l-0.2,0.3l-0.3,0.2l-0.3,0.2l-0.2,0.3l-2,0l-2,0l-0.2,-0.3l-0.3,-0.2l-3.3,-2.5q-3.2,-2.5 -3.4,-4.5q-0.3,-2 -3.8,-7q-3.5,-5 -3,-8.5q0.5,-3.5 2.5,-7.5q2,-4 6.3,-12.5q4.2,-8.5 9.2,-10q5,-1.5 5.5,-3.5q0.5,-2 1.5,-1.8l1,0.3l0.2,0.3l0.3,0.2l0.3,0.2l0.2,0.3l0.2,0.3l0.3,0.2l0,-1.5l0,-1.5l-0.3,-1z"/>
  <path id="svg_5" fill="#E2E1E9" fill-rule="evenodd" stroke="#E2E1E9" stroke-width="0.5px" d="m647,552.2l1,-0.2l6,0.8q6,0.7 11.8,4.4q5.7,3.8 15.7,19.3q10,15.5 16.5,27q6.5,11.5 7.8,14q1.2,2.5 2.2,2.5q1,0 8,12q7,12 11.5,14.8q4.5,2.7 7,2.7l2.5,0l1,-0.3l1,-0.2l-0.2,0.5l-0.3,0.5l-0.3,0.2l-0.2,0.3l-1,0.5l-1,0.5l-2.5,0.3q-2.5,0.2 -6.3,4.7q-3.7,4.5 -4.7,10q-1,5.5 -4,12q-3,6.5 -6,17.5q-3,11 -5,25.5q-2,14.5 -1.5,16.5q0.5,2 -0.2,6q-0.8,4 -7.3,7.5q-6.5,3.5 -8,8.3q-1.5,4.7 -1.7,5.4q-0.3,0.8 1.7,4.8q2,4 6,7.5q4,3.5 4.5,4.5l0.5,1l0.3,0.2l0.2,0.3l0.2,0.3l0.3,0.2l0.3,0.2l0.2,0.3l0.2,0.3l0.3,0.2l0.5,1l0.5,1l0.3,1.5l0.2,1.5l-103,0l-103,0l-0.2,-1l-0.3,-1l-0.5,-2l-0.5,-2l-0.5,-1.5l-0.5,-1.5l0,-1q0,-1 4.3,-4.5q4.2,-3.5 5,-5q0.7,-1.5 8.2,-25q7.5,-23.5 8,-32.5q0.5,-9 4.5,-16q4,-7 4,-11q0,-4 -2,-5.5q-2,-1.5 -14.3,-7.3q-12.2,-5.7 -13.4,-10q-1.3,-4.2 -4.3,-9.7q-3,-5.5 -4.7,-6.5q-1.8,-1 -1.8,-2q0,-1 -1,-1q-1,0 -1,-1q0,-1 -1,-1q-1,0 -1.5,-2q-0.5,-2 -1.5,-2q-1,0 -2.2,-5q-1.3,-5 -5.3,-11.5q-4,-6.5 -9.3,-6.7q-5.2,-0.3 -8.7,1.7q-3.5,2 -7,4.5q-3.5,2.5 -4,4.2q-0.5,1.8 -1.5,1.8q-1,0 -3.8,5.5q-2.7,5.5 -8,10.7l-5.2,5.3l-0.2,0.3l-0.3,0.2l-0.3,0.2l-0.2,0.3l-0.2,0.3l-0.3,0.2l-0.3,0.2l-0.2,0.3l-1,0.5l-1,0.5l-2,0.3l-2,0.2l0.2,-0.5l0.3,-0.5l0.3,-0.2l0.2,-0.3l1,-0.5l1,-0.5l1,-0.5l1,-0.5l0.2,-0.3l0.3,-0.2l0.3,-0.2l0.2,-0.3l1,-0.5q1,-0.5 2.2,-2.2q1.3,-1.8 5,-9.3q3.8,-7.5 4.8,-7.5q1,0 1,-1q0,-1 1,-1.2q1,-0.3 0.8,-1q-0.3,-0.8 0.2,-2.3q0.5,-1.5 6.5,-5q6,-3.5 8.7,-5q2.8,-1.5 2.8,-2.5q0,-1 4,-3.5q4,-2.5 4,-4q0,-1.5 1,-1.5q1,0 1.5,-1.2l0.5,-1.3l0.2,-0.3q0.3,-0.2 0.6,-1.2l0.2,-1l1,0l1,0l0,1l0,1l1.5,0.2l1.5,0.3l0.5,0l0.5,0l0.2,-0.3l0.3,-0.2l0.3,0.2l0.2,0.3l0.2,0.3l0.3,0.2l2.5,7q2.5,7 2.8,9q0.2,2 1.2,2q1,0 2.8,5.5q1.7,5.5 2.2,9q0.5,3.5 3,9q2.5,5.5 4.2,8.3q1.8,2.7 2.8,3q1,0.2 5,5q4,4.7 12.5,9.7q8.5,5 13,5.3l4.5,0.2l-0.2,-3l-0.3,-3l-0.5,-1.5q-0.5,-1.5 -1,-3q-0.5,-1.5 -17.2,-31.5q-16.8,-30 -17.8,-30q-1,0 -3.8,-6.5q-2.7,-6.5 -4,-7q-1.2,-0.5 -1.4,-2.5q-0.3,-2 -1.6,-2.5q-1.2,-0.5 -1,-2.5q0.3,-2 -0.4,-2.8q-0.8,-0.7 0.2,-1q1,-0.2 0.8,-2.7q-0.3,-2.5 -0.6,-7l-0.2,-4.5l3.5,-0.2q3.5,-0.3 3.5,-0.6l0,-0.2l12,-1.2q12,-1.3 16.5,-3.3q4.5,-2 13,-2q8.5,0 18,4.5q9.5,4.5 17,7q7.5,2.5 11,5q3.5,2.5 7.5,2q4,-0.5 9,-3.5q5,-3 18.5,-4.5q13.5,-1.5 21,-6.5q7.5,-5 8.5,-5.3z"/>
  <path id="svg_6" fill="#E7E6ED" fill-rule="evenodd" stroke="#E7E6ED" stroke-width="0.5px" d="m277.5,600.2l1.5,-0.2l-6.5,4.8q-6.5,4.7 -12.5,9.2q-6,4.5 -6.8,5.2q-0.7,0.8 -0.4,4.8q0.2,4 1.2,4q1,0 4.5,4.2q3.5,4.3 8,5.8q4.5,1.5 7.5,1.2q3,-0.2 3.5,-1q0.5,-0.7 18,-6.4q17.5,-5.8 17.5,-6.8q0,-1 13,-6.8q13,-5.7 18.2,-7q5.3,-1.2 10,-1.4q4.8,-0.3 10.8,-2.8q6,-2.5 12.5,-2.5q6.5,0 12.5,3q6,3 6.5,4.3q0.5,1.2 7,2.4q6.5,1.3 7.3,6.6q0.7,5.2 0.2,7.2q-0.5,2 -1,8q-0.5,6 -1,7.5q-0.5,1.5 -0.5,4.5l0,3l0.3,0.2l0.2,0.3l0.2,0.3l0.3,0.2l0.3,0.2l0.2,0.3l3,0.5l3,0.5l0.5,0l0.5,0l1.8,-0.7q1.7,-0.8 2,-0.8l0.2,0l2,-0.2l2,-0.3l1,-0.5l1,-0.5l0.2,-0.3l0.3,-0.2l0.3,-0.2l0.2,-0.3l0.2,-0.3l0.3,-0.2l0.3,-0.2l0.2,-0.3l5.2,-5.3q5.3,-5.2 8,-10.7q2.8,-5.5 3.8,-5.5q1,0 1.5,-1.8q0.5,-1.7 4,-4.2q3.5,-2.5 7,-4.5q3.5,-2 8.7,-1.7q5.3,0.2 9.3,6.7q4,6.5 5.3,11.5q1.2,5 2.2,5q1,0 1.5,2q0.5,2 1.5,2q1,0 1,1q0,1 1,1q1,0 1,1q0,1 1.8,2q1.7,1 4.7,6.5q3,5.5 4.3,9.7q1.2,4.3 13.4,10q12.3,5.8 14.3,7.3q2,1.5 2,5.5q0,4 -4,11q-4,7 -4.5,16q-0.5,9 -8,32.5q-7.5,23.5 -8.2,25q-0.8,1.5 -5,5q-4.3,3.5 -4.3,4.5l0,1l0.5,1.5l0.5,1.5l0.5,2l0.5,2l0.3,1l0.2,1l-112.5,0l-112.5,0l0,-0.2l0,-0.3l-3.5,-0.5l-3.5,-0.5l-1,-0.5l-1,-0.5l-0.2,-0.3q-0.3,-0.2 -0.6,-0.4q-0.2,-0.3 -4.2,-1.3q-4,-1 -12,-4q-8,-3 -19,-10.5q-11,-7.5 -16,-12.5q-5,-5 -7.8,-9.7l-2.7,-4.8l-0.3,-0.2l-0.2,-0.3l-0.2,-0.3l-0.3,-0.2l-0.3,-0.2l-0.2,-0.3l0.2,-0.3l0.3,-0.2l0.3,-2.5l0.2,-2.5l2,0.2l2,0.3l0.2,0.3l0.3,0.2l0.3,0.2l0.2,0.3l0.2,0.3l0.3,0.2l6,2q6,2 7.7,2.8q1.8,0.7 5.8,1.2l4,0.5l0.2,0.3l0.3,0.2l0.3,0.2l0.2,0.3l0.2,0.3l0.3,0.2l0,-1l0,-1l-0.3,-0.2l-0.2,-0.3l-1,-0.3q-1,-0.2 -1,-1.2l0,-1l1,0.2l1,0.3l0.2,0.3l0.3,0.2l0.3,0.2l0.2,0.3l0.2,0.3l0.3,0.2l2.7,1.8q2.8,1.7 4.8,2.2l2,0.5l1.5,0.3l1.5,0.2l0.2,-2l0.3,-2l0.3,-0.2l0.2,-0.3l0.2,-0.3l0.3,-0.2l0.3,-0.2l0.2,-0.3l-0.2,-0.3l-0.3,-0.2l-0.5,-5q-0.5,-5 -1,-6.5q-0.5,-1.5 -1.5,-5q-1,-3.5 -2,-12q-1,-8.5 -2,-21.5q-1,-13 -1,-15.5q0,-2.5 -0.3,-4q-0.2,-1.5 -1.2,-1.7q-1,-0.3 -1.5,-1.6q-0.5,-1.2 -2,-1.2q-1.5,0 -1.5,-1q0,-1 -1,-1q-1,0 -2.2,-2.5q-1.3,-2.5 -6.3,-6q-5,-3.5 -14.7,-6.3q-9.8,-2.7 -24.3,-3.7q-14.5,-1 -18.5,-3.5l-4,-2.5l-0.2,-0.3l-0.3,-0.2l-0.3,-0.2l-0.2,-0.3l-0.2,-0.3l-0.3,-0.2l-0.3,-0.2l-0.2,-0.3l-0.2,-0.3l-0.3,-0.2l-0.3,-0.2l-0.2,-0.3l-0.2,-0.3l-0.3,-0.2l-0.3,-0.2l-0.2,-0.3l-1.5,-0.3l-1.5,-0.2l0,-0.2l0,-0.3l4,0l4,0l1.8,0.7q1.7,0.8 3.4,2.6q1.8,1.7 10.3,1.7q8.5,0 18.5,-1.5q10,-1.5 14.2,-4.2q4.3,-2.8 11.6,-10q7.2,-7.3 18.2,-13.3q11,-6 14.5,-8q3.5,-2 12,-3.5q8.5,-1.5 10,-1.8z"/>
  <path id="svg_7" fill="#C9C8CD" fill-rule="evenodd" stroke="#C9C8CD" stroke-width="0.5px" d="m1253.8,65.8l0.2,-0.3l0.2,-0.3l0.3,-0.2l0.3,0.2l0.2,0.3l0.2,0.3l0.3,0.2l0.3,0.2l0.2,0.3l0.2,0.3l0.3,0.2l0.3,0.2l0.2,0.3l0.2,0.3l0.3,0.2l0.5,1l0.5,1l1.5,3.5q1.5,3.5 1,11.5q-0.5,8 -3.2,17q-2.8,9 -3.8,9q-1,0 -2.5,3q-1.5,3 -8.5,7.2q-7,4.3 -9.8,5q-2.7,0.8 -4.2,9.8q-1.5,9 -5.5,15q-4,6 -4.5,8.5q-0.5,2.5 -0.2,7.5q0.2,5 3.7,5.8q3.5,0.7 8.5,3.7q5,3 15.5,-0.5q10.5,-3.5 11.7,-4.8q1.3,-1.2 1.6,-1.4l0.2,-0.3l0.2,-0.3l0.3,-0.2l0.3,0.2l0.2,0.3l1,0.5l1,0.5l0.2,0.3l0.3,0.2l0.5,3.5l0.5,3.5l0.3,0l0.2,0l0,19l0,19l-0.5,-0.2l-0.5,-0.3l-0.2,-0.3q-0.3,-0.2 -0.6,0.8q-0.2,1 -1.2,1q-1,0 -1.2,-1.5l-0.3,-1.5l-0.3,1.5l-0.2,1.5l-1.5,0.2l-1.5,0.3l-1.5,0.5l-1.5,0.5l-0.2,0.3l-0.3,0.2l-1.5,3q-1.5,3 -2,7.5q-0.5,4.5 1.8,8.3q2.2,3.7 5.4,6q3.3,2.2 4.3,4.2q1,2 1,7l0,5l-0.3,0.2l-0.2,0.3l-0.2,0.3q-0.3,0.2 -0.6,0.4q-0.2,0.3 -8.2,2.3q-8,2 -11.2,3.7q-3.3,1.8 -2,2.3q1.2,0.5 -0.3,2.7q-1.5,2.3 -2.3,4.6q-0.7,2.2 0.6,2.7q1.2,0.5 -2.3,4.7l-3.5,4.3l-1,0.5l-1,0.5l-0.2,0.3l-0.3,0.2l-0.3,0.2l-0.2,0.3l-0.2,0.3l-0.3,0.2l-0.3,0.2l-0.2,0.3l-0.2,0.3l-0.3,0.2l-0.3,0.2l-0.2,0.3l-0.2,0.3l-0.3,0.2l-0.3,0.2l-0.2,0.3l-0.2,0.3l-0.3,0.2l-0.3,-0.2l-0.2,-0.3l-0.2,-0.3l-0.3,-0.2l-0.5,-1.5q-0.5,-1.5 -1,-4.5q-0.5,-3 -7.2,-4.2q-6.8,-1.3 -11.6,-3.6q-4.7,-2.2 -5.7,-7.7q-1,-5.5 2.7,-10.7q3.8,-5.3 7,-15q3.3,-9.8 6.3,-14.8q3,-5 9.5,-14.5q6.5,-9.5 8.5,-15.5l2,-6l0,-0.5l0,-0.5l-0.3,-0.2l-0.2,-0.3l-0.2,-0.3l-0.3,-0.2l-0.3,-0.2q-0.2,-0.3 -7.2,-2.8q-7,-2.5 -14.5,-2.5q-7.5,0 -10.5,4q-3,4 -8.2,18.7q-5.3,14.8 -9.3,31.3q-4,16.5 -7.3,25.5q-3.2,9 -4.7,9.2q-1.5,0.3 -3.3,3.6q-1.7,3.2 -6.4,6q-4.8,2.7 -10.8,2q-6,-0.8 -6,-1.8q0,-1 -9.5,-7.2q-9.5,-6.3 -15.5,-6.8q-6,-0.5 -10,1.5q-4,2 -18.5,11q-14.5,9 -21.7,17.7q-7.3,8.8 -15.6,10.6q-8.2,1.7 -11,6.4q-2.7,4.8 -12,13q-9.2,8.3 -17.2,11.8q-8,3.5 -17.5,4l-9.5,0.5l-1,-0.3l-1,-0.2l0,-1l0,-1l1,-0.2l1,-0.3l0.2,-0.3l0.3,-0.2l0.3,-0.2l0.2,-0.3l0.2,-0.3l0.3,-0.2l0.3,-0.2l0.2,-0.3l0.2,-0.3l0.3,-0.2l0.5,-1q0.5,-1 1,-2l0.5,-1l0.3,-0.2l0.2,-0.3l0.2,-0.3l0.3,-0.2l0.3,-0.2l0.2,-0.3l0.2,-0.3l0.3,-0.2l0.3,-0.2l0.2,-0.3l0.2,-0.3l0.3,-0.2l0.3,-1l0.2,-1l0.2,0q0.3,0 0.6,-0.5l0.2,-0.5l10.2,-12q10.3,-12 14.8,-17.5q4.5,-5.5 9.8,-14.7q5.2,-9.3 13.2,-20q8,-10.8 9,-10.8q1,0 2.5,-2.2q1.5,-2.3 2.5,-2.6q1,-0.2 4.5,-4q3.5,-3.7 4.5,-4q1,-0.2 4.5,-4q3.5,-3.7 11.7,-13q8.3,-9.2 11,-13.2q2.8,-4 3.8,-4q1,0 4.5,-3.8q3.5,-3.7 8,-6.2q4.5,-2.5 13,-2q8.5,0.5 17,5.5q8.5,5 10,5.3q1.5,0.2 1.5,1.2q0,1 1.8,2.5q1.7,1.5 1.7,4.5q0,3 0,4q0,1 0,4l0,3l0.3,0.2l0.2,0.3l1,0l1,0l1,-0.5l1,-0.5l0.2,-0.3l0.3,-0.2l0.3,-0.2l0.2,-0.3l0.2,-0.3l0.3,-0.2l0.5,-2l0.5,-2l0.5,-2.5q0.5,-2.5 1,-8.5q0.5,-6 -3.2,-6.8q-3.8,-0.7 -8.6,-5q-4.7,-4.2 -7.7,-8.2q-3,-4 -4.3,-4.8q-1.2,-0.7 -8.2,-1.2q-7,-0.5 -10,-2.2l-3,-1.8l-0.2,-0.5q-0.3,-0.5 -0.6,-0.5l-0.2,0l-0.2,-0.5q-0.3,-0.5 -0.6,-0.5l-0.2,0l-0.2,-0.5q-0.3,-0.5 -0.6,-0.7l-0.2,-0.3l-0.2,-0.3l-0.3,-0.2l-0.3,-0.2l-0.2,-0.3l-0.2,-0.3l-0.3,-0.2l-0.3,-0.2l-0.2,-0.3l-0.2,-0.3l-0.3,-0.2l-0.3,-0.2l-0.2,-0.3l-0.2,-0.3q-0.3,-0.2 -3,-3l-2.8,-2.7l-0.2,-0.3l-0.3,-0.2l-0.5,-1l-0.5,-1l-0.5,-2l-0.5,-2l-0.3,-0.2l-0.2,-0.3l1,-0.5l1,-0.5l3,-0.5l3,-0.5l0.2,-0.3l0.3,-0.2l0.3,0.2l0.2,0.3l4.8,2.7q4.7,2.8 5,3.8q0.2,1 2.7,2.2q2.5,1.3 6,1.6l3.5,0.2l0.2,-1l0.3,-1l0.3,-0.2l0.2,-0.3l0.2,-0.3l0.3,-0.2l0.3,-0.2l0.2,-0.3l1,-0.3l1,-0.2l-0.2,-5q-0.3,-5 -2.6,-6.2q-2.2,-1.3 -5,-3l-2.7,-1.8l0,-1.5l0,-1.5l0.5,-1l0.5,-1l0.3,-0.2l0.2,-0.3l0.2,-0.3l0.3,-0.2l0.3,-0.2l0.2,-0.3l0.2,-0.3l0.3,-0.2l0.3,-0.2l0.2,-0.3l0.2,-0.3l0.3,-0.2l6.3,-3.2q6.2,-3.3 9.2,-3.8q3,-0.5 8,0.5q5,1 12.2,-2.7q7.3,-3.8 8.8,-5.3q1.5,-1.5 4.2,-7.7q2.8,-6.3 9.3,-15.3q6.5,-9 10,-12q3.5,-3 5.5,-4q2,-1 3,-1.5l1,-0.5l2.5,0l2.5,0l1.5,0.5l1.5,0.5l0.2,0.3l0.3,0.2l0,2.5l0,2.5l-0.3,0.2l-0.2,0.3l-0.2,0.3l-0.3,0.2l-0.3,0.2l-0.2,0.3l-0.2,0.3q-0.3,0.2 -2.8,2.7q-2.5,2.5 -5,7.5l-2.5,5l0,2.5l0,2.5l0.3,0.2l0.2,0.3l1,0.5l1,0.5l-0.2,0.3l-0.3,0.2l-0.3,0.2l-0.2,0.3l0.2,0.3l0.3,0.2l0.3,0.2l0.2,0.3l0.2,0.3l0.3,0.2l0.3,-0.2l0.2,-0.3l1,-0.5l1,-0.5l1,-0.5l1,-0.5l1,-0.5l1,-0.5l1.8,-1.7q1.7,-1.8 1.4,-2.6q-0.2,-0.7 0.8,-1q1,-0.2 6,-9.4q5,-9.3 13,-20.8q8,-11.5 9,-12q1,-0.5 2,-1l1,-0.5l1,-0.5l1,-0.5l0.2,-0.3l0.3,-0.2l0.3,-0.2z"/>
  <path id="svg_8" fill="#E8E7EE" fill-rule="evenodd" stroke="#E8E7EE" stroke-width="0.5px" d="m287,0.2l0,-0.2l113.5,0l113.5,0l-1.8,6.5q-1.7,6.5 -8.7,16.5q-7,10 -7.5,20q-0.5,10 -3,14q-2.5,4 -11,13.5q-8.5,9.5 -16.2,20.5q-7.8,11 -9.6,12q-1.7,1 -1.4,3.2q0.2,2.3 1,6q0.7,3.8 -0.6,6.6q-1.2,2.7 -2.2,3q-1,0.2 -1,1.2q0,1 -3.5,2.8q-3.5,1.7 -1,8.4q2.5,6.8 9,10q6.5,3.3 14.7,2.6q8.3,-0.8 10,-1.3q1.8,-0.5 1.8,-1.5q0,-1 3.8,-4.5q3.7,-3.5 9.2,-9.5q5.5,-6 5.8,-6.2q0.2,-0.3 1.2,-0.6l1,-0.2l2,-0.2l2,-0.3l0.2,-0.3l0.3,-0.2l0.3,-0.2l0.2,-0.3l1.5,-0.3l1.5,-0.2l0,1l0,1l-1.5,0.2l-1.5,0.3l0.2,0.3l0.3,0.2l0.3,0.2l0.2,0.3l1,0l1,0l2,-0.3l2,-0.2l-0.2,1.5l-0.3,1.5l-0.3,0.2l-0.2,0.3l-1,0.5l-1,0.5l-1,0.5q-1,0.5 -3.5,1.5q-2.5,1 -3.7,3.3q-1.3,2.2 -6,7.7l-4.8,5.5l-0.5,0.2q-0.5,0.3 -0.5,0.6l0,0.2l-0.5,0.2q-0.5,0.3 -0.5,0.6l0,0.2l-0.5,0.2q-0.5,0.3 -0.7,0.6l-0.3,0.2l-0.3,0.2l-0.2,0.3l-1,0.5l-1,0.5l-0.2,0.3l-0.3,0.2l-0.3,0.2l-0.2,0.3l-0.2,0.3q-0.3,0.2 -5,5.7q-4.8,5.5 -12.3,8.7q-7.5,3.3 -13.5,4.3q-6,1 -8.5,-1q-2.5,-2 -5,-6q-2.5,-4 -3.7,-6.3q-1.3,-2.2 -3,-3.7q-1.8,-1.5 -3.3,-4.5q-1.5,-3 -13.5,-3.8q-12,-0.7 -16,0.3q-4,1 -8.5,0q-4.5,-1 -27.5,-3.7l-23,-2.8l-3,0.2q-3,0.3 -10,0.3q-7,0 -10,0.5q-3,0.5 -4.2,1.8q-1.3,1.2 -5.6,2.7q-4.2,1.5 -4.4,2.5q-0.3,1 -5,2l-4.8,1l-7.5,0.2q-7.5,0.3 -14,0.8q-6.5,0.5 -11.5,-0.8l-5,-1.2l0,-1l0,-1l-1,-0.2l-1,-0.3l-0.2,-0.3l-0.3,-0.2l-0.3,-0.2l-0.2,-0.3l-0.2,-0.3l-0.3,-0.2l-0.3,-0.2l-0.2,-0.3l-0.2,-0.3l-0.3,-0.2l0,-2.5l0,-2.5l0.3,-0.2l0.2,-0.3l0.2,-0.3l0.3,-0.2l0.3,-0.2l0.2,-0.3l0.2,-0.3l0.3,-0.2l0.3,-0.2l0.2,-0.3l1,-0.5l1,-0.5l11.5,-1.5q11.5,-1.5 13,-2q1.5,-0.5 3,-0.8l1.5,-0.2l4,0q4,0 3.5,-1.2q-0.5,-1.3 4.5,-1.8q5,-0.5 7,-0.8l2,-0.2l-0.2,-1.5q-0.3,-1.5 -0.8,-9q-0.5,-7.5 -2.8,-15.5q-2.2,-8 -3.2,-8q-1,0 -1.2,-1q-0.3,-1 -3,-4.2q-2.8,-3.3 -10,-6l-7.3,-2.8l-0.3,-0.2l-0.2,-0.3l-1,-0.3l-1,-0.2l-0.2,-1l-0.3,-1l-0.3,-1l-0.2,-1l1,0l1,0l0,-1l0,-1l1,0q1,0 1,-1q0,-1 2,-1.2q2,-0.3 4.5,-2q2.5,-1.8 3.7,-6.3q1.3,-4.5 -0.2,-9q-1.5,-4.5 -5.8,-8.7q-4.2,-4.3 -8.2,-6.3q-4,-2 -14,0l-10,2l-0.2,0.3l-0.3,0.2l-0.3,0.2l-0.2,0.3l-2,0.3l-2,0.2l0,-0.2l0,-0.3l0.2,-0.3l0.3,-0.2l0.3,-0.2l0.2,-0.3l0.2,-0.3l0.3,-0.2l0.3,-0.2l0.2,-0.3l0.2,-0.3l0.3,-0.2l0.3,-0.2l0.2,-0.3l0.2,-0.3l0.3,-0.2l0.3,-0.2l0.2,-0.3l1,-0.5l1,-0.5l0.2,-0.3l0.3,-0.2l5.7,-4.2q5.8,-4.3 12,-9.6q6.3,-5.2 10.8,-11.2q4.5,-6 4.2,-8.2q-0.2,-2.3 -0.2,-2.6z"/>
  <path id="svg_9" fill="#E7E6ED" fill-rule="evenodd" stroke="#E7E6ED" stroke-width="0.5px" d="m199.5,101.2l0.5,-0.2l0.2,3.5q0.3,3.5 4,7.3q3.8,3.7 8.3,5.7q4.5,2 11.7,3.3q7.3,1.2 25,2q17.8,0.7 28.3,4.7q10.5,4 10.5,4.3l0,0.2l-1.5,0.2q-1.5,0.3 -3,0.8q-1.5,0.5 -13,2l-11.5,1.5l-1,0.5l-1,0.5l-0.2,0.3l-0.3,0.2l-0.3,0.2l-0.2,0.3l-0.2,0.3l-0.3,0.2l-0.3,0.2l-0.2,0.3l-0.2,0.3l-0.3,0.2l0,2.5l0,2.5l0.3,0.2l0.2,0.3l0.2,0.3l0.3,0.2l0.3,0.2l0.2,0.3l0.2,0.3l0.3,0.2l0.3,0.2l0.2,0.3l1,0.3l1,0.2l0,1l0,1l5,1.2q5,1.3 11.5,0.8q6.5,-0.5 14,-0.8l7.5,-0.2l-3.5,2.8q-3.5,2.7 -13.5,10q-10,7.2 -11.8,12.7q-1.7,5.5 -4,11.5q-2.2,6 -6,9.5q-3.7,3.5 -6.7,8q-3,4.5 -3.7,8q-0.8,3.5 -1.8,3.5q-1,0 -2.5,3.8q-1.5,3.7 -2.5,4q-1,0.2 -3.5,3q-2.5,2.7 -8,5.4q-5.5,2.8 -6,4q-0.5,1.3 -1.5,1.6q-1,0.2 -1.2,5.7q-0.3,5.5 3,9.3q3.2,3.7 5.7,4.4q2.5,0.8 2.5,1.8q0,1 7.5,1.8q7.5,0.7 11.7,-1.6q4.3,-2.2 5.6,-4.4q1.2,-2.3 2.2,-2.6q1,-0.2 4,-4.7q3,-4.5 5.2,-6.5q2.3,-2 6.3,-9q4,-7 3.7,-7.8q-0.2,-0.7 0.8,-1q1,-0.2 2,-3q1,-2.7 2,-3q1,-0.2 6,-6.4q5,-6.3 9.2,-8q4.3,-1.8 6,-2.3q1.8,-0.5 1.8,-1.5q0,-1 2.5,-1.5q2.5,-0.5 2.5,-1.5q0,-1 6.5,-1.8q6.5,-0.7 16,2q9.5,2.8 9.5,3.8q0,1 13.5,6.2q13.5,5.3 23,8.8q9.5,3.5 24.5,3q15,-0.5 18,-0.8q3,-0.2 2.5,-1.4q-0.5,-1.3 1,-1.8q1.5,-0.5 2.5,-1l1,-0.5l2.5,0l2.5,0l0.2,0.3l0.3,0.2l0.3,0.2l0.2,0.3l0.2,0.3l0.3,0.2l0.3,1l0.2,1l-1,0.2l-1,0.3l-0.2,0.3l-0.3,0.2l-0.3,0.2l-0.2,0.3l-0.2,0.3l-0.3,0.2l-0.5,1.5l-0.5,1.5l-0.3,0.2q-0.2,0.3 -4.4,3q-4.3,2.8 -11.6,9l-7.2,6.3l-0.2,0.3l-0.3,0.2l-0.3,0.2l-0.2,0.3l-0.2,0.3l-0.3,0.2l-0.5,1l-0.5,1l-0.3,0.2l-0.2,0.3l-0.2,0.3l-0.3,0.2l-0.3,0l-0.2,0l-1,0.2l-1,0.3l-0.2,0.3q-0.3,0.2 -6,4q-5.8,3.7 -8.8,7q-3,3.2 -6,4.4q-3,1.3 -3.5,2.6q-0.5,1.2 -2.5,2q-2,0.7 -14,3.2q-12,2.5 -25,3q-13,0.5 -17.5,-1q-4.5,-1.5 -11.5,-2q-7,-0.5 -18,6.5q-11,7 -11.8,8.7q-0.7,1.8 -4,3q-3.2,1.3 -8.7,1.6q-5.5,0.2 -5.7,1.2q-0.3,1 -3.6,3.2l-3.2,2.3l-0.2,0.3l-0.3,0.2l-0.3,0.2l-0.2,0.3l-0.2,0.3l-0.3,0.2l-0.3,0.5l-0.2,0.5l-8.8,3.5q-8.7,3.5 -11.4,7.7q-2.8,4.3 -4.6,5.6q-1.7,1.2 -4.2,8.2q-2.5,7 -8,15.5q-5.5,8.5 -5.8,10q-0.2,1.5 -1.2,1.5q-1,0 -4.5,5.2q-3.5,5.3 -8,8.3q-4.5,3 -9.7,4.3q-5.3,1.2 -6.3,4.7q-1,3.5 -1,5.5q0,2 -0.7,3.2q-0.8,1.3 -1,1.6l-0.3,0.2l-0.3,0.2l-0.2,0.3l-0.2,0.3l-0.3,0.2l-0.3,0.2l-0.2,0.3l-0.2,0.3l-0.3,0.2l-0.3,0.2l-0.2,0.3l-1,0.3q-1,0.2 -0.8,-2.3l0.3,-2.5l-0.5,1q-0.5,1 -1.8,1.8q-1.2,0.7 -1,2q0.3,1.2 -4,3q-4.2,1.7 -26.2,2.7q-22,1 -30,3.5q-8,2.5 -14,5q-6,2.5 -13.5,1.5q-7.5,-1 -16.5,-6q-9,-5 -12.2,-8.3q-3.3,-3.2 -5.6,-4l-2.2,-0.7l0,-0.3l0,-0.2l0.2,-1q0.3,-1 1.8,-4.5q1.5,-3.5 7,-8q5.5,-4.5 7.8,-14.3q2.2,-9.7 -0.8,-14.2q-3,-4.5 -6,-4q-3,0.5 -2,0q1,-0.5 -2.5,-1l-3.5,-0.5l-0.2,-0.3l-0.3,-0.2l-0.3,-0.2l-0.2,-0.3l2,-0.5l2,-0.5l-1,-0.5l-1,-0.5l6,-0.5q6,-0.5 7.8,-1.8l1.7,-1.2l0.3,-0.2l0.2,-0.3l0.2,-0.3l0.3,-0.2l0.5,-1l0.5,-1l0,-1.5l0,-1.5l-0.5,-1.5q-0.5,-1.5 -2.2,-4.3q-1.8,-2.7 -4.3,-6.4q-2.5,-3.8 -3.5,-4q-1,-0.3 -12,-11.3q-11,-11 -16.5,-11.5l-5.5,-0.5l-1,0.3l-1,0.2l0,-1l0,-1l1,0l1,0l0.2,-1.5q0.3,-1.5 2.6,-3.7q2.2,-2.3 2.2,-4.3q0,-2 -1.2,-8.7q-1.3,-6.8 0.7,-12.8q2,-6 5.3,-7.2q3.2,-1.3 22.2,-1q19,0.2 19,-0.8q0,-1 1.2,-0.5q1.3,0.5 2,1q0.8,0.5 1.3,-1.5q0.5,-2 1.5,-2q1,0 1.5,-2.5q0.5,-2.5 -0.5,-2.5q-1,0 -0.5,-5q0.5,-5 1.7,-5.5q1.3,-0.5 1.8,-3q0.5,-2.5 1,-4.5l0.5,-2l0.3,-1l0.2,-1l0.5,-0.2q0.5,-0.3 0.5,-0.6l0,-0.2l0.5,-0.2q0.5,-0.3 0.5,-0.6l0,-0.2l0.2,-0.5q0.3,-0.5 8.3,-8q8,-7.5 11.7,-11q3.8,-3.5 4,-4.5q0.3,-1 18.3,-19.5q18,-18.5 23.3,-24.3l5.2,-5.7l0.2,-0.3l0.3,-0.2l0.5,-1l0.5,-1l0,-2l0,-2l-0.3,-0.2l-0.2,-0.3l-0.2,-0.3l-0.3,-0.2l-0.3,-0.2q-0.2,-0.3 -5.7,-1.3l-5.5,-1l1,-0.5l1,-0.5l3,-0.5l3,-0.5l-1,-0.5l-1,-0.5l8.5,-4q8.5,-4 19,-5.5q10.5,-1.5 13.7,-3.8q3.3,-2.2 5.6,-5q2.2,-2.7 2.7,-3z"/>
  <path id="svg_10" fill="#E9E8EE" fill-rule="evenodd" stroke="#E9E8EE" stroke-width="0.5px" d="m558.2,324.5l-3.2,-5.5l2,1.2q2,1.3 6.8,7q4.7,5.8 9.7,15.8q5,10 6.3,10.5q1.2,0.5 3.7,4q2.5,3.5 5.5,4.7q3,1.3 3.8,-1q0.7,-2.2 7.4,9q6.8,11.3 7.8,11.6q1,0.2 1,1.2q0,1 1,1q1,0 2.5,2.8q1.5,2.7 3.5,3.4q2,0.8 2.5,2.8q0.5,2 3.7,5q3.3,3 6.8,10q3.5,7 7.2,11.8q3.8,4.7 4.8,5q1,0.2 1,3.7q0,3.5 11,-0.3q11,-3.7 15.5,-6.2q4.5,-2.5 12.5,-3.5q8,-1 11.5,4.7q3.5,5.8 4.7,6.3q1.3,0.5 1.6,1.3q0.2,0.7 1.2,1.2l1,0.5l0.2,0.3l0.3,0.2l0.3,0.2l0.2,0.3l0.2,0.3l0.3,0.2l0.3,0.2l0.2,0.3l0.2,0.3l0.3,0.2l0.5,1l0.5,1l0.3,0.2l0.2,0.3l0.2,0.3l0.3,0.2l0.3,0.2l0.2,0.3l0.5,0.3l0.5,0.2l1.5,3.5q1.5,3.5 2.5,3.5q1,0 8,13.2q7,13.3 9.8,19q2.7,5.8 3,7.8l0.2,2l-0.2,0l-0.3,0l0,2l0,2l0,0.5l0,0.5l-0.5,1l-0.5,1l-0.3,-0.2l-0.2,-0.3l-0.2,-0.3l-0.3,-0.2l-0.3,-0.2l-0.2,-0.3l-0.2,-0.3q-0.3,-0.2 -4,-0.4q-3.8,-0.3 -7.3,-0.3q-3.5,0 -15.5,1.5q-12,1.5 -18.5,4l-6.5,2.5l-1,0.5l-1,0.5l-2,0.5l-2,0.5l0,0.3l0,0.2l-4,-0.2q-4,-0.3 -6,-0.3q-2,0 -2.8,1.7q-0.7,1.8 -4.2,3.8q-3.5,2 -13.2,7.2q-9.8,5.3 -37.8,12.3q-28,7 -29,8q-1,1 -16.5,2q-15.5,1 -38.5,7.5l-23,6.5l-1,0.5l-1,0.5l0,0.3l0,0.2l-1.5,0.2q-1.5,0.3 -5,1.3q-3.5,1 -4.3,2.7q-0.7,1.8 -2,2.6l-1.2,0.7l-0.2,0.3l-0.3,0.2l-0.3,0.2l-0.2,0.3l-1,0.3l-1,0.2l0.2,-1q0.3,-1 0.6,-1.2q0.2,-0.3 0.2,-2q0,-1.8 -2,-2q-2,-0.3 -19.5,-6.3q-17.5,-6 -21,-5.3q-3.5,0.8 -3.7,1.8q-0.3,1 -3.6,2.2q-3.2,1.3 -7.7,2.8l-4.5,1.5l-0.2,0.3l-0.3,0.2l-0.5,1.5l-0.5,1.5l-0.3,1.5l-0.2,1.5l1,0.2l1,0.3l0.2,0.3l0.3,0.2l0.3,0.2l0.2,0.3l3,0.5l3,0.5l1.2,-0.3q1.3,-0.2 2.6,-3q1.2,-2.7 4.7,-3.7q3.5,-1 4,-1l0.5,0l1,0l1,0l1,0.3l1,0.2l0.2,1l0.3,1l0.3,0.2l0.2,0.3l0.2,0.3l0.3,0.2l0.5,1l0.5,1l0.3,0.2l0.2,0.3l0.2,0.3l0.3,0.2l0.5,1l0.5,1l0,3.5q0,3.5 -7.3,11.7q-7.2,8.3 -11.2,8.8q-4,0.5 -7,-2.8q-3,-3.2 -8,-7q-5,-3.7 -10.5,-5.7q-5.5,-2 -11.5,-2.5q-6,-0.5 -18,1.5q-12,2 -22,5.7l-10,3.8l-23.5,-0.2q-23.5,-0.3 -25,-0.6q-1.5,-0.2 -2.7,-4.2q-1.3,-4 -8,-8.2q-6.8,-4.3 -24.8,-8.3q-18,-4 -29.2,-7.7q-11.3,-3.8 -19,-6.6q-7.8,-2.7 -18.8,-2.7q-11,0 -13.2,1.7q-2.3,1.8 -6,2.8q-3.8,1 -5.8,-2.5q-2,-3.5 -3,-3.7q-1,-0.3 -4.8,-6.6q-3.7,-6.2 -7,-9.4q-3.2,-3.3 -9.2,-5.3q-6,-2 -10.5,-1.3l-4.5,0.8l0,-0.2l0,-0.3l-2.5,-0.5q-2.5,-0.5 -3,-1l-0.5,-0.5l-2.5,-0.5l-2.5,-0.5l-0.2,-0.3l-0.3,-0.2l-0.5,-2.5l-0.5,-2.5l-0.3,-0.2l-0.2,-0.3l2,-0.5l2,-0.5l1,-0.5l1,-0.5l1,-0.5q1,-0.5 3,-0.5q2,0 10.5,-1.5q8.5,-1.5 16.7,-6.2q8.3,-4.8 13.6,-6.8q5.2,-2 5.2,-3q0,-1 1,-1.2q1,-0.3 2.5,-2q1.5,-1.8 2.5,-2q1,-0.3 1.5,-1.6q0.5,-1.2 1.5,-1.2q1,0 3.2,-4.5q2.3,-4.5 4.8,-14q2.5,-9.5 4,-15q1.5,-5.5 10,-20q8.5,-14.5 10.5,-20.5q2,-6 5.3,-12q3.2,-6 5,-7q1.7,-1 1,-1.8q-0.8,-0.7 0.2,-1.2q1,-0.5 1.2,-1.2q0.3,-0.8 4,-9.3l3.8,-8.5l0.5,-0.2q0.5,-0.3 0.5,-0.6l0,-0.2l0.2,0q0.3,0 0.8,-1.5l0.5,-1.5l0.5,-1l0.5,-1l0.3,-0.2l0.2,-0.3l0.2,-0.3l0.3,-0.2l5.3,-8q5.2,-8 7,-8.5q1.7,-0.5 2,-1.5q0.2,-1 5.2,-0.8q5,0.3 6,0.6q1,0.2 1,1.2q0,1 2.8,3q2.7,2 5.4,8.8q2.8,6.7 11.8,20.7q9,14 10.5,16.3q1.5,2.2 2.5,2.2q1,0 6.8,9q5.7,9 7,12q1.2,3 2,3.5q0.7,0.5 2.4,7.7q1.8,7.3 3.3,12q1.5,4.8 2.5,4.8q1,0 6.5,6.8q5.5,6.7 6.5,7q1,0.2 2.5,3q1.5,2.7 9,13.7q7.5,11 8.5,11.3q1,0.2 1,1.7q0,1.5 1,1.5q1,0 2,2.2q1,2.3 2,2.6q1,0.2 1,1.2q0,1 3.5,2.8q3.5,1.7 3.7,2l0.3,0.2l0.3,0.2l0.2,0.3l2,0l2,0l0.2,-0.3l0.3,-0.2l0.3,-0.2l0.2,-0.3l0.2,-0.3l0.3,-0.2l0.3,-0.2l0.2,-0.3l0.2,-0.3l0.3,-0.2l0.5,-1l0.5,-1l0.3,-0.2l0.2,-0.3l0.2,-0.3q0.3,-0.2 0.8,-6.7q0.5,-6.5 0,-8q-0.5,-1.5 -0.2,-3.7q0.2,-2.3 7.2,-5.3q7,-3 13.5,-6.3q6.5,-3.2 6.5,-4.2q0,-1 1.5,-1.2q1.5,-0.3 5.5,-3.3q4,-3 9,-5.5l5,-2.5l0.2,-0.3l0.3,-0.2l0.3,-0.2l0.2,-0.3l-0.2,-0.3l-0.3,-0.2l-0.3,-0.2l-0.2,-0.3l-0.2,-0.3l-0.3,-0.2l-0.3,-0.2l-0.2,-0.3l-4,-5.5q-4,-5.5 -5,-5.8q-1,-0.2 -1.8,-3.7q-0.7,-3.5 0.8,-6.5q1.5,-3 3.2,-4.8q1.8,-1.7 10,-6q8.3,-4.2 14.3,-9.7q6,-5.5 7.7,-7.7q1.8,-2.3 4.3,-3.3q2.5,-1 9,-0.7q6.5,0.2 6.5,-1.3q0,-1.5 1,-1.5q1,0 1,-1q0,-1 4,-3q4,-2 4.5,-3.2q0.5,-1.3 6,-3.8q5.5,-2.5 7.5,-10.2q2,-7.8 8.2,-11.3q6.3,-3.5 9.6,-0.7q3.2,2.7 5,3.4q1.7,0.8 5,3.6q3.2,2.7 12.2,7.7q9,5 19.5,7.5q10.5,2.5 14,2.5q3.5,0 5,-0.5l1.5,-0.5l1,-0.3l1,-0.2l0.2,-1.5l0.3,-1.5l0.5,-1q0.5,-1 0.5,-4.5q0,-3.5 -3.5,-11.5q-3.5,-8 -6,-16.5q-2.5,-8.5 -5.8,-14z"/>
  <path id="svg_11" fill="#E6E5EC" fill-rule="evenodd" stroke="#E6E5EC" stroke-width="0.5px" d="m56,454l5,-0.5l1,0.5l1,0.5l-1.5,0.5l-1.5,0.5l-1,0.3q-1,0.2 0.8,3.2q1.7,3 1.2,7.5q-0.5,4.5 0.5,8.5q1,4 2.5,5q1.5,1 4.2,4.8q2.8,3.7 9.3,11.7q6.5,8 9,10.7q2.5,2.8 3.5,2.8q1,0 1.8,2.5q0.7,2.5 1.2,11.5q0.5,9 1,10q0.5,1 0.8,2.2q0.2,1.3 2.7,2q2.5,0.8 2.5,1.8q0,1 3,1.8q3,0.7 6.2,0.4q3.3,-0.2 5.6,-4.4q2.2,-4.3 5.2,-6.3q3,-2 3.2,-2.3l0.3,-0.2l0.5,-1.5l0.5,-1.5l0.3,-0.2l0.2,-0.3l0.2,-0.3l0.3,-0.2l0.3,-0.2l0.2,-0.3l-0.2,-0.3l-0.3,-0.2l-0.3,-1l-0.2,-1l-3.5,-0.2l-3.5,-0.3l-1.5,-0.5l-1.5,-0.5l0,-0.3l0,-0.2l2,0.2l2,0.3l1,0l1,0l0.2,-0.3l0.3,-0.2l0.3,-0.2l0.2,-0.3l-0.2,-0.3l-0.3,-0.2l-0.3,-0.2l-0.2,-0.3l-2,-0.5l-2,-0.5l3.5,-0.3l3.5,-0.2l4.5,-0.8q4.5,-0.7 10.5,1.3q6,2 9.2,5.3q3.3,3.2 7,9.4q3.8,6.3 4.8,6.6q1,0.2 3,3.7q2,3.5 5.8,2.5q3.7,-1 6,-2.8q2.2,-1.7 13.2,-1.7q11,0 18.8,2.7q7.7,2.8 19,6.6q11.2,3.7 29.2,7.7q18,4 24.8,8.3q6.7,4.2 8,8.2q1.2,4 2.7,4.2q1.5,0.3 25,0.6l23.5,0.2l0,0.2l0,0.3l-2,0.5l-2,0.5l-1.5,0.5l-1.5,0.5l-3.5,0.5q-3.5,0.5 -19.3,6.2q-15.7,5.8 -23,8.8l-7.2,3l-1,0.2q-1,0.3 -1,0.6l0,0.2l-2.5,0.2q-2.5,0.3 -9,1.3q-6.5,1 -10,3q-3.5,2 -14.5,8q-11,6 -18.2,13.3q-7.3,7.2 -11.6,10q-4.2,2.7 -14.2,4.2q-10,1.5 -18.5,1.5q-8.5,0 -10.3,-1.7q-1.7,-1.8 -3.4,-2.6l-1.8,-0.7l-4,0l-4,0l0,0.3l0,0.2l-2,0.2q-2,0.3 -11.5,2l-9.5,1.8l-1.5,0q-1.5,0 -3,2.8q-1.5,2.7 -2.3,4q-0.7,1.2 -2,4.4q-1.2,3.3 -7.7,8q-6.5,4.8 -9.3,11.3q-2.7,6.5 -9.7,14.5q-7,8 -8,16q-1,8 -1.5,10.5l-0.5,2.5l-0.5,1l-0.5,1l-0.3,0.2l-0.2,0.3l-3.5,0l-3.5,0l-0.2,-0.3q-0.3,-0.2 -2,-1.2q-1.8,-1 -2.8,-2.8q-1,-1.7 -6,-4.2q-5,-2.5 -10,-1.5q-5,1 -8.2,4.3q-3.3,3.2 -8.6,4q-5.2,0.7 -16.2,-3.3q-11,-4 -11.5,-5.3q-0.5,-1.2 -4.7,-2.7q-4.3,-1.5 -5.3,-11.5l-1,-10l-0.5,-2.5l-0.5,-2.5l-0.3,0l-0.2,0l0,-85l0,-85l0.2,0l0.3,0l0.5,-11.5q0.5,-11.5 1,-21.5q0.5,-10 2.2,-11.2q1.8,-1.3 7.8,-2.3q6,-1 14.5,-2.5q8.5,-1.5 10,-2.5q1.5,-1 2.3,-0.3q0.7,0.8 1,-0.2q0.2,-1 5.7,-1.8q5.5,-0.7 10.5,-1.2z"/>
  <path id="svg_12" fill="#D8D7DD" fill-rule="evenodd" stroke="#D8D7DD" stroke-width="0.5px" d="m1233.2,192.8l0.3,0.2l0.3,0.2l0.2,0.3l0.2,0.3l0.3,0.2l0,0.5l0,0.5l-2,6q-2,6 -8.5,15.5q-6.5,9.5 -9.5,14.5q-3,5 -6.3,14.8q-3.2,9.7 -7,15q-3.7,5.2 -2.7,10.7q1,5.5 5.7,7.7q4.8,2.3 11.6,3.6q6.7,1.2 7.2,4.2q0.5,3 1,4.5l0.5,1.5l0.3,0.2l0.2,0.3l0.2,0.3l0.3,0.2l0.3,-0.2l0.2,-0.3l0.2,-0.3l0.3,-0.2l0.3,-0.2l0.2,-0.3l0.2,-0.3l0.3,-0.2l0.3,-0.2l0.2,-0.3l0.2,-0.3l0.3,-0.2l0.3,-0.2l0.2,-0.3l0.2,-0.3l0.3,-0.2l0.3,-0.2l0.2,-0.3l1,-0.5l1,-0.5l3.5,-4.3q3.5,-4.2 2.3,-4.7q-1.3,-0.5 -0.6,-2.7q0.8,-2.3 2.3,-4.6q1.5,-2.2 0.3,-2.7q-1.3,-0.5 2,-2.3q3.2,-1.7 11.2,-3.7q8,-2 8.2,-2.3q0.3,-0.2 0.6,-0.4l0.2,-0.3l0.2,-0.3l0.3,-0.2l0,-5q0,-5 -1,-7q-1,-2 -4.3,-4.2q-3.2,-2.3 -5.4,-6q-2.3,-3.8 -1.8,-8.3q0.5,-4.5 2,-7.5l1.5,-3l0.3,-0.2l0.2,-0.3l1.5,-0.5l1.5,-0.5l1.5,-0.3l1.5,-0.2l0.2,-1.5l0.3,-1.5l0.3,0.2l0.2,0.3l1.5,0.5l1.5,0.5l0.5,0.3l0.5,0.2l0,67l0,67l-0.5,-0.2l-0.5,-0.3l-1,0l-1,0l-0.2,0.3l-0.3,0.2l-0.3,-0.2l-0.2,-0.3l-1.5,-0.5q-1.5,-0.5 -2,-1q-0.5,-0.5 -1.5,0q-1,0.5 -12,-6.5q-11,-7 -15.5,-8.7q-4.5,-1.8 -6.5,-5q-2,-3.3 -7.5,-7.8q-5.5,-4.5 -7.3,-7.2q-1.7,-2.8 -4.4,-3.6q-2.8,-0.7 -9.8,-0.7q-7,0 -15,3.3q-8,3.2 -8.5,6q-0.5,2.7 -4.5,9.2q-4,6.5 -9.5,16.2l-5.5,9.8l-0.5,0.2l-0.5,0.3l-0.2,0.3l-0.3,0.2l-0.3,0.2l-0.2,0.3l-0.2,0.3l-0.3,0.2l-0.3,0.2l-0.2,0.3l-0.2,0.3l-0.3,0.2l-0.5,1l-0.5,1l-0.3,0.2l-0.2,0.3l-0.2,0.3l-0.3,0.2l-0.3,0.2l-0.2,0.3l-0.2,0.3l-0.3,0.2l-0.5,1q-0.5,1 -4.2,4.5l-3.8,3.5l0,1l0,1l2.2,0.5q2.3,0.5 2.6,2q0.2,1.5 1.2,1.5q1,0 1,3q0,3 1,3.2q1,0.3 -4.8,6q-5.7,5.8 -8.2,12.3q-2.5,6.5 -4.5,16q-2,9.5 -3.5,13.5q-1.5,4 -1.5,6l0,2l-0.3,0.2l-0.2,0.3l-0.2,0.3l-0.3,0.2l-0.3,3l-0.2,3l2.5,-0.2l2.5,-0.3l0.2,-0.3l0.3,-0.2l0.3,-0.2l0.2,-0.3l1,-0.5l1,-0.5l0.2,-0.3l0.3,-0.2l1.3,-2.2q1.2,-2.3 2.7,-2.6q1.5,-0.2 6,-5.4q4.5,-5.3 11,-7.3q6.5,-2 9,-1.5q2.5,0.5 3,-0.8q0.5,-1.2 2,-1q1.5,0.3 1.7,0.6l0.3,0.2l0.3,0.2l0.2,0.3l-1.5,0.5q-1.5,0.5 0.3,2.2q1.7,1.8 3.2,7.3q1.5,5.5 4.5,9.5q3,4 6.5,16q3.5,12 10.2,25q6.8,13 7.8,13q1,0 6.5,8.2q5.5,8.3 6.7,9.6q1.3,1.2 1.8,2.7l0.5,1.5l0,2l0,2l-0.5,1l-0.5,1l-0.3,0.2l-0.2,0.3l-0.2,0.3l-0.3,0.2l-0.3,0.2l-0.2,0.3l-1,0.5l-1,0.5l-3.5,0q-3.5,0 -15,-3q-11.5,-3 -17.5,-3q-6,0 -9.5,4.7q-3.5,4.8 -4.5,5q-1,0.3 -17,13.8q-16,13.5 -21,13.5q-5,0 -9.2,-4.3l-4.3,-4.2l-0.5,-1l-0.5,-1l-0.3,-0.2l-0.2,-0.3l-0.2,-0.3l-0.3,-0.2l-0.3,-0.2l-0.2,-0.3l-0.2,-0.3l-0.3,-0.2l-0.3,-0.2l-0.2,-0.3l-0.2,-0.3l-0.3,-0.2l-0.3,-0.2l-0.2,-0.3l-0.2,-0.3l-0.3,-0.2l-0.3,-1l-0.2,-1l1,0.2l1,0.3l0.2,0.3l0.3,0.2l0.3,0.2l0.2,0.3l0.2,0.3l0.3,0.2l0.3,0.2l0.2,0.3l0.2,0.3l0.3,0.2l0.3,0.2l0.2,0.3l0.2,0.3l0.3,0.2l0.5,1q0.5,1 2.8,2.2q2.2,1.3 6.7,1.8q4.5,0.5 7.7,-2.8q3.3,-3.2 10,-8.4q6.8,-5.3 11.6,-10q4.7,-4.8 4.7,-8.8q0,-4 -4,-8.5q-4,-4.5 -15.5,-6.5q-11.5,-2 -20.8,-4.2q-9.2,-2.3 -13.7,-1q-4.5,1.2 -4.5,2.2q0,1 -1,1q-1,0 -1.2,1l-0.3,1l-0.3,0.2l-0.2,0.3l-0.2,0.3l-0.3,0.2l-0.3,0.2l-0.2,0.3l-1,0.3l-1,0.2l0.2,-1l0.3,-1l0.3,-0.2l0.2,-0.3l0.2,-0.3l0.3,-0.2l0.3,-0.2l0.2,-0.3l0.2,-0.3q0.3,-0.2 0.6,-3.2l0.2,-3l-1,0q-1,0 -1.2,-1q-0.3,-1 -4,-2q-3.8,-1 -3.8,-2q0,-1 -1,-1.2q-1,-0.3 -1.5,-1.6q-0.5,-1.2 -1.5,-1.4q-1,-0.3 -3,-3q-2,-2.8 -10,-9.6q-8,-6.7 -10,-9q-2,-2.2 -4.5,-3.2q-2.5,-1 -4.7,-4q-2.3,-3 -6,-6.5q-3.8,-3.5 -3.8,-4.5q0,-1 -2,-1.5q-2,-0.5 -3.2,-4q-1.3,-3.5 -2.6,-7q-1.2,-3.5 -2.2,-3.5q-1,0 -4.2,-10q-3.3,-10 -7.6,-15.8q-4.2,-5.7 -11,-20.4q-6.7,-14.8 -10.4,-18.6q-3.8,-3.7 -16.8,-4l-13,-0.2l0,-0.2l0,-0.3l2,-0.5l2,-0.5l5.5,-1q5.5,-1 9,-2.3q3.5,-1.2 3.5,-2.2q0,-1 0.8,-1.5q0.7,-0.5 -0.8,-2.5q-1.5,-2 2.5,-7q4,-5 4.3,-5.2l0.2,-0.3l1,-0.5l1,-0.5l0.2,-0.3l0.3,-0.2l0.3,-0.2l0.2,-0.3l1,-0.5l1,-0.5l0.2,-0.3l0.3,-0.2l0.3,-1l0.2,-1l1,0l1,0l-0.2,1l-0.3,1l-0.3,0.2l-0.2,0.3l-0.2,0.3l-0.3,0.2l-0.3,0.2l-0.2,0.3l-0.2,0.3l-0.3,0.2l-0.3,0.2l-0.2,0.3l-0.2,0.3l-0.3,0.2l-0.3,0.2l-0.2,0.3l-0.2,0.3l-0.3,0.2l-0.5,1q-0.5,1 -1,2l-0.5,1l-0.3,0.2l-0.2,0.3l-0.2,0.3l-0.3,0.2l-0.3,0.2l-0.2,0.3l-0.2,0.3l-0.3,0.2l-0.3,0.2l-0.2,0.3l-1,0.3l-1,0.2l0,1l0,1l1,0.2l1,0.3l9.5,-0.5q9.5,-0.5 17.5,-4q8,-3.5 17.2,-11.8q9.3,-8.2 12,-13q2.8,-4.7 11,-6.4q8.3,-1.8 15.6,-10.6q7.2,-8.7 21.7,-17.7q14.5,-9 18.5,-11q4,-2 10,-1.5q6,0.5 15.5,6.8q9.5,6.2 9.5,7.2q0,1 6,1.8q6,0.7 10.8,-2q4.7,-2.8 6.4,-6q1.8,-3.3 3.3,-3.6q1.5,-0.2 4.7,-9.2q3.3,-9 7.3,-25.5q4,-16.5 9.3,-31.3q5.2,-14.7 8.2,-18.7q3,-4 10.5,-4q7.5,0 14.5,2.5q7,2.5 7.2,2.8z"/>
  <path id="svg_13" fill="#D4D3D9" fill-rule="evenodd" stroke="#D4D3D9" stroke-width="0.5px" d="m666,340l1,-0.5l6.5,0.5q6.5,0.5 12,4q5.5,3.5 16,3.8q10.5,0.2 11.5,1.4q1,1.3 2.5,1.6q1.5,0.2 2.3,3.7q0.7,3.5 -0.3,9.5q-1,6 0.7,8.8q1.8,2.7 5.3,3.7q3.5,1 5,1.5l1.5,0.5l1,0.3l1,0.2l-0.2,1l-0.3,1l-0.3,1.5l-0.2,1.5l-1,0.2l-1,0.3l-1,0.5q-1,0.5 -5.5,4l-4.5,3.5l-0.2,0.3l-0.3,0.2l-0.3,0.2l-0.2,0.3l-0.5,0.5q-0.5,0.5 0.5,0.5l1,0l2.5,-1.5q2.5,-1.5 3.5,-1.8l1,-0.2l0,1q0,1 -1,1.2l-1,0.3l-0.2,0.3l-0.3,0.2l-0.3,0.2l-0.2,0.3l-0.2,0.3l-0.3,0.2l-0.3,0.2l-0.2,0.3l-0.2,0.3l-0.3,0.2l-0.5,2l-0.5,2l-0.3,1.5l-0.2,1.5l1.8,0q1.7,0 5.4,2.5q3.8,2.5 5,6.5q1.3,4 7.8,11q6.5,7 9.2,14.2q2.8,7.3 5.8,6.3q3,-1 11,-1q8,0 15,4.3q7,4.2 7,5.2q0,1 1.8,2.5q1.7,1.5 1.4,5.5q-0.2,4 -4.2,6.5q-4,2.5 -5.2,4.5q-1.3,2 -1.8,3.5l-0.5,1.5l0,1.5l0,1.5l0.3,0.2l0.2,0.3l0.2,0.3l0.3,0.2l0.3,1l0.2,1l1,0.2l1,0.3l1.5,0.5q1.5,0.5 8.5,0.2q7,-0.2 7,0.8q0,1 2,1q2,0 3,-2.2q1,-2.3 2.8,-3.6q1.7,-1.2 2.2,-4.2q0.5,-3 1,-5.5l0.5,-2.5l0.3,-0.2l0.2,-0.3l1.5,0l1.5,0l4.5,1.3q4.5,1.2 8,5q3.5,3.7 8.3,7.4q4.7,3.8 8,6q3.2,2.3 18.2,4.8q15,2.5 22,6q7,3.5 21.8,6.8q14.7,3.2 21,8q6.2,4.7 9.2,7.2q3,2.5 13.5,5q10.5,2.5 12,3l1.5,0.5l2,0.5l2,0.5l0.2,0.3l0.3,0.2l0.3,0.2l0.2,0.3l-1.5,0.3l-1.5,0.2l-0.2,3l-0.3,3l-0.3,0.2l-0.2,0.3l-1,0.5l-1,0.5l-4.5,0.3l-4.5,0.2l0,-0.2q0,-0.3 -8.5,-0.8q-8.5,-0.5 -10.5,-1q-2,-0.5 -10.5,-0.5q-8.5,0 -22,6q-13.5,6 -13.7,9.7q-0.3,3.8 0.7,5.3q1,1.5 1,5.5q0,4 -3.3,5.2q-3.2,1.3 -22.2,3.3q-19,2 -21.2,5.3q-2.3,3.2 -1.8,6.7l0.5,3.5l0.3,0.2l0.2,0.3l0.2,0.3l0.3,0.2l0,0.5l0,0.5l-0.3,0.2l-0.2,0.3l1,0.5l1,0.5l-0.2,0.3l-0.3,0.2l-0.3,0.2l-0.2,0.3l-0.2,0.3l-0.3,0.2l-0.3,-0.2l-0.2,-0.3l-0.2,-0.3l-0.3,-0.2l-0.3,-0.2l-0.2,-0.3l-0.2,-0.3l-0.3,-0.2l-0.3,-0.2l-0.2,-0.3l-0.2,-0.3l-0.3,-0.2l-0.3,-0.2l-0.2,-0.3l-0.2,-0.3l-0.3,-0.2l-0.3,-0.2l-0.2,-0.3l-0.2,-0.3l-0.3,-0.2l-0.3,-0.2l-0.2,-0.3l-0.2,-0.3q-0.3,-0.2 -3.8,-6.7q-3.5,-6.5 -7.8,-9.7q-4.2,-3.3 -21.2,-3.8q-17,-0.5 -18.8,0.2q-1.7,0.8 -7,2.6l-5.2,1.7l-0.2,0.3l-0.3,0.2l-0.3,2.5l-0.2,2.5l0.2,1.5l0.3,1.5l0.3,0l0.2,0l0,0.2l0,0.3l-1,0l-1,0l-0.2,-0.3l-0.3,-0.2l-0.3,-0.2l-0.2,-0.3l-0.2,-0.3l-0.3,-0.2l-0.3,-0.2l-0.2,-0.3l-0.2,-0.3l-0.3,-0.2l-0.5,-2l-0.5,-2l-0.3,-0.2l-0.2,-0.3l-0.2,-0.3l-0.3,-0.2l-0.3,-0.2q-0.2,-0.3 -0.7,-0.8q-0.5,-0.5 -0.5,-2.2q0,-1.8 1,-2q1,-0.3 1,-2.3q0,-2 0,-6.3q0,-4.2 -1,-4.2q-1,0 -2.2,-3.5q-1.3,-3.5 -3.3,-14.5q-2,-11 -4.5,-15q-2.5,-4 -3.2,-4.5q-0.8,-0.5 -1,-1.5q-0.3,-1 -5.8,-6q-5.5,-5 -9.2,-12.5l-3.8,-7.5l-0.2,-2q-0.3,-2 -3,-7.8q-2.8,-5.7 -9.8,-19q-7,-13.2 -8,-13.2q-1,0 -2.5,-3.5l-1.5,-3.5l-0.2,-1l-0.3,-1l-0.5,-1.5l-0.5,-1.5l-0.5,-2.5q-0.5,-2.5 -2,-7q-1.5,-4.5 -2.2,-13.7q-0.8,-9.3 -6.8,-11.3q-6,-2 -7.8,-4.7q-1.7,-2.8 -3.7,-6.8q-2,-4 -6.3,-8.8q-4.2,-4.7 -5,-10q-0.7,-5.2 -3,-10q-2.2,-4.7 -4.4,-9l-2.3,-4.2l0,-1.5l0,-1.5l0.3,-0.2l0.2,-0.3l0.2,-0.3l0.3,-0.2l0.3,-0.2l0.2,-0.3l1,-0.5l1,-0.5l1,-0.5zm47.8,57l-0.3,1l-0.3,0.2l-0.2,0.3l-0.2,0.3l-0.3,0.2l-0.3,-1.5q-0.2,-1.5 0.8,-1.5q1,0 0.8,1z"/>
  <path id="svg_14" fill="#D9D8DF" fill-rule="evenodd" stroke="#D9D8DF" stroke-width="0.5px" d="m512.2,6.5l1.8,-6.5l103,0l103,0l2.8,5.5q2.7,5.5 5.2,11q2.5,5.5 6.5,11.5q4,6 5.5,10.5q1.5,4.5 1.8,5.7q0.2,1.3 1.4,2q1.3,0.8 1,2q-0.2,1.3 7.3,6.6q7.5,5.2 11.7,11.2q4.3,6 4.6,6.5l0.2,0.5l0.2,1l0.3,1l0,1.5l0,1.5l-0.3,-0.2l-0.2,-0.3l-0.2,-0.3l-0.3,-0.2l-0.3,-0.2l-0.2,-0.3l-1,-0.3q-1,-0.2 -1.5,1.8q-0.5,2 -5.5,3.5q-5,1.5 -9.2,10q-4.3,8.5 -6.3,12.5q-2,4 -2.5,7.5q-0.5,3.5 0.5,5.5q1,2 4.7,5.5q3.8,3.5 3.6,4.5q-0.3,1 2.2,4l2.5,3l0.3,0.2l0.2,0.3l2,0l2,0l0.2,-0.3l0.3,-0.2l0.3,-0.2l0.2,-0.3l2.8,-1.7q2.7,-1.8 6.7,-9.8q4,-8 5.7,-10.5q1.8,-2.5 5,-4.5q3.3,-2 4,-2.8q0.8,-0.7 1.3,-0.7q0.5,0 1.5,-0.3l1,-0.2l-0.2,-1l-0.3,-1l-0.3,-0.2l-0.2,-0.3l2,0l2,0l1,0.5l1,0.5l0.2,0.3l0.3,0.2l0.3,0.2l0.2,0.3l1,0.3l1,0.2l0,1l0,1l-1,0.2l-1,0.3l0.2,0.3l0.3,0.2l0.3,0.2l0.2,0.3l-1.5,0.3l-1.5,0.2l0,2q0,2 -1.5,2q-1.5,0 -4.3,5.5q-2.7,5.5 -9.2,14.5q-6.5,9 -9.8,10.8q-3.2,1.7 -10.2,-0.3l-7,-2l-3.5,0l-3.5,0l0.2,0.3l0.3,0.2l0.3,0.2l0.2,0.3l0.2,0.3l0.3,0.2l0.3,0.2l0.2,0.3l0.2,0.3l0.3,0.2l0.3,0.2l0.2,0.3l0.2,0.3l0.3,0.2l0.3,0.2l0.2,0.3l0.2,0.3l0.3,0.2l0.3,1l0.2,1l6,4.2q6,4.3 8,4.8l2,0.5l-0.2,0.3l-0.3,0.2l0.3,1.2q0.2,1.3 0.7,1.6l0.5,0.2l-0.2,0.5q-0.3,0.5 -3,1.3l-2.8,0.7l1.2,0.7q1.3,0.8 1.6,1l0.2,0.3l0.2,0.3l0.3,0.2l0.3,0.2l0.2,0.3l0.2,0.3l0.3,0.2l0.3,0.2l0.2,0.3l0.2,0.3l0.3,0.2l0.3,0.2l0.2,0.3l0.2,0.3l0.3,0.2l0.3,0.2l0.2,0.3l-4,0l-4,0l-2.5,-0.5q-2.5,-0.5 -5,-1.5q-2.5,-1 -3.7,-3.3q-1.3,-2.2 -1.8,-1.2q-0.5,1 -1.2,0.5l-0.8,-0.5l-0.2,-0.5q-0.3,-0.5 -2,-1.5l-1.8,-1l0,-0.2q0,-0.3 -2,-1q-2,-0.8 -2,0.2l0,1l-0.5,0.2l-0.5,0.3l-1.5,0.5q-1.5,0.5 -6.3,4.8q-4.7,4.2 -8.4,7q-3.8,2.7 -8.8,3.2q-5,0.5 -10.5,-1.5q-5.5,-2 -10.3,-5.3q-4.7,-3.2 -16,-11.4q-11.2,-8.3 -13.7,-9.3q-2.5,-1 -9,-1q-6.5,0 -7.5,1.7q-1,1.8 -2,1.8q-1,0 -5.5,7q-4.5,7 -5.5,7.2q-1,0.3 -2,2q-1,1.8 -2,1.8q-1,0 -1.2,1q-0.3,1 0.2,2q0.5,1 -0.8,1.2q-1.2,0.3 -1.7,2.6q-0.5,2.2 0.5,2.4q1,0.3 0.8,6.6q-0.3,6.2 -8.8,17.7q-8.5,11.5 -18.2,15.3l-9.8,3.7l-1.5,0.5l-1.5,0.5l-1,0.3l-1,0.2l0,-1l0,-1l1,-0.2l1,-0.3l0.2,-0.3l0.3,-0.2l0.3,-0.2l0.2,-0.3l0.2,-0.3l0.3,-0.2l0.3,-0.2l0.2,-0.3l0.2,-0.3l0.3,-0.2l-0.5,-1.5q-0.5,-1.5 2,-7.5q2.5,-6 3.5,-12.5q1,-6.5 5.7,-10.5q4.8,-4 6.3,-6.8q1.5,-2.7 3.7,-6.4q2.3,-3.8 3.8,-12.3q1.5,-8.5 2.5,-10q1,-1.5 1.3,-2l0.2,-0.5l1.5,-2.5q1.5,-2.5 3.3,-4q1.7,-1.5 2.2,-12.5q0.5,-11 1,-14q0.5,-3 0.8,-6.5l0.2,-3.5l-1,-0.2l-1,-0.3l-0.2,-0.3l-0.3,-0.2l-0.3,0.2q-0.2,0.3 -6.7,0.6q-6.5,0.2 -6.5,-0.8q0,-1 -1.5,-1q-1.5,0 -1.5,-1q0,-1 -2.2,-2.5q-2.3,-1.5 -6.3,-6q-4,-4.5 -8.3,-8.7q-4.2,-4.3 -10.7,-4.8q-6.5,-0.5 -12.5,2q-6,2.5 -25,18q-19,15.5 -25,18.5l-6,3l-0.2,0.3l-0.3,0.2l-0.3,0.2l-0.2,0.3l-1,0.5l-1,0.5l-0.2,0.3l-0.3,0.2l-0.3,0.2l-0.2,0.3l0,0.3l0,0.2l-1,0.2q-1,0.3 -1.2,0.6q-0.3,0.2 -5.8,6.2q-5.5,6 -9.2,9.5q-3.8,3.5 -3.8,4.5q0,1 -1.8,1.5q-1.7,0.5 -10,1.3q-8.2,0.7 -14.7,-2.6q-6.5,-3.2 -9,-10q-2.5,-6.7 1,-8.4q3.5,-1.8 3.5,-2.8q0,-1 1,-1.2q1,-0.3 2.2,-3q1.3,-2.8 0.6,-6.6q-0.8,-3.7 -1,-6q-0.3,-2.2 1.4,-3.2q1.8,-1 9.6,-12q7.7,-11 16.2,-20.5q8.5,-9.5 11,-13.5q2.5,-4 3,-14q0.5,-10 7.5,-20q7,-10 8.7,-16.5z"/>
  <path id="svg_15" fill="#DDDBE2" fill-rule="evenodd" stroke="#DDDBE2" stroke-width="0.5px" d="m241.2,301.5l8.8,-3.5l3,0q3,0 2.8,1.5l-0.3,1.5l-0.3,0.2l-0.2,0.3l-3.2,4.7q-3.3,4.8 -10.8,20.8q-7.5,16 -8.5,20.5q-1,4.5 -1.5,7.5l-0.5,3l-0.3,2.5l-0.2,2.5l-0.2,0q-0.3,0 -0.6,0.5l-0.2,0.5l-3.8,8.5q-3.7,8.5 -4,9.3q-0.2,0.7 -1.2,1.2q-1,0.5 -0.2,1.2q0.7,0.8 -1,1.8q-1.8,1 -5,7q-3.3,6 -5.3,12q-2,6 -10.5,20.5q-8.5,14.5 -10,20q-1.5,5.5 -4,15q-2.5,9.5 -4.8,14q-2.2,4.5 -3.2,4.5q-1,0 -1.5,1.2q-0.5,1.3 -1.5,1.6q-1,0.2 -2.5,2q-1.5,1.7 -2.5,2q-1,0.2 -1,1.2q0,1 -5.2,3q-5.3,2 -13.6,6.8q-8.2,4.7 -16.7,6.2q-8.5,1.5 -10.5,1.5q-2,0 -3,0.5l-1,0.5l-1,0.5l-1,0.5l-2,0.5l-2,0.5l0.2,0.3l0.3,0.2l0.5,2.5l0.5,2.5l0.3,0.2l0.2,0.3l2.5,0.5l2.5,0.5l0.5,0.5q0.5,0.5 3,1l2.5,0.5l0,0.3l0,0.2l-3.5,0.2l-3.5,0.3l2,0.5l2,0.5l0.2,0.3l0.3,0.2l0.3,0.2l0.2,0.3l-0.2,0.3l-0.3,0.2l-0.3,0.2l-0.2,0.3l-1,0l-1,0l-2,-0.3l-2,-0.2l-1,-0.2q-1,-0.3 -4,-1.6q-3,-1.2 -3.2,-2.7q-0.3,-1.5 -1.6,-2q-1.2,-0.5 -2,-5q-0.7,-4.5 -1,-7.5q-0.2,-3 -1.2,-3.2q-1,-0.3 -4.5,-6.3q-3.5,-6 -3.7,-8.7q-0.3,-2.8 -6.8,-15.3l-6.5,-12.5l-0.3,-0.2l-0.2,-0.3l-0.2,-0.3l-0.3,-0.2l-0.3,-2l-0.2,-2l3.5,-0.2q3.5,-0.3 7,-1.3q3.5,-1 5.5,-3.3q2,-2.2 5,-4.4q3,-2.3 6.5,-6q3.5,-3.8 5.5,-5l2,-1.3l0.2,-0.3l0.3,-0.2l0.5,-1l0.5,-1l0.5,-1.5l0.5,-1.5l0,-1.5l0,-1.5l-0.3,-0.2l-0.2,-0.3l-4,0l-4,0l-0.2,0.3l-0.3,0.2l-0.3,0.2l-0.2,0.3l-0.2,0.3q-0.3,0.2 -1.6,1q-1.2,0.7 -4.7,5q-3.5,4.2 -7,6q-3.5,1.7 -10,2.2q-6.5,0.5 -9.5,-0.8q-3,-1.2 -4,-3.7q-1,-2.5 -3.8,-4q-2.7,-1.5 -14,-5.3q-11.2,-3.7 -16.2,-6.2l-5,-2.5l0.2,-0.3q0.3,-0.2 0.8,-2.2q0.5,-2 0,-4.5q-0.5,-2.5 2.5,-6.5q3,-4 3.7,-6.2l0.8,-2.3l-0.2,-0.3l-0.3,-0.2l-0.5,-1l-0.5,-1l-0.3,-0.2l-0.2,-0.3l-0.2,-0.3l-0.3,-0.2l-0.3,-0.2l-0.2,-0.3l-0.2,-0.3l-0.3,-0.2l-0.3,-0.2l-0.2,-0.3l-1,-0.5l-1,-0.5l-1,-0.5l-1,-0.5l-1,-0.5l-1,-0.5l-1.5,0l-1.5,0l-1.5,0.5l-1.5,0.5l-0.2,0.3l-0.3,0.2l-2.7,9.8q-2.8,9.7 -4.3,12.4q-1.5,2.8 -3.7,3.8q-2.3,1 -2.6,1.2l-0.2,0.3l-0.2,0.3l-0.3,0.2l-0.3,0.2l-0.2,0.3l-0.2,0.3l-0.3,0.2l-0.3,0.2l-0.2,0.3l-0.2,0.3l-0.3,0.2l-0.3,0.2l-0.2,0.3l-0.2,0.3l-0.3,0.2l-0.3,0.2l-0.2,0.3l-0.2,0.3l-0.3,0.2l-0.3,0.2l-0.2,0.3l-1,0.3l-1,0.2l0,-1.5l0,-1.5l1,-0.2l1,-0.3l0.2,-0.3l0.3,-0.2l0.3,-0.2l0.2,-0.3l0.2,-0.3l0.3,-0.2l0.3,-0.2l0.2,-0.3l1,-0.3l1,-0.2l0.2,-1l0.3,-1l0.3,-0.2l0.2,-0.3l0.2,-0.3l0.3,-0.2l0.5,-1q0.5,-1 1.8,-1.8q1.2,-0.7 2.4,-7q1.3,-6.2 1.8,-17.7q0.5,-11.5 5.5,-18.5l5,-7l0.3,-0.2l0.2,-0.3l0.2,-0.3l0.3,-0.2l0.3,-0.2l0.2,-0.3l1,-0.5l1,-0.5l0.2,-0.3l0.3,-0.2l0.3,0.2l0.2,0.3l1.5,0.3l1.5,0.2l0.2,1l0.3,1l0.3,2l0.2,2l1,0l1,0l-2,3.8q-2,3.7 -4.5,6.7q-2.5,3 -2.3,3.3q0.3,0.2 0.8,1.7l0.5,1.5l0.3,0.2l0.2,0.3l0.2,0.3l0.3,0.2l0.3,0.2l0.2,0.3l0.2,0.3l0.3,0.2l0.3,0.2l0.2,0.3l0.2,0.3l0.3,0.2l0.3,0.2l0.2,0.3l1,0.5l1,0.5l0.2,0.3l0.3,0.2l0.3,0.2l0.2,0.3l1.5,0.5l1.5,0.5l0.2,0.3l0.3,0.2l0.3,0.2l0.2,0.3l0.2,0.3l0.3,0.2l0.3,0.2l0.2,0.3l1,0.3l1,0.2l0.2,-1.5q0.3,-1.5 0.6,-1.5l0.2,0l2.2,1q2.3,1 5.6,4.2q3.2,3.3 12.2,8.3q9,5 16.5,6q7.5,1 13.5,-1.5q6,-2.5 14,-5q8,-2.5 30,-3.5q22,-1 26.2,-2.7q4.3,-1.8 4,-3q-0.2,-1.3 1,-2q1.3,-0.8 1.8,-1.8l0.5,-1l0.7,1.8q0.8,1.7 1.3,1.7l0.5,0l0.2,-0.3l0.3,-0.2l0.3,-0.2l0.2,-0.3l0.2,-0.3l0.3,-0.2l0.3,-0.2q0.2,-0.3 1,-1.6q0.7,-1.2 0.7,-3.2q0,-2 1,-5.5q1,-3.5 6.3,-4.7q5.2,-1.3 9.7,-4.3q4.5,-3 8,-8.3q3.5,-5.2 4.5,-5.2q1,0 1.2,-1.5q0.3,-1.5 5.8,-10q5.5,-8.5 8,-15.5q2.5,-7 4.2,-8.2q1.8,-1.3 4.6,-5.6q2.7,-4.2 11.4,-7.7z"/>
  <path id="svg_16" fill="#E3E2EA" fill-rule="evenodd" stroke="#E3E2EA" stroke-width="0.5px" d="m620.2,102.2l0.3,-0.2l0.3,0.2l0.2,0.3l1,0.3l1,0.2l-0.2,3.5q-0.3,3.5 -0.8,6.5q-0.5,3 -1,14q-0.5,11 -2.2,12.5q-1.8,1.5 -3.3,4l-1.5,2.5l-0.2,-0.5q-0.3,-0.5 -3.6,2.7q-3.2,3.3 -6,9.6q-2.7,6.2 -4.4,8.4l-1.8,2.3l-0.2,0.3l-0.3,0.2l-0.3,0.2l-0.2,0.3l-0.2,0.3l-0.3,0.2l-0.5,1l-0.5,1l-0.3,0.2l-0.2,0.3l-0.2,0.3l-0.3,0.2l-0.3,0.2l-0.2,0.3l-0.2,0.3l-0.3,0.2l-0.3,0.2l-0.2,0.3l-1,0.3l-1,0.2l0.2,-1l0.3,-1l0.3,-0.2l0.2,-0.3l0.2,-0.3l0.3,-0.2l0.3,-0.2l0.2,-0.3l0.2,-0.3l0.3,-0.2l0.3,-0.2l0.2,-0.3l0.2,-0.3l0.3,-0.2l0.3,-0.2l0.2,-0.3l0.2,-0.3l0.3,-0.2l0.3,-0.2l0.2,-0.3l0.2,-0.3l0.3,-0.2l3.3,-8.8q3.2,-8.7 4,-9.4q0.7,-0.8 1,-2q0.2,-1.3 2,-1.6q1.7,-0.2 4.2,-3.2q2.5,-3 3,-4l0.5,-1l0,-0.5l0,-0.5l0,-1l0,-1l0,-1l0,-1l-0.3,-0.2l-0.2,-0.3l-1,-0.5l-1,-0.5l-0.2,-0.3l-0.3,-0.2l-0.3,-0.2l-0.2,-0.3l-1,-0.5l-1,-0.5l-0.2,-0.3l-0.3,-0.2l-0.3,-0.2l-0.2,-0.3l-1,0l-1,0l-0.2,0.3l-0.3,0.2l-0.3,0.2l-0.2,0.3l-1,0.5q-1,0.5 -3.2,1.8q-2.3,1.2 -3,1.7q-0.8,0.5 -1,2.5q-0.3,2 -1.8,3q-1.5,1 -4.2,2q-2.8,1 -2.8,2q0,1 -3.5,2.2q-3.5,1.3 -5.5,4q-2,2.8 -3,3q-1,0.3 -4.2,6.6q-3.3,6.2 -5.3,8.2q-2,2 -13.7,3.2q-11.8,1.3 -13.3,2.3q-1.5,1 -3.3,4.3q-1.7,3.2 -1.7,7.2q0,4 0.7,4.2l0.8,0.3l0.2,-0.3l0.3,-0.2l0.3,2l0.2,2l-1,0.2l-1,0.3l-0.2,0.3l-0.3,0.2l-0.3,-0.2l-0.2,-0.3l-1,-0.5l-1,-0.5l-0.2,-0.3l-0.3,-0.2l-0.3,-1l-0.2,-1l-1,-0.2q-1,-0.3 -7.2,-4.6q-6.3,-4.2 -9,-11.7q-2.8,-7.5 -3.8,-7.7l-1,-0.3l-1.5,-0.5l-1.5,-0.5l-1.5,0l-1.5,0l-0.2,0.3l-0.3,0.2l-0.3,0.2l-0.2,0.3l-0.2,0.3l-0.3,0.2l-0.3,0.2l-0.2,0.3l-1.5,0.5l-1.5,0.5l-0.2,0.3l-0.3,0.2l-0.3,0l-0.2,0l-1.5,-0.2q-1.5,-0.3 -3.5,-0.3l-2,0l-3,-0.3l-3,-0.2l0.2,-1l0.3,-1l0.3,-0.2l0.2,-0.3l0.2,-0.3l0.3,-0.2l0.5,-1l0.5,-1l1.5,-2.5q1.5,-2.5 2,-3.5l0.5,-1l0.3,-0.2l0.2,-0.3l0.2,-0.3l0.3,-0.2l0.3,-2l0.2,-2l0.2,0q0.3,0 0.6,-0.5l0.2,-0.5l0.2,0q0.3,0 0.6,-0.5l0.2,-0.5l4.8,-5.5q4.7,-5.5 6,-7.7q1.2,-2.3 3.7,-3.3q2.5,-1 3.5,-1.5l1,-0.5l0.2,-0.3l0.3,-0.2l0,-0.5l0,-0.5l-0.3,-0.2l-0.2,-0.3l0.2,-0.3l0.3,-0.2l0.3,-0.2l0.2,-0.3l1,-0.5l1,-0.5l-2,0l-2,0l-1,0.5q-1,0.5 -2,0.8q-1,0.2 -0.5,-1l0.5,-1.3l0.2,-0.3q0.3,-0.2 0,-1l-0.2,-0.7l-0.2,0.3l-0.3,0.2l-0.3,0.2l-0.2,0.3l-2,0.3l-2,0.2l0,-0.2l0,-0.3l0.2,-0.3l0.3,-0.2l0.3,-0.2l0.2,-0.3l1,-0.5l1,-0.5l0.2,-0.3l0.3,-0.2l0.3,-0.2l0.2,-0.3l6,-3q6,-3 25,-18.5q19,-15.5 25,-18q6,-2.5 12.5,-2q6.5,0.5 10.7,4.8q4.3,4.2 8.3,8.7q4,4.5 6.3,6q2.2,1.5 2.2,2.5q0,1 1.5,1q1.5,0 1.5,1q0,1 6.5,0.8q6.5,-0.3 6.7,-0.6z"/>
  <path id="svg_17" fill="#DFDEE5" fill-rule="evenodd" stroke="#DFDEE5" stroke-width="0.5px" d="m866,0.2l0,-0.2l87,0l87,0l4.8,4.5q4.7,4.5 8.2,8q3.5,3.5 9.5,11.5q6,8 11.5,11.5q5.5,3.5 4.5,7.5q-1,4 -3,7q-2,3 -3,6q-1,3 -1.3,3.2l-0.2,0.3l0.2,0.3l0.3,0.2l0.5,1l0.5,1l0.3,0.2l0.2,0.3l0.2,0.3l0.3,0.2l0.3,0.2l0.2,0.3l2,2q2,2 14,2.5q12,0.5 13,1l1,0.5l0.2,0.3l0.3,0.2l0.3,0.2l0.2,0.3l1,0.5l1,0.5l0.2,0.3l0.3,0.2l0.3,0.2l0.2,0.3l1,0.5l1,0.5l-0.2,0.3l-0.3,0.2l-0.3,0.2l-0.2,0.3l-0.2,0.3l-0.3,0.2l-0.3,0.2l-0.2,0.3l0.2,0.3l0.3,0.2l0,0.5l0,0.5l-0.3,1l-0.2,1l-1,0.2l-1,0.3l-0.2,0.3l-0.3,0.2l-0.3,0.2q-0.2,0.3 -2.7,1.8l-2.5,1.5l-0.2,0.3l-0.3,0.2l-0.3,0l-0.2,0l-0.5,0.2q-0.5,0.3 -0.5,0.6l0,0.2l-0.5,0.2q-0.5,0.3 -6,1.3q-5.5,1 -6.7,4.3q-1.3,3.2 -3.3,6.2q-2,3 -4.3,3.8q-2.2,0.7 -12.2,0.7q-10,0 -17.5,-5.5q-7.5,-5.5 -9.5,-7.8q-2,-2.2 -3,-2.4q-1,-0.3 -2.8,-5q-1.7,-4.8 -5.2,-7.8q-3.5,-3 -15.2,-4.8q-11.8,-1.7 -20.6,-10l-8.7,-8.2l-0.3,-0.2l-0.2,-0.3l-1,-0.5l-1,-0.5l-0.2,-0.3l-0.3,-0.2l-0.3,-0.2l-0.2,-0.3l-2,0l-2,0l-0.2,0.3l-0.3,0.2l-0.5,1l-0.5,1l-0.3,0.2l-0.2,0.3l0.2,0.3l0.3,0.2l0,0.5l0,0.5l-0.3,0.2l-0.2,0.3l0.2,0.3l0.3,0.2l3,8.5q3,8.5 4.7,20q1.8,11.5 5.8,12q4,0.5 3.5,1.7q-0.5,1.3 0.5,1.8l1,0.5l0.2,0.3l0.3,0.2l0.3,-0.2l0.2,-0.3l0.2,-0.3l0.3,-0.2l0.5,1.5l0.5,1.5l0,1l0,1l-0.3,0.2l-0.2,0.3l-0.2,0.3l-0.3,0.2l-0.3,0.2l-0.2,0.3l-1,0.5l-1,0.5l-2.5,0.5l-2.5,0.5l-2,0.3l-2,0.2l-1,-0.2q-1,-0.3 -2,-0.6q-1,-0.2 -1.2,-4.2q-0.3,-4 -2.6,-4.8q-2.2,-0.7 -7.2,-3.2q-5,-2.5 -23.5,-4.5q-18.5,-2 -42,-5.5q-23.5,-3.5 -31.5,-6q-8,-2.5 -21,-9q-13,-6.5 -16.2,-9.8l-3.3,-3.2l-0.5,-1l-0.5,-1l0,-2l0,-2l3.3,-2.8q3.2,-2.7 14.7,-12.7q11.5,-10 12.5,-11.7q1,-1.8 2,-1.8q1,0 5.2,-6q4.3,-6 3,-9.5q-1.2,-3.5 -2.7,-3.7q-1.5,-0.3 -1.5,-0.6z"/>
  <path id="svg_18" fill="#D1D0D7" fill-rule="evenodd" stroke="#D1D0D7" stroke-width="0.5px" d="m952,537.8l0,0.2l-1.5,0.2q-1.5,0.3 -5,1.8l-3.5,1.5l-1,0.5l-1,0.5l-1,0.3l-1,0.2l-0.2,1l-0.3,1l-0.3,0.2l-0.2,0.3l-0.2,0.3l-0.3,0.2l-0.3,0.2l-0.2,0.3l0.2,0.3l0.3,0.2l0.5,1l0.5,1l0.3,0.2l0.2,0.3l0.2,0.3l0.3,0.2l0.3,0.2l0.2,0.3l1,0.5l1,0.5l3.5,1.5q3.5,1.5 24.5,1.5q21,0 39.5,-2q18.5,-2 35.5,-3q17,-1 25,-1q8,0 10,0.3q2,0.2 4.5,-4q2.5,-4.3 3.5,-4.6l1,-0.2l-0.2,1q-0.3,1 -1.8,3l-1.5,2l0,1q0,1 -1.3,1.8l-1.2,0.7l1.2,0.7q1.3,0.8 1,1.8q-0.2,1 2.8,1.5q3,0.5 3.5,3q0.5,2.5 1.5,2.5q1,0 0.8,5q-0.3,5 -5.8,12q-5.5,7 -4.2,10.8q1.2,3.7 4,6.4q2.7,2.8 2.7,7.8l0,5l-0.3,0.2l-0.2,0.3l-3.5,2.5q-3.5,2.5 -10.3,4.2q-6.7,1.8 -8.2,4.8q-1.5,3 -1,8q0.5,5 1.8,7.5q1.2,2.5 4.4,4.5q3.3,2 6.3,7q3,5 2.5,10.5q-0.5,5.5 -5,9.5q-4.5,4 -4.8,5q-0.2,1 -4,4.5q-3.7,3.5 -10.2,15.5q-6.5,12 -10.8,16.8q-4.2,4.7 -4.4,5l-0.3,0.2l-0.3,0.2l-0.2,0.3l-0.2,0.3l-0.3,0.2l-0.5,1l-0.5,1l-0.3,0.2l-0.2,0.3l-0.2,0.3l-0.3,0.2l-0.3,0.2l-0.2,0.3l-0.2,0.3l-0.3,0.2l-0.3,0.2l-0.2,0.3l-1,0.3l-1,0.2l0.2,-1l0.3,-1l0.3,-0.2l0.2,-0.3l0.2,-0.3l0.3,-0.2l0.3,-0.2l0.2,-0.3l0.2,-0.3l0.3,-0.2l0.3,-0.2l0.2,-0.3l0.2,-0.3l0.3,-0.2l0.3,-0.2l0.2,-0.3l0.2,-0.3l0.3,-0.2l0.3,-0.2l0.2,-0.3l0.2,-0.3l0.3,-0.2l0.3,-0.2q0.2,-0.3 0.4,-0.6q0.3,-0.2 5.8,-9.2q5.5,-9 12.2,-19.8q6.8,-10.7 10.3,-14.4q3.5,-3.8 6,-4.8q2.5,-1 2.7,-6q0.3,-5 -3.4,-11q-3.8,-6 -5,-6.5q-1.3,-0.5 -4.3,-6.5q-3,-6 -1.5,-13q1.5,-7 4.8,-8.2q3.2,-1.3 8,-4.6l4.7,-3.2l0,-1.5q0,-1.5 -1.3,-5q-1.2,-3.5 -2.2,-3.7q-1,-0.3 -2.2,-2.6q-1.3,-2.2 -1.6,-5.2q-0.2,-3 0.8,-3.2q1,-0.3 1.5,-1.6q0.5,-1.2 1.5,-1.2q1,0 1.2,-2.5q0.3,-2.5 3,-4q2.8,-1.5 3,-2.5l0.3,-1l0.3,-0.2l0.2,-0.3l0.2,-0.3l0.3,-0.2l0.3,-0.2l0.2,-0.3l0.2,-0.3l0.3,-0.2l0.3,-0.2l0.2,-0.3l0.2,-0.3l0.3,-0.2l0.3,-0.2l0.2,-0.3l0.2,-0.3l0.3,-0.2l0,-1.5l0,-1.5l-0.3,-0.2l-0.2,-0.3l-2,0l-2,0l-1.5,0.5l-1.5,0.5l-0.2,0.3l-0.3,0.2l-0.3,0.2l-0.2,0.3l-0.2,0.3l-0.3,0.2l-0.3,0.2q-0.2,0.3 -1,2q-0.7,1.8 -2.4,2.8q-1.8,1 -1.8,2q0,1 -3.5,3q-3.5,2 -4.5,4.5q-1,2.5 -3.5,3.5q-2.5,1 -3,3.5q-0.5,2.5 -1.5,2.5q-1,0 -1.8,1.5q-0.7,1.5 0,2q0.8,0.5 1.3,4q0.5,3.5 -0.5,3.5q-1,0 -0.5,2.5q0.5,2.5 -2,3q-2.5,0.5 -2.5,1.5q0,1 -8,2.5q-8,1.5 -8,3q0,1.5 -1,1.7q-1,0.3 -5.8,9q-4.7,8.8 -6.4,9.3q-1.8,0.5 -1.8,1.5q0,1 -1,1.2q-1,0.3 -3,2.6q-2,2.2 -5.5,3.4q-3.5,1.3 -3,2.6q0.5,1.2 -0.5,1.2q-1,0 -2,1.8q-1,1.7 -7,2.7l-6,1l-1,0.5l-1,0.5l2.5,0.5l2.5,0.5l-1,0.5l-1,0.5l-0.2,0.3l-0.3,0.2l-0.3,-0.2l-0.2,-0.3l-0.2,-0.3l-0.3,-0.2l-0.3,0.2l-0.2,0.3l-1.5,0q-1.5,0 -10,3.5q-8.5,3.5 -23.7,9.2q-15.3,5.8 -25,8q-9.8,2.3 -22.8,2q-13,-0.2 -13,0.8q0,1 -9.5,1.2q-9.5,0.3 -15,-1.2q-5.5,-1.5 -9.7,-2.8q-4.3,-1.2 -5.8,1.3q-1.5,2.5 -4.2,3.3q-2.8,0.7 -5.8,0.2q-3,-0.5 -6.5,0q-3.5,0.5 -7.3,3.8q-3.7,3.2 -7.4,10q-3.8,6.7 -5.6,14q-1.7,7.2 -3.4,9.4q-1.8,2.3 -8.3,7.8q-6.5,5.5 -10.5,6.5l-4,1l-1,-0.5l-1,-0.5l-0.2,-0.3q-0.3,-0.2 -1.8,-4.7q-1.5,-4.5 -2.5,-5.5q-1,-1 -2.5,-7.5q-1.5,-6.5 3.2,-13.5q4.8,-7 5.8,-7q1,0 4.2,-7.5q3.3,-7.5 7.3,-23.5q4,-16 6.7,-21.5q2.8,-5.5 3.8,-5.5q1,0 3.8,-8q2.7,-8 3.2,-14l0.5,-6l0,-0.5l0,-0.5l-0.3,-0.2l-0.2,-0.3l-1,-0.5l-1,-0.5l-0.2,-0.3l-0.3,-0.2l-0.3,-0.2l-0.2,-0.3l-0.2,-0.3l-0.3,-0.2l-0.3,-0.2l-0.2,-0.3l-1.5,0q-1.5,0 -6,0.3l-4.5,0.2l-1.5,0.2q-1.5,0.3 -1.5,0.6l0,0.2l-3.5,0.2q-3.5,0.3 -4.5,0.8q-1,0.5 -5.5,-1.8q-4.5,-2.2 -4.5,-3.2q0,-1 -1,-1q-1,0 -1.5,-2q-0.5,-2 -1.5,-2.2q-1,-0.3 -5.5,-7.6l-4.5,-7.2l-0.2,-1.5q-0.3,-1.5 -0.6,-1.5l-0.2,0l0.2,-2.5l0.3,-2.5l0.3,-0.2l0.2,-0.3l5.2,-1.7q5.3,-1.8 7,-2.6q1.8,-0.7 18.8,-0.2q17,0.5 21.2,3.8q4.3,3.2 7.8,9.7q3.5,6.5 3.8,6.7l0.2,0.3l0.2,0.3l0.3,0.2l0.3,0.2l0.2,0.3l0.2,0.3l0.3,0.2l0.3,0.2l0.2,0.3l0.2,0.3l0.3,0.2l0.3,0.2l0.2,0.3l0.2,0.3l0.3,0.2l0.3,0.2l0.2,0.3l0.2,0.3l0.3,0.2l0.3,0.2l0.2,0.3l0.2,0.3l0.3,0.2l0.3,-0.2l0.2,-0.3l0.2,-0.3l0.3,-0.2l0.3,-0.2l0.2,-0.3l-1,-0.5l-1,-0.5l0.2,-0.3l0.3,-0.2l0,-0.5l0,-0.5l-0.3,-0.2l-0.2,-0.3l-0.2,-0.3l-0.3,-0.2l-0.5,-3.5q-0.5,-3.5 1.8,-6.7q2.2,-3.3 21.2,-5.3q19,-2 22.2,-3.3q3.3,-1.2 3.3,-5.2q0,-4 -1,-5.5q-1,-1.5 -0.7,-5.3q0.2,-3.7 13.7,-9.7q13.5,-6 22,-6q8.5,0 10.5,0.5q2,0.5 10.5,1q8.5,0.5 8.5,0.8z"/>
  <path id="svg_19" fill="#D7D6DD" fill-rule="evenodd" stroke="#D7D6DD" stroke-width="0.5px" d="m755.5,167l2.5,0.5l4,0l4,0l-0.2,-0.3l-0.3,-0.2l-0.3,-0.2l-0.2,-0.3l-0.2,-0.3l-0.3,-0.2l-0.3,-0.2l-0.2,-0.3l-0.2,-0.3l-0.3,-0.2l-0.3,-0.2l-0.2,-0.3l-0.2,-0.3l-0.3,-0.2l-0.3,-0.2l-0.2,-0.3l-0.2,-0.3q-0.3,-0.2 -1.6,-1l-1.2,-0.7l2.8,-0.7q2.7,-0.8 3,-1.3l0.2,-0.5l11,0.2q11,0.3 14.8,1q3.7,0.8 6.2,4.3q2.5,3.5 2.8,5.7q0.2,2.3 16.7,4.8q16.5,2.5 31,10.5q14.5,8 24.5,13q10,5 10.2,5.3l0.3,0.2l0.3,0.2l0.2,0.3l2,0.5l2,0.5l0.2,0.3l0.3,0.2l0.3,0.2l0.2,0.3l0.2,0.3l0.3,0.2l0.3,0.2l0.2,0.3l0.2,0.3l0.3,0.2l0.3,0.2l0.2,0.3l-2.5,0l-2.5,0l-2,-0.5l-2,-0.5l-0.2,-0.3q-0.3,-0.2 -0.6,-0.4q-0.2,-0.3 -9.7,-0.8q-9.5,-0.5 -13.3,-2.2q-3.7,-1.8 -11.4,-4q-7.8,-2.3 -11.3,-2.6q-3.5,-0.2 -3.5,0.8q0,1 -1.5,1.8q-1.5,0.7 -4,4.4q-2.5,3.8 -4.5,4.3q-2,0.5 -2,1.5q0,1 -1.8,2.5q-1.7,1.5 -6,3.7q-4.2,2.3 -8,6q-3.7,3.8 -9,10.6q-5.2,6.7 -16.7,14.2q-11.5,7.5 -13.7,10.8l-2.3,3.2l-0.3,0.2l-0.2,0.3l-0.2,0.3l-0.3,0.2l-0.3,0.2l-0.2,0.3l-1,0.3l-1,0.2l0,1l0,1l1.5,0.2l1.5,0.3l5,2.5q5,2.5 12.5,4q7.5,1.5 6,2.5q-1.5,1 8.7,-0.3q10.3,-1.2 23,-5.4q12.8,-4.3 14.3,-4.3l1.5,0l0.2,-0.3l0.3,-0.2l0.3,-0.2l0.2,-0.3l0.2,-0.3l0.3,-0.2l0.3,0.2l0.2,0.3l2,0l2,0l1,-0.3l1,-0.2l-0.2,1l-0.3,1l-0.3,0.2l-0.2,0.3l-0.2,0.3l-0.3,0.2l-0.3,0l-0.2,0l-1,0.2l-1,0.3l0,0.3l0,0.2l-0.5,0.2l-0.5,0.3l0,0.3l0,0.2l-1,0.2l-1,0.3l-1.5,0.5q-1.5,0.5 -2.5,1q-1,0.5 -5.5,2q-4.5,1.5 -17.5,8.8q-13,7.2 -13,8.2q0,1 -1,1.2q-1,0.3 -5.5,4.8q-4.5,4.5 -9,5q-4.5,0.5 -10.5,-2.5l-6,-3l-1,0l-1,0l0.2,0.3l0.3,0.2l0,0.5l0,0.5l-0.3,1.5l-0.2,1.5l-1,0l-1,0l-0.2,6.5q-0.3,6.5 0.2,12.5l0.5,6l0.3,0.2l0.2,0.3l0.2,0.3l0.3,0.2l0.3,1l0.2,1l-1,-0.2l-1,-0.3l-1,-0.5l-1,-0.5l-1,-0.5l-1,-0.5l-1,-0.5l-1,-0.5l-0.2,-0.3q-0.3,-0.2 -4.8,-4.2q-4.5,-4 -11.2,-8.5q-6.8,-4.5 -9.3,-8q-2.5,-3.5 -3.5,-3.7q-1,-0.3 -19.5,-15.3q-18.5,-15 -25.5,-18.5q-7,-3.5 -10.5,-6q-3.5,-2.5 -4.7,-4.8q-1.3,-2.2 -2,-2.7q-0.8,-0.5 -5,-7.5q-4.3,-7 -6.6,-13q-2.2,-6 -3.2,-6q-1,0 -3.2,-5q-2.3,-5 -3.6,-15.8l-1.2,-10.7l0.2,-0.3l0.3,-0.2l0.5,-2l0.5,-2l0.3,-0.2l0.2,-0.3l0.2,-0.3l0.3,-0.2l0.3,-0.2l0.2,-0.3l1,0l1,0l8,3.5q8,3.5 35.5,2.5q27.5,-1 31,-2.3q3.5,-1.2 7.3,-5.7q3.7,-4.5 5.4,-10.3q1.8,-5.7 4.8,-7.7q3,-2 4,-2.5l1,-0.5l0.2,-0.3l0.3,-0.2l0.3,-1l0.2,-1l1,-0.2l1,-0.3l-0.2,-0.3l-0.3,-0.2l-0.3,-0.2l-0.2,-0.3l-0.2,-0.3l-0.3,-0.2l-0.3,-0.2l-0.2,-0.3l-1,-0.5q-1,-0.5 -2.5,-0.8l-1.5,-0.2l0,-1q0,-1 4.5,1q4.5,2 4.7,3q0.3,1 0.8,0q0.5,-1 1.8,1.2q1.2,2.3 3.7,3.3q2.5,1 5,1.5z"/>
  <path id="svg_20" fill="#DFDEE5" fill-rule="evenodd" stroke="#DFDEE5" stroke-width="0.5px" d="m341,140.2l3,-0.2l6,3.8q6,3.7 9,5.2q3,1.5 10,3q7,1.5 7.5,1.5q0.5,0 2,0.5l1.5,0.5l0.2,0.3l0.3,0.2l0.3,3.8q0.2,3.7 1.2,4q1,0.2 2.5,3.4q1.5,3.3 8.5,7.8q7,4.5 19.2,8.8q12.3,4.2 18.3,7.7q6,3.5 7.5,5q1.5,1.5 2,3.5q0.5,2 0.8,4.5l0.2,2.5l-0.2,0.5l-0.3,0.5l-0.5,1l-0.5,1l-0.3,0.2l-0.2,0.3l-1,0.5l-1,0.5l1,0.5q1,0.5 3,1.2q2,0.8 1.8,2.3q-0.3,1.5 -2.3,4q-2,2.5 -16,13.5l-14,11l-0.3,0.2l-0.2,0.3l-0.2,0.3l-0.3,0.2l-0.3,0.2l-0.2,0.3l-0.2,0.3l-0.3,0.2l-0.3,0.2l-0.2,0.3l-0.2,0.3l-0.3,0.2l-0.3,0.2l-0.2,0.3l-1,0.5l-1,0.5l0,0.3l0,0.2l-1,0l-1,0l0.2,-1l0.3,-1l0.3,-0.5l0.2,-0.5l0.2,0l0.3,0l0.3,-0.2l0.2,-0.3l0.2,-0.3l0.3,-0.2l0.5,-1l0.5,-1l0.3,-0.2l0.2,-0.3l0.2,-0.3l0.3,-0.2l0.3,-0.2l0.2,-0.3l7.2,-6.3q7.3,-6.2 11.6,-9q4.2,-2.7 4.4,-3l0.3,-0.2l0.5,-1.5l0.5,-1.5l0.3,-0.2l0.2,-0.3l0.2,-0.3l0.3,-0.2l0.3,-0.2l0.2,-0.3l1,-0.3l1,-0.2l-0.2,-1l-0.3,-1l-0.3,-0.2l-0.2,-0.3l-0.2,-0.3l-0.3,-0.2l-0.3,-0.2l-0.2,-0.3l-2.5,0l-2.5,0l-1,0.5q-1,0.5 -2.5,1q-1.5,0.5 -1,1.8q0.5,1.2 -2.5,1.4q-3,0.3 -18,0.8q-15,0.5 -24.5,-3q-9.5,-3.5 -23,-8.8q-13.5,-5.2 -13.5,-6.2q0,-1 -9.5,-3.8q-9.5,-2.7 -16,-2q-6.5,0.8 -6.5,1.8q0,1 -2.5,1.5q-2.5,0.5 -2.5,1.5q0,1 -1.8,1.5q-1.7,0.5 -6,2.3q-4.2,1.7 -9.2,8q-5,6.2 -6,6.4q-1,0.3 -2,3q-1,2.8 -2,3q-1,0.3 -0.8,1q0.3,0.8 -3.7,7.8q-4,7 -6.3,9q-2.2,2 -5.2,6.5q-3,4.5 -4,4.7q-1,0.3 -2.2,2.6q-1.3,2.2 -5.6,4.4q-4.2,2.3 -11.7,1.6q-7.5,-0.8 -7.5,-1.8q0,-1 -2.5,-1.8q-2.5,-0.7 -5.7,-4.4q-3.3,-3.8 -3,-9.3q0.2,-5.5 1.2,-5.7q1,-0.3 1.5,-1.6q0.5,-1.2 6,-4q5.5,-2.7 8,-5.4q2.5,-2.8 3.5,-3q1,-0.3 2.5,-4q1.5,-3.8 2.5,-3.8q1,0 1.8,-3.5q0.7,-3.5 3.7,-8q3,-4.5 6.7,-8q3.8,-3.5 6,-9.5q2.3,-6 4,-11.5q1.8,-5.5 11.8,-12.7q10,-7.3 13.5,-10l3.5,-2.8l4.8,-1q4.7,-1 5,-2q0.2,-1 4.4,-2.5q4.3,-1.5 5.6,-2.7q1.2,-1.3 4.2,-1.8q3,-0.5 10,-0.5q7,0 10,-0.3z"/>
  <path id="svg_21" fill="#CECDD4" fill-rule="evenodd" stroke="#CECDD4" stroke-width="0.5px" d="m974.8,47.8l0.2,-0.3l2,0l2,0l0.2,0.3l0.3,0.2l0.3,0.2l0.2,0.3l1,0.5l1,0.5l0.2,0.3l0.3,0.2l8.7,8.2q8.8,8.3 20.6,10q11.7,1.8 15.2,4.8q3.5,3 5.2,7.8q1.8,4.7 2.8,5q1,0.2 3,2.4q2,2.3 9.5,7.8q7.5,5.5 17.5,5.5q10,0 12.2,-0.7q2.3,-0.8 4.3,-3.8q2,-3 3.3,-6.2q1.2,-3.3 6.7,-4q5.5,-0.8 5.5,-1.8q0,-1 1,-1l1,0l-0.5,1.2q-0.5,1.3 0.5,1.3l1,0l0.2,-0.3l0.3,-0.2l0.3,-0.2l0.2,-0.3l2,-0.5q2,-0.5 3,0l1,0.5l-0.2,0.3l-0.3,0.2l-0.3,0.2l-0.2,0.3l-0.2,0.3l-0.3,0.2l-0.3,0.2l-0.2,0.3l1,0.3l1,0.2l0,1l0,1l-1,0l-1,0l-0.2,1l-0.3,1l-0.3,0.2q-0.2,0.3 -2,2.6q-1.7,2.2 -5.2,4.7q-3.5,2.5 -5.2,6q-1.8,3.5 -3,4q-1.3,0.5 -0.8,4l0.5,3.5l0.5,2.5l0.5,2.5l0.3,0.2l0.2,0.3l13,0.5q13,0.5 16.5,5q3.5,4.5 8,4q4.5,-0.5 11.3,-6.2q6.7,-5.8 9.7,-9.3q3,-3.5 17,-12.5q14,-9 19.3,-14.8q5.2,-5.7 6.2,-6q1,-0.2 1,-1.2q0,-1 12.5,-6.8q12.5,-5.7 15.5,-7.4q3,-1.8 4.5,-4q1.5,-2.3 2.5,-2.6q1,-0.2 2,-2.4q1,-2.3 15.5,-6.8q14.5,-4.5 15.5,-4.5l1,0l1.5,0.5l1.5,0.5l0.5,0.3l0.5,0.2l0,64.5l0,64.5l-0.2,0l-0.3,0l-0.5,-3.5l-0.5,-3.5l-0.3,-0.2l-0.2,-0.3l-1,-0.5l-1,-0.5l-0.2,-0.3l-0.3,-0.2l-0.3,0.2l-0.2,0.3l-0.2,0.3q-0.3,0.2 -1.6,1.4q-1.2,1.3 -11.7,4.8q-10.5,3.5 -15.5,0.5q-5,-3 -8.5,-3.7q-3.5,-0.8 -3.7,-5.8q-0.3,-5 0.2,-7.5q0.5,-2.5 4.5,-8.5q4,-6 5.5,-15q1.5,-9 4.2,-9.8q2.8,-0.7 9.8,-5q7,-4.2 8.5,-7.2q1.5,-3 2.5,-3q1,0 3.8,-9q2.7,-9 3.2,-17q0.5,-8 -1,-11.5l-1.5,-3.5l-0.5,-1l-0.5,-1l-0.3,-0.2l-0.2,-0.3l-0.2,-0.3l-0.3,-0.2l-0.3,-0.2l-0.2,-0.3l-0.2,-0.3l-0.3,-0.2l-0.3,-0.2l-0.2,-0.3l-0.2,-0.3l-0.3,-0.2l-0.3,0.2l-0.2,0.3l-0.2,0.3l-0.3,0.2l-0.3,0.2l-0.2,0.3l-1,0.5l-1,0.5l-1,0.5q-1,0.5 -2,1q-1,0.5 -9,12q-8,11.5 -13,20.8q-5,9.2 -6,9.4q-1,0.3 -0.8,1q0.3,0.8 -1.4,2.6l-1.8,1.7l-1,0.5l-1,0.5l-1,0.5l-1,0.5l-1,0.5l-1,0.5l-0.2,0.3l-0.3,0.2l-0.3,-0.2l-0.2,-0.3l-0.2,-0.3l-0.3,-0.2l-0.3,-0.2l-0.2,-0.3l0.2,-0.3l0.3,-0.2l0.3,-0.2l0.2,-0.3l-1,-0.5l-1,-0.5l-0.2,-0.3l-0.3,-0.2l0,-2.5l0,-2.5l2.5,-5q2.5,-5 5,-7.5q2.5,-2.5 2.8,-2.7l0.2,-0.3l0.2,-0.3l0.3,-0.2l0.3,-0.2l0.2,-0.3l0.2,-0.3l0.3,-0.2l0,-2.5l0,-2.5l-0.3,-0.2l-0.2,-0.3l-1.5,-0.5l-1.5,-0.5l-2.5,0l-2.5,0l-1,0.5q-1,0.5 -3,1.5q-2,1 -5.5,4q-3.5,3 -10,12q-6.5,9 -9.3,15.3q-2.7,6.2 -4.2,7.7q-1.5,1.5 -8.8,5.3q-7.2,3.7 -12.2,2.7q-5,-1 -8,-0.5q-3,0.5 -9.2,3.8l-6.3,3.2l-0.3,0.2l-0.2,0.3l-0.2,0.3l-0.3,0.2l-0.3,0.2l-0.2,0.3l-0.2,0.3l-0.3,0.2l-0.3,0.2l-0.2,0.3l-0.2,0.3l-0.3,0.2l-0.5,1l-0.5,1l0,1.5l0,1.5l2.7,1.8q2.8,1.7 5,3q2.3,1.2 2.6,6.2l0.2,5l-1,0.2l-1,0.3l-0.2,0.3l-0.3,0.2l-0.3,0.2l-0.2,0.3l-0.2,0.3l-0.3,0.2l-0.3,1l-0.2,1l-3.5,-0.2q-3.5,-0.3 -6,-1.6q-2.5,-1.2 -2.7,-2.2q-0.3,-1 -5,-3.8l-4.8,-2.7l-0.2,-0.3l-0.3,-0.2l-0.3,0.2l-0.2,0.3l-3,0.5l-3,0.5l-1,0.5l-1,0.5l0.2,0.3l0.3,0.2l0.5,2l0.5,2l0.5,1l0.5,1l0.3,0.2l0.2,0.3l2.8,2.7q2.7,2.8 3,3l0.2,0.3l0.2,0.3l0.3,0.2l0.3,0.2l0.2,0.3l0.2,0.3l0.3,0.2l0.3,0.2l0.2,0.3l0.2,0.3l0.3,0.2l0.3,0.2l0.2,0.3l1,0.5l1,0.5l0.2,0.3l0.3,0.2l0.3,1l0.2,1l-1,-0.2l-1,-0.3l-0.2,-0.3l-0.3,-0.2l-0.3,-0.2l-0.2,-0.3l-0.2,-0.3l-0.3,-0.2l-0.3,-0.2l-0.2,-0.3l-0.2,-0.3l-0.3,-0.2l-0.3,-0.2l-0.2,-0.3l-0.2,-0.3l-0.3,-0.2l-0.3,-0.2l-0.2,-0.3l-0.2,-0.3l-0.3,-0.2l-0.3,-0.2l-0.2,-0.3l-0.2,-0.3q-0.3,-0.2 -4.3,-4.7q-4,-4.5 -8.3,-8q-4.2,-3.5 -4.4,-5.5q-0.3,-2 -2.6,-4.2q-2.2,-2.3 -8.7,-5.6q-6.5,-3.2 -6.3,-6.7q0.3,-3.5 -2.4,-5.3l-2.8,-1.7l-0.2,-0.3l-0.3,-0.2l-0.3,-0.2l-0.2,-0.3l-2,-0.5l-2,-0.5l-0.2,-0.3l-0.3,-0.2l-0.3,0.2l-0.2,0.3l-1.5,0.5l-1.5,0.5l-0.2,0.3l-0.3,0.2l0,2l0,2l0.3,0.2l0.2,0.3l0.2,0.3l0.3,0.2l0.3,0.2l0.2,0.3l0.2,0.3l0.3,0.2l0.3,0.2l0.2,0.3l1,0.5q1,0.5 4,0.2q3,-0.2 4.2,2.3q1.3,2.5 0.3,7q-1,4.5 -1.5,15.5q-0.5,11 -2.8,14.8q-2.2,3.7 -6.2,3.2q-4,-0.5 -6.2,1.2q-2.3,1.8 -10.6,2.6q-8.2,0.7 -12.2,-1.6q-4,-2.2 -6.2,-7.2q-2.3,-5 -4.8,-8.5q-2.5,-3.5 -5.8,-6.5q-3.2,-3 -6.7,-11q-3.5,-8 -11,-9.8l-7.5,-1.7l-1,-0.5l-1,-0.5l0,-0.3l0,-0.2l4,0.2l4,0.3l5.2,2.3q5.3,2.2 8.8,8.2q3.5,6 4,7l0.5,1l0.3,0.2l0.2,0.3l0.2,0.3l0.3,0.2l0.3,0.2l0.2,0.3l0.2,0.3l0.3,0.2l0.3,0.2l0.2,0.3l1,0.5l1,0.5l0.2,0.3l0.3,0.2l0.3,0.2l0.2,0.3l0.2,0.3l0.3,0.2l0.3,-0.2l0.2,-0.3l1,-0.3l1,-0.2l0.2,-1l0.3,-1l0,-1.5l0,-1.5l-0.5,-2q-0.5,-2 -1,-10.5q-0.5,-8.5 -4.2,-14.5q-3.8,-6 -4.8,-6.2q-1,-0.3 -4.8,-5q-3.7,-4.8 -7.4,-7q-3.8,-2.3 -12.3,-3.8l-8.5,-1.5l-0.2,-0.3l-0.3,-0.2l-0.3,-0.2l-0.2,-0.3l0,-0.3l0,-0.2l2,-0.2l2,-0.3l2.5,-0.5l2.5,-0.5l1,-0.5l1,-0.5l0.2,-0.3l0.3,-0.2l0.3,-0.2l0.2,-0.3l0.2,-0.3l0.3,-0.2l0,-1l0,-1l-0.5,-1.5l-0.5,-1.5l-0.3,0.2l-0.2,0.3l-0.2,0.3l-0.3,0.2l-0.3,-0.2l-0.2,-0.3l-1,-0.5q-1,-0.5 -0.5,-1.8q0.5,-1.2 -3.5,-1.7q-4,-0.5 -5.8,-12q-1.7,-11.5 -4.7,-20l-3,-8.5l-0.3,-0.2l-0.2,-0.3l0.2,-0.3l0.3,-0.2l0,-0.5l0,-0.5l-0.3,-0.2l-0.2,-0.3l0.2,-0.3l0.3,-0.2l0.5,-1l0.5,-1l0.3,-0.2z"/>
  <path id="svg_22" fill="#E2E1E7" fill-rule="evenodd" stroke="#E2E1E7" stroke-width="0.5px" d="m0,84l0,-84l143.5,0l143.5,0l0,0.2q0,0.3 0.2,2.6q0.3,2.2 -4.2,8.2q-4.5,6 -10.8,11.2q-6.2,5.3 -12,9.6l-5.7,4.2l-0.3,0.2l-0.2,0.3l-1,0.5l-1,0.5l-0.2,0.3l-0.3,0.2l-0.3,0.2l-0.2,0.3l-0.2,0.3l-0.3,0.2l-0.3,0.2l-0.2,0.3l-0.2,0.3l-0.3,0.2l-0.3,0.2l-0.2,0.3l-0.2,0.3l-0.3,0.2l-0.3,0.2l-0.2,0.3l0,0.3l0,0.2l-0.5,0.2q-0.5,0.3 -3,2.3q-2.5,2 -8.5,7.5q-6,5.5 -11.5,8.2q-5.5,2.8 -5.7,3.8q-0.3,1 -2.8,2q-2.5,1 -2,2q0.5,1 -2.8,2.2q-3.2,1.3 -8.7,-0.2q-5.5,-1.5 -9.5,-2.2l-4,-0.8l0.2,2l0.3,2l0.3,0.2l0.2,0.3l2,0.5l2,0.5l0.2,0.3l0.3,0.2l-0.3,1.5q-0.2,1.5 3.8,1.7q4,0.3 6,0.8l2,0.5l0.2,0.3l0.3,0.2l0.5,1l0.5,1l0,1l0,1l-0.3,0.2l-0.2,0.3l0.2,0.3l0.3,0.2l-0.3,2.8q-0.2,2.7 -1.2,3q-1,0.2 -3.2,4.2q-2.3,4 -2.6,6l-0.2,2l-0.5,0.2q-0.5,0.3 -2.7,3q-2.3,2.8 -5.6,5q-3.2,2.3 -13.7,3.8q-10.5,1.5 -19,5.5l-8.5,4l1,0.5l1,0.5l-3,0.5l-3,0.5l-1,0.5l-1,0.5l5.5,1q5.5,1 5.7,1.3l0.3,0.2l0.3,0.2l0.2,0.3l0.2,0.3l0.3,0.2l0,2l0,2l-0.5,1l-0.5,1l-0.3,0.2l-0.2,0.3l-5.2,5.7q-5.3,5.8 -23.3,24.3q-18,18.5 -18.3,19.5q-0.2,1 -4,4.5q-3.7,3.5 -11.7,11q-8,7.5 -8.3,8l-0.2,0.5l-0.2,0q-0.3,0 -0.6,0.5l-0.2,0.5l-0.2,0q-0.3,0 -0.6,0.5l-0.2,0.5l-0.2,0q-0.3,0 -3,1.2q-2.8,1.3 -5.8,0.3q-3,-1 -6,-4.3q-3,-3.2 -4,-3.2q-1,0 -1.2,-1q-0.3,-1 -3.6,-3.5q-3.2,-2.5 -4.2,-4.3q-1,-1.7 -6,-4.2q-5,-2.5 -12,-1.5q-7,1 -14.5,2.7q-7.5,1.8 -7.7,3.3l-0.3,1.5l-0.5,-1.5q-0.5,-1.5 -2.2,-2.5q-1.8,-1 -2,-3q-0.3,-2 -2.6,-2q-2.2,0 -4.2,-10.5l-2,-10.5l0,-84z"/>
  <path id="svg_23" fill="#E0DFE6" fill-rule="evenodd" stroke="#E0DFE6" stroke-width="0.5px" d="m130.5,642l1.5,0l0,0.2l0,0.3l-0.2,0.3l-0.3,0.2l-0.3,0.2l-0.2,0.3l0.2,0.3l0.3,0.2l0.5,1l0.5,1l0.7,4q0.8,4 2,4.5q1.3,0.5 1.6,2.3q0.2,1.7 2.4,4.4q2.3,2.8 2.3,4.8l0,2l-0.5,2.5l-0.5,2.5l-0.3,0.2l-0.2,0.3l-1,0.5l-1,0.5l-0.2,0.3l-0.3,0.2l-1.7,0.8q-1.8,0.7 -9.8,0.7q-8,0 -10.8,4.7q-2.7,4.8 -5.7,13.3q-3,8.5 -5.5,13q-2.5,4.5 -3,7l-0.5,2.5l0,1l0,1l0.5,1.5l0.5,1.5l0.3,0.2l0.2,0.3l0.2,0.3l0.3,0.2l0.3,0.2l0.2,0.3l1,0.5l1,0.5l1.5,0.5l1.5,0.5l0.5,0l0.5,0l1,-0.5l1,-0.5l1,-0.5q1,-0.5 3,-2q2,-1.5 4,-5.2q2,-3.8 4,-5q2,-1.3 10.5,-1.3q8.5,0 11.7,-1.3q3.3,-1.2 5.8,-8.2q2.5,-7 2.2,-8.5l-0.2,-1.5l4.5,0.8q4.5,0.7 15,4.2q10.5,3.5 14.5,6q4,2.5 14.8,12.2q10.7,9.8 16.4,16.8q5.8,7 7,7.5q1.3,0.5 1.6,1.5l0.2,1l1,0.2l1,0.3l0.5,0.3l0.5,0.2l0,0.2l0,0.3l0.5,0.3l0.5,0.2l0,0.2l0,0.3l0.2,0.3l0.3,0.2l0.3,0.2l0.2,0.3l0.2,0.3l0.3,0.2l0,1l0,1l-0.3,-0.2l-0.2,-0.3l-0.2,-0.3l-0.3,-0.2l-0.3,-0.2l-0.2,-0.3l-4,-0.5q-4,-0.5 -5.8,-1.2q-1.7,-0.8 -7.7,-2.8l-6,-2l-0.3,-0.2l-0.2,-0.3l-0.2,-0.3l-0.3,-0.2l-0.3,-0.2l-0.2,-0.3l-2,-0.3l-2,-0.2l-0.2,2.5l-0.3,2.5l-0.3,0.2l-0.2,0.3l0.2,0.3l0.3,0.2l0.3,0.2l0.2,0.3l0.2,0.3l0.3,0.2l2.7,4.8q2.8,4.7 7.8,9.7q5,5 16,12.5q11,7.5 19,10.5q8,3 12,4q4,1 4.2,1.3q0.3,0.2 0.6,0.4l0.2,0.3l1,0.5l1,0.5l3.5,0.5l3.5,0.5l0,0.3l0,0.2l-137,0l-137,0l0,-55.5l0,-55.5l0.2,0l0.3,0l0.5,2.5l0.5,2.5l1,10q1,10 5.3,11.5q4.2,1.5 4.7,2.7q0.5,1.3 11.5,5.3q11,4 16.2,3.3q5.3,-0.8 8.6,-4q3.2,-3.3 8.2,-4.3q5,-1 10,1.5q5,2.5 6,4.2q1,1.8 2.8,2.8q1.7,1 2,1.2l0.2,0.3l3.5,0l3.5,0l0.2,-0.3l0.3,-0.2l0.5,-1l0.5,-1l0.5,-2.5q0.5,-2.5 1.5,-10.5q1,-8 8,-16q7,-8 9.7,-14.5q2.8,-6.5 9.3,-11.3q6.5,-4.7 7.7,-8q1.3,-3.2 2,-4.4q0.8,-1.3 2.3,-4q1.5,-2.8 3,-2.8z"/>
  <path id="svg_24" fill="#CDCCD2" fill-rule="evenodd" stroke="#CDCCD2" stroke-width="0.5px" d="m958,361.8l1,0.2l13,0.2q13,0.3 16.8,4q3.7,3.8 10.4,18.6q6.8,14.7 11,20.4q4.3,5.8 7.6,15.8q3.2,10 4.2,10q1,0 2.2,3.5q1.3,3.5 2.6,7q1.2,3.5 3.2,4q2,0.5 2,1.5q0,1 3.8,4.5q3.7,3.5 6,6.5q2.2,3 4.7,4q2.5,1 4.5,3.2q2,2.3 10,9q8,6.8 10,9.6q2,2.7 3,3q1,0.2 1.5,1.4q0.5,1.3 1.5,1.6q1,0.2 1,1.2q0,1 3.8,2q3.7,1 4,2q0.2,1 1.2,1l1,0l0,3.5l0,3.5l-0.5,0.2l-0.5,0.3l0,0.3l0,0.2l-0.5,0.2l-0.5,0.3l0,0.3l0,0.2l-0.5,0.2l-0.5,0.3l0,0.3l0,0.2l-0.2,0.5l-0.3,0.5l-0.3,0.2l-0.2,0.3l-0.2,0.3l-0.3,0.2l-0.3,0.2l-0.2,0.3l-0.2,0.3l-0.3,0.2l-0.3,0.2l-0.2,0.3l-2.5,0.5l-2.5,0.5l-1,0q-1,0 -3,-3.3q-2,-3.2 -7,-6q-5,-2.7 -15,-5.4q-10,-2.8 -10,-3.8q0,-1 -1.5,-1.2q-1.5,-0.3 -7.5,-4.3q-6,-4 -14.5,-8.3q-8.5,-4.2 -8.5,-5.2q0,-1 -7.5,-4.8q-7.5,-3.7 -28.5,-12.2q-21,-8.5 -28,-7.2q-7,1.2 -7,2.2q0,1 -5,3.2q-5,2.3 -9,1.8q-4,-0.5 -9.5,-2.5q-5.5,-2 -10,-2.5q-4.5,-0.5 -10,2q-5.5,2.5 -15.5,4.5q-10,2 -21.5,2q-11.5,0 -21.5,-5.7q-10,-5.8 -10.5,-7l-0.5,-1.3l-0.2,-0.3l-0.3,-0.2l0,-3l0,-3l0.3,-0.2l0.2,-0.3l0.2,-0.3l0.3,-0.2l0.3,-0.2l0.2,-0.3l1,-0.3q1,-0.2 1,-1.2q0,-1 10.5,-3.8q10.5,-2.7 12.5,-3.2l2,-0.5l1,-0.5l1,-0.5l2,-0.5l2,-0.5l0,-0.3l0,-0.2l12.5,-1.2q12.5,-1.3 14.5,-1.3l2,0l1.5,0l1.5,0l-0.2,-0.3l-0.3,-0.2l-0.3,-0.2l-0.2,-0.3l0.2,-0.3l0.3,-0.2l0.3,-2l0.2,-2l-1,0l-1,0l-0.2,-1.5q-0.3,-1.5 -0.8,-3.5q-0.5,-2 -6.2,-7.2q-5.8,-5.3 -9.8,-12.6q-4,-7.2 -5.5,-7.4q-1.5,-0.3 -4,-2.8l-2.5,-2.5l0.2,-0.3l0.3,-0.2l0.3,-0.2l0.2,-0.3l0.2,-0.3l0.3,-0.2l0.3,-0.2l0.2,-0.3l0.2,-0.3l0.3,-0.2l0.5,-1l0.5,-1l0,-0.5l0,-0.5l-0.3,-1l-0.2,-1l1,-0.2l1,-0.3l3.5,-1.5q3.5,-1.5 12.5,-2q9,-0.5 27.5,-4.5q18.5,-4 33.5,-3.5q15,0.5 16,0.8z"/>
  <path id="svg_25" fill="#E2E1E8" fill-rule="evenodd" stroke="#E2E1E8" stroke-width="0.5px" d="m751,386.2l1,-0.2l-0.2,1q-0.3,1 -2.6,2.8q-2.2,1.7 -2.2,3.4q0,1.8 -1,2q-1,0.3 -5.2,4q-4.3,3.8 -4.8,7.3l-0.5,3.5l0.3,0.2l0.2,0.3l6,4.5q6,4.5 24,14.5q18,10 20.8,9.7q2.7,-0.2 4.4,-2q1.8,-1.7 11.3,-2.7q9.5,-1 14.5,-3.5q5,-2.5 18.5,-3q13.5,-0.5 15.5,-1l2,-0.5l3,-0.3l3,-0.2l0,0.2l0,0.3l-2,0.5l-2,0.5l-1,0.5l-1,0.5l-2,0.5q-2,0.5 -12.5,3.2q-10.5,2.8 -10.5,3.8q0,1 -1,1.2l-1,0.3l-0.2,0.3l-0.3,0.2l-0.3,0.2l-0.2,0.3l-0.2,0.3l-0.3,0.2l0,3l0,3l0.3,0.2l0.2,0.3l0.5,1.3q0.5,1.2 10.5,7q10,5.7 21.5,5.7q11.5,0 21.5,-2q10,-2 15.5,-4.5q5.5,-2.5 10,-2q4.5,0.5 10,2.5q5.5,2 9.5,2.5q4,0.5 9,-1.8q5,-2.2 5,-3.2q0,-1 7,-2.2q7,-1.3 28,7.2q21,8.5 28.5,12.2q7.5,3.8 7.5,4.8q0,1 8.5,5.2q8.5,4.3 14.5,8.3q6,4 7.5,4.3q1.5,0.2 1.5,1.2q0,1 10,3.8q10,2.7 15,5.4q5,2.8 7,6q2,3.3 3,3.3l1,0l2.5,-0.5l2.5,-0.5l0.2,-0.3l0.3,-0.2l0.3,-0.2l0.2,-0.3l0.2,-0.3l0.3,-0.2l0.3,-0.2l0.2,-0.3l0.2,-0.3l0.3,-0.2l0.3,-0.5l0.2,-0.5l0.2,0q0.3,0 0.6,-0.5l0.2,-0.5l0.2,0q0.3,0 0.6,-0.5l0.2,-0.5l0.2,0q0.3,0 0.6,-0.5l0.2,-0.5l1.5,-0.5q1.5,-0.5 1.5,-1.5q0,-1 4.5,-2.2q4.5,-1.3 13.7,1q9.3,2.2 20.8,4.2q11.5,2 15.5,6.5q4,4.5 4,8.5q0,4 -4.7,8.8q-4.8,4.7 -11.6,10q-6.7,5.2 -10,8.4q-3.2,3.3 -7.7,2.8q-4.5,-0.5 -7.3,-2.2q-2.7,-1.8 -3,-1.8l-0.2,0l-0.2,-0.5q-0.3,-0.5 -0.6,-0.5l-0.2,0l-0.2,-0.5q-0.3,-0.5 -0.6,-0.5l-0.2,0l-0.2,-0.5q-0.3,-0.5 -0.6,-0.5l-0.2,0l-0.2,-0.5q-0.3,-0.5 -0.6,-0.5l-0.2,0l-0.2,-0.5q-0.3,-0.5 -0.6,-0.5l-0.2,0l-0.5,-0.2q-0.5,-0.3 -3,-1.3l-2.5,-1l-1,0l-1,0l-0.2,0.3l-0.3,0.2l-0.3,0.2l-0.2,0.3l-1,0.5l-1,0.5l-0.2,0.3q-0.3,0.2 -0.6,0.2l-0.2,0l-0.5,0.2q-0.5,0.3 -0.5,0.6l0,0.2l-0.5,0.2q-0.5,0.3 -0.5,0.6l0,0.2l-0.5,0.2q-0.5,0.3 -0.5,0.6l0,0.2l-0.5,0.2q-0.5,0.3 -0.5,0.6l0,0.2l-0.2,0q-0.3,0 -1.6,2.5q-1.2,2.5 -3.2,2.3q-2,-0.3 -10,-0.3q-8,0 -25,1q-17,1 -35.5,3q-18.5,2 -39.5,2q-21,0 -24.5,-1.5l-3.5,-1.5l-1,-0.5l-1,-0.5l-0.2,-0.3l-0.3,-0.2l-0.3,-0.2l-0.2,-0.3l-0.2,-0.3l-0.3,-0.2l-0.5,-1l-0.5,-1l-0.3,-0.2l-0.2,-0.3l0.2,-0.3l0.3,-0.2l0.3,-0.2l0.2,-0.3l0.2,-0.3l0.3,-0.2l0.3,-1l0.2,-1l1,-0.2l1,-0.3l1,-0.5l1,-0.5l3.5,-1.5q3.5,-1.5 5,-1.8l1.5,-0.2l4.5,-0.2l4.5,-0.3l1,-0.5l1,-0.5l0.2,-0.3l0.3,-0.2l0.3,-3l0.2,-3l1.5,-0.2l1.5,-0.3l-0.2,-0.3l-0.3,-0.2l-0.3,-0.2l-0.2,-0.3l-2,-0.5l-2,-0.5l-1.5,-0.5q-1.5,-0.5 -12,-3q-10.5,-2.5 -13.5,-5q-3,-2.5 -9.2,-7.2q-6.3,-4.8 -21,-8q-14.8,-3.3 -21.8,-6.8q-7,-3.5 -22,-6q-15,-2.5 -18.2,-4.8q-3.3,-2.2 -8,-6q-4.8,-3.7 -8.3,-7.4q-3.5,-3.8 -8,-5l-4.5,-1.3l-1.5,0l-1.5,0l-0.2,0.3l-0.3,0.2l-0.5,2.5q-0.5,2.5 -1,5.5q-0.5,3 -2.2,4.2q-1.8,1.3 -2.8,3.6q-1,2.2 -3,2.2q-2,0 -2,-1q0,-1 -7,-0.8q-7,0.3 -8.5,-0.2l-1.5,-0.5l-1,-0.3l-1,-0.2l-0.2,-1l-0.3,-1l-0.3,-0.2l-0.2,-0.3l-0.2,-0.3l-0.3,-0.2l0,-1.5l0,-1.5l0.5,-1.5q0.5,-1.5 1.8,-3.5q1.2,-2 5.2,-4.5q4,-2.5 4.2,-6.5q0.3,-4 -1.4,-5.5q-1.8,-1.5 -1.8,-2.5q0,-1 -7,-5.2q-7,-4.3 -15,-4.3q-8,0 -11,1q-3,1 -5.8,-6.3q-2.7,-7.2 -9.2,-14.2q-6.5,-7 -7.8,-11q-1.2,-4 -5,-6.5q-3.7,-2.5 -5.4,-2.5l-1.8,0l0.2,-1.5l0.3,-1.5l0.5,-2l0.5,-2l0.3,-0.2l0.2,-0.3l0.2,-0.3l0.3,-0.2l0.3,-0.2l0.2,-0.3l0.2,-0.3l0.3,-0.2l0.3,-0.2l0.2,-0.3l0.2,-0.3l0.3,-0.2l0.3,-0.5l0.2,-0.5l0.2,0l0.3,0l0.3,-0.5l0.2,-0.5l5.8,-0.5q5.7,-0.5 8.4,0.3q2.8,0.7 5.8,-0.8q3,-1.5 4,-2.5q1,-1 2,-1.3z"/>
  <path id="svg_26" fill="#D7D6DC" fill-rule="evenodd" stroke="#D7D6DC" stroke-width="0.5px" d="m731.5,490l0,-2l0.3,0l0.2,0l3.8,7.5q3.7,7.5 9.2,12.5q5.5,5 5.8,6q0.2,1 1,1.5q0.7,0.5 3.2,4.5q2.5,4 4.5,15q2,11 3.3,14.5q1.2,3.5 2.2,3.5q1,0 1,4.2q0,4.3 0,6.3q0,2 -1,2.3q-1,0.2 -1,2q0,1.7 0.5,2.2q0.5,0.5 0.7,0.8l0.3,0.2l0.3,0.2l0.2,0.3l0.2,0.3l0.3,0.2l0.5,2l0.5,2l0.3,0.2l0.2,0.3l0.2,0.3l0.3,0.2l0.3,0.2l0.2,0.3l0.2,0.3l0.3,0.2l0.3,0.2l0.2,0.3l0.2,0.3q0.3,0.2 0.6,-1.8l0.2,-2l4.8,8.5q4.7,8.5 6,9q1.2,0.5 1.7,2.5q0.5,2 1.5,2q1,0 1,1q0,1 4.5,3.2q4.5,2.3 5.5,1.8q1,-0.5 4,-1l3,-0.5l2,-0.3l2,-0.2l0,0.2l0,0.3l-1,0.5l-1,0.5l-1,0.5l-1,0.5l-0.2,0.3l-0.3,0.2l-0.3,0.2l-0.2,0.3l-0.2,0.3l-0.3,0.2l-0.3,0.2l-0.2,0.3l-0.2,0.3l-0.3,0.2l-0.3,0.2l-0.2,0.3l-1,0.5q-1,0.5 -6,2q-5,1.5 -13,7.8q-8,6.2 -8.2,7.7q-0.3,1.5 -4,4q-3.8,2.5 -4,3.5q-0.3,1 -4.3,4.5q-4,3.5 -12.3,8l-8.2,4.5l-1,0.2l-1,0.3l-2.5,0q-2.5,0 -7,-2.7q-4.5,-2.8 -11.5,-14.8q-7,-12 -8,-12q-1,0 -2.2,-2.5q-1.3,-2.5 -7.8,-14q-6.5,-11.5 -16.5,-27q-10,-15.5 -15.7,-19.3q-5.8,-3.7 -11.8,-4.4l-6,-0.8l0,-0.2l0,-0.3l0.2,-0.3l0.3,-0.2l0.3,-0.2l0.2,-0.3l1,-0.5l1,-0.5l2.5,-0.5l2.5,-0.5l6,-3q6,-3 9.2,-4.3q3.3,-1.2 14.8,-10.2q11.5,-9 12.5,-11q1,-2 1,-6l0,-4l-0.3,-0.2l-0.2,-0.3l-0.2,-0.3l-0.3,-0.2l-0.3,-0.2l-0.2,-0.3l-1.5,-0.5q-1.5,-0.5 -9.5,-2.5l-8,-2l-4,-0.3l-4,-0.2l0,-0.2l0,-0.3l2,-0.5l2,-0.5l1,-0.5l1,-0.5l6.5,-2.5q6.5,-2.5 18.5,-4q12,-1.5 15.5,-1.5q3.5,0 7.3,0.3q3.7,0.2 4,0.4l0.2,0.3l0.2,0.3l0.3,0.2l0.3,0.2l0.2,0.3l0.2,0.3l0.3,0.2l0.5,-1l0.5,-1l0,-0.5l0,-0.5l0,-2z"/>
  <path id="svg_27" fill="#E8E7EE" fill-rule="evenodd" stroke="#E8E7EE" stroke-width="0.5px" d="m350,143.8l-6,-3.8l23,2.8q23,2.7 27.5,3.7q4.5,1 8.5,0q4,-1 16,-0.3q12,0.8 13.5,3.8q1.5,3 3.3,4.5q1.7,1.5 3,3.7q1.2,2.3 3.7,6.3q2.5,4 5,6q2.5,2 8.5,1q6,-1 13.5,-4.3q7.5,-3.2 8.7,-5.2q1.3,-2 1.8,-3.5q0.5,-1.5 1.5,-1.5q1,0 3,-2q2,-2 2.3,-2.2l0.2,-0.3l0.2,-0.3l0.3,-0.2l0.3,-0.2l0.2,-0.3l1,-0.5l1,-0.5l0.2,-0.3l0.3,-0.2l0.5,-1l0.5,-1l0.3,-0.2l0.2,-0.3l1,-0.3l1,-0.2l-0.2,1l-0.3,1l-0.3,0.2l-0.2,0.3l-0.2,0.3l-0.3,0.2l-0.5,1.5l-0.5,1.5l-0.3,0.2l-0.2,0.3l-0.2,0.3l-0.3,0.2l-0.5,1q-0.5,1 -2,3.5l-1.5,2.5l-0.5,1l-0.5,1l-0.3,0.2l-0.2,0.3l-0.2,0.3l-0.3,0.2l-0.3,1l-0.2,1l3,0.2l3,0.3l3,-0.7q3,-0.8 3.2,0.2q0.3,1 0.6,1l0.2,0l0,0.2l0,0.3l1,0l1,0l1,-0.3l1,-0.2l0,1.5q0,1.5 0.8,2q0.7,0.5 0.4,1.5q-0.2,1 0.8,1q1,0 4,6.2q3,6.3 9.2,9.6q6.3,3.2 6.6,3.4l0.2,0.3l0.2,0.3l0.3,0.2l0.3,0.2l0.2,0.3l0.2,0.3l0.3,0.2l0.3,0.2l0.2,0.3l0.2,0.3l0.3,0.2l0.5,1.5l0.5,1.5l0,0.5l0,0.5l-0.3,1l-0.2,1l-1,0.2l-1,0.3l-10.5,0q-10.5,0 -14,0.5q-3.5,0.5 -8.5,4q-5,3.5 -13,4q-8,0.5 -15.2,-3.2l-7.3,-3.8l-0.3,-0.2l-0.2,-0.3l-0.2,-0.3l-0.3,-0.2l-0.3,-0.2l-0.2,-0.3l-0.2,-0.3l-0.3,-0.2l0,2l0,2l0.3,0.2l0.2,0.3l-1.5,0q-1.5,0 -3.3,-1.3q-1.7,-1.2 -0.4,1l1.2,2.3l-1.5,0l-1.5,0l-2,-0.3l-2,-0.2l-0.2,-1l-0.3,-1l-0.3,0.2l-0.2,0.3l-0.2,0.3l-0.3,0.2l-0.3,0l-0.2,0l-0.2,-2.5q-0.3,-2.5 -0.8,-4.5q-0.5,-2 -2,-3.5q-1.5,-1.5 -7.5,-5q-6,-3.5 -19.3,-8.3q-13.2,-4.7 -21.4,-10.4q-8.3,-5.8 -7.8,-6.8q0.5,-1 -1.8,-2q-2.2,-1 -2.2,-2q0,-1 1.5,-1.2q1.5,-0.3 1.3,-2.6l-0.3,-2.2l-0.3,-0.2l-0.2,-0.3l-1.5,-0.5q-1.5,-0.5 -2,-0.5q-0.5,0 -7.5,-1.5q-7,-1.5 -10,-3q-3,-1.5 -9,-5.2z"/>
  <path id="svg_28" fill="#D5D4DB" fill-rule="evenodd" stroke="#D5D4DB" stroke-width="0.5px" d="m153,638.2l2,-0.2l1.5,0.2l1.5,0.3l0.2,0.3l0.3,0.2l0.3,0.2l0.2,0.3l0.2,0.3l0.3,0.2l0.3,0.2l0.2,0.3l0.2,0.3l0.3,0.2l0.3,0.2l0.2,0.3l0.2,0.3l0.3,0.2l0.3,0.2l0.2,0.3l4,2.5q4,2.5 18.5,3.5q14.5,1 24.3,3.7q9.7,2.8 14.7,6.3q5,3.5 6.3,6q1.2,2.5 2.2,2.5q1,0 1,1q0,1 1.5,1q1.5,0 2,1.2q0.5,1.3 1.5,1.6q1,0.2 1.2,1.7q0.3,1.5 0.3,4q0,2.5 1,15.5q1,13 2,21.5q1,8.5 2,12q1,3.5 1.5,5q0.5,1.5 1,6.5l0.5,5l0.3,0.2l0.2,0.3l-0.2,0.3l-0.3,0.2l-0.3,0.2l-0.2,0.3l-0.2,0.3l-0.3,0.2l-0.3,2l-0.2,2l-1.5,-0.2l-1.5,-0.3l-2,-0.5q-2,-0.5 -4.8,-2.2l-2.7,-1.8l-0.3,-0.2l-0.2,-0.3l-1,-0.3l-1,-0.2l-0.2,-0.5q-0.3,-0.5 -0.6,-0.5l-0.2,0l-0.5,-0.2l-0.5,-0.3l-1,-0.3l-1,-0.2l-0.2,-1q-0.3,-1 -1.6,-1.5q-1.2,-0.5 -7,-7.5q-5.7,-7 -16.4,-16.8q-10.8,-9.7 -14.8,-12.2q-4,-2.5 -14.5,-6q-10.5,-3.5 -15,-4.2l-4.5,-0.8l0.2,1.5q0.3,1.5 -2.2,8.5q-2.5,7 -5.8,8.2q-3.2,1.3 -11.7,1.3q-8.5,0 -10.5,1.3q-2,1.2 -4,5q-2,3.7 -4,5.2q-2,1.5 -3,2l-1,0.5l-1,0.5l-1,0.5l-0.5,0l-0.5,0l-1.5,-0.5l-1.5,-0.5l-1,-0.5l-1,-0.5l-0.2,-0.3l-0.3,-0.2l-0.3,-0.2l-0.2,-0.3l-0.2,-0.3l-0.3,-0.2l-0.5,-1.5l-0.5,-1.5l0,-1l0,-1l0.5,-2.5q0.5,-2.5 3,-7q2.5,-4.5 5.5,-13q3,-8.5 5.7,-13.3q2.8,-4.7 10.8,-4.7q8,0 9.8,-0.7l1.7,-0.8l0.3,-0.2l0.2,-0.3l1,-0.5l1,-0.5l0.2,-0.3l0.3,-0.2l0.5,-2.5l0.5,-2.5l0,-2q0,-2 -2.3,-4.8q-2.2,-2.7 -2.4,-4.4q-0.3,-1.8 -1.6,-2.3q-1.2,-0.5 -2,-4.5l-0.7,-4l-0.5,-1l-0.5,-1l-0.3,-0.2l-0.2,-0.3l0.2,-0.3l0.3,-0.2l0.3,-0.2l0.2,-0.3l0,-0.3l0,-0.2l9.5,-1.8q9.5,-1.7 11.5,-2z"/>
  <path id="svg_29" fill="#D5D4DA" fill-rule="evenodd" stroke="#D5D4DA" stroke-width="0.5px" d="m23.5,383l1.5,-0.5l1.5,0l1.5,0l1,0.5l1,0.5l1,0.5l1,0.5l1,0.5l1,0.5l0.2,0.3l0.3,0.2l0.3,0.2l0.2,0.3l0.2,0.3l0.3,0.2l0.3,0.2l0.2,0.3l0.2,0.3l0.3,0.2l0.5,1l0.5,1l0.3,0.2l0.2,0.3l-0.8,2.3q-0.7,2.2 -3.7,6.2q-3,4 -2.5,6.5q0.5,2.5 0,4.5q-0.5,2 -0.8,2.2l-0.2,0.3l5,2.5q5,2.5 16.2,6.2q11.3,3.8 14,5.3q2.8,1.5 3.8,4q1,2.5 4,3.7q3,1.3 9.5,0.8q6.5,-0.5 10,-2.2q3.5,-1.8 7,-6q3.5,-4.3 4.7,-5q1.3,-0.8 1.6,-1l0.2,-0.3l0.2,-0.3l0.3,-0.2l0.3,-0.2l0.2,-0.3l4,0l4,0l0.2,0.3l0.3,0.2l0,1.5l0,1.5l-0.5,1.5l-0.5,1.5l-0.5,1l-0.5,1l-0.3,0.2l-0.2,0.3l-2,1.3q-2,1.2 -5.5,5q-3.5,3.7 -6.5,6q-3,2.2 -5,4.4q-2,2.3 -5.5,3.3q-3.5,1 -7,1.3l-3.5,0.2l0.2,2l0.3,2l0.3,0.2l0.2,0.3l0.2,0.3l0.3,0.2l6.5,12.5q6.5,12.5 6.8,15.3q0.2,2.7 3.7,8.7q3.5,6 4.5,6.3q1,0.2 1.2,3.2q0.3,3 1,7.5q0.8,4.5 2,5q1.3,0.5 1.6,2q0.2,1.5 3.2,2.7q3,1.3 4,1.6l1,0.2l0,0.2l0,0.3l1.5,0.5l1.5,0.5l3.5,0.3l3.5,0.2l0.2,1l0.3,1l0.3,0.2l0.2,0.3l-0.2,0.3l-0.3,0.2l-0.3,0.2l-0.2,0.3l-0.2,0.3l-0.3,0.2l-0.5,1.5l-0.5,1.5l-0.3,0.2q-0.2,0.3 -3.2,2.3q-3,2 -5.2,6.3q-2.3,4.2 -5.6,4.4q-3.2,0.3 -6.2,-0.4q-3,-0.8 -3,-1.8q0,-1 -2.5,-1.8q-2.5,-0.7 -2.7,-2q-0.3,-1.2 -0.8,-2.2q-0.5,-1 -1,-10q-0.5,-9 -1.2,-11.5q-0.8,-2.5 -1.8,-2.5q-1,0 -3.5,-2.8q-2.5,-2.7 -9,-10.7q-6.5,-8 -9.3,-11.7q-2.7,-3.8 -4.2,-4.8q-1.5,-1 -2.5,-5q-1,-4 -0.5,-8.5q0.5,-4.5 -1.2,-7.5q-1.8,-3 -0.8,-3.2l1,-0.3l1.5,-0.5l1.5,-0.5l-1,-0.5l-1,-0.5l-5,0.5q-5,0.5 -10.5,1.2q-5.5,0.8 -5.7,1.8q-0.3,1 -1,0.2q-0.8,-0.7 -2.3,0.3q-1.5,1 -10,2.5q-8.5,1.5 -14.5,2.5q-6,1 -7.8,2.3q-1.7,1.2 -2.2,11.2q-0.5,10 -1,21.5l-0.5,11.5l-0.3,0l-0.2,0l0,-48.5l0,-48.5l0.2,0l0.3,0l0.3,1l0.2,1l0,1.5l0,1.5l1,-0.2l1,-0.3l0.2,-0.3l0.3,-0.2l0.3,-0.2l0.2,-0.3l0.2,-0.3l0.3,-0.2l0.3,-0.2l0.2,-0.3l0.2,-0.3l0.3,-0.2l0.3,-0.2l0.2,-0.3l0.2,-0.3l0.3,-0.2l0.3,-0.2l0.2,-0.3l0.2,-0.3l0.3,-0.2l0.3,-0.2l0.2,-0.3l0.2,-0.3q0.3,-0.2 2.6,-1.2q2.2,-1 3.7,-3.8q1.5,-2.7 4.3,-12.4l2.7,-9.8l0.3,-0.2l0.2,-0.3l1.5,-0.5z"/>
  <path id="svg_30" fill="#E4E3E9" fill-rule="evenodd" stroke="#E4E3E9" stroke-width="0.5px" d="m0,290l0,-122l2,10.5q2,10.5 4.2,10.5q2.3,0 2.6,2q0.2,2 2,3q1.7,1 2.2,2.5l0.5,1.5l0.3,-1.5q0.2,-1.5 7.7,-3.3q7.5,-1.7 14.5,-2.7q7,-1 12,1.5q5,2.5 6,4.2q1,1.8 4.2,4.3q3.3,2.5 3.6,3.5q0.2,1 1.2,1q1,0 4,3.2q3,3.3 6,4.3q3,1 5.5,0.3q2.5,-0.8 3,-2q0.5,-1.3 1.5,-1.6l1,-0.2l-0.2,1l-0.3,1l-0.3,0.2l-0.2,0.3l-0.2,0.3l-0.3,0.2l-0.3,0.2l-0.2,0.3l-0.2,0.3l-0.3,0.2l-0.5,2q-0.5,2 -1,4.5q-0.5,2.5 -1.8,3q-1.2,0.5 -1.7,5.5q-0.5,5 0.5,5q1,0 0.5,2.5q-0.5,2.5 -1.5,2.5q-1,0 -1.5,2q-0.5,2 -21.5,1.8q-21,-0.3 -24.2,1q-3.3,1.2 -5.3,7.2q-2,6 -0.7,12.8q1.2,6.7 1.2,8.7q0,2 -2.2,4.3q-2.3,2.2 -2.6,4.2l-0.2,2l5.5,0.8q5.5,0.7 16.5,11.7q11,11 12,11.3q1,0.2 3.5,4q2.5,3.7 4.3,6.4q1.7,2.8 2.2,4.3l0.5,1.5l0,1.5l0,1.5l-0.5,1l-0.5,1l-0.3,0.2l-0.2,0.3l-0.2,0.3l-0.3,0.2l-1.7,1.2q-1.8,1.3 -7.8,1.8l-6,0.5l1,0.5l1,0.5l-2,0.5l-2,0.5l0.2,0.3l0.3,0.2l0.3,0.2l0.2,0.3l3.5,0.5q3.5,0.5 2.5,1q-1,0.5 2,0q3,-0.5 6,4q3,4.5 0.8,14.2q-2.3,9.8 -7.8,14.3q-5.5,4.5 -7,8q-1.5,3.5 -1.8,4.5l-0.2,1l-0.2,0q-0.3,0 -0.6,1.5l-0.2,1.5l-1,-0.2l-1,-0.3l-0.2,-0.3l-0.3,-0.2l-0.3,-0.2l-0.2,-0.3l-0.2,-0.3l-0.3,-0.2l-0.3,-0.2l-0.2,-0.3l-1.5,-0.5l-1.5,-0.5l-0.2,-0.3l-0.3,-0.2l-0.3,-0.2l-0.2,-0.3l-1,-0.5l-1,-0.5l-0.2,-0.3l-0.3,-0.2l-0.3,-0.2l-0.2,-0.3l-0.2,-0.3l-0.3,-0.2l-0.3,-0.2l-0.2,-0.3l-0.2,-0.3l-0.3,-0.2l-0.3,-0.2l-0.2,-0.3l-0.2,-0.3l-0.3,-0.2l-0.5,-1.5q-0.5,-1.5 -0.8,-1.7q-0.2,-0.3 2.3,-3.3q2.5,-3 4.5,-6.7l2,-3.8l-1,0l-1,0l-0.2,-2l-0.3,-2l-0.3,-1l-0.2,-1l-1.5,-0.2l-1.5,-0.3l-0.2,-0.3l-0.3,-0.2l-0.3,0.2l-0.2,0.3l-1,0.5l-1,0.5l-0.2,0.3l-0.3,0.2l-0.3,0.2l-0.2,0.3l-0.2,0.3l-0.3,0.2l-5,7q-5,7 -5.5,18.5q-0.5,11.5 -1.8,17.7q-1.2,6.3 -2.4,7q-1.3,0.8 -1.8,1.8l-0.5,1l-0.3,0.2l-0.2,0.3l-0.2,0.3l-0.3,0.2l-0.3,1l-0.2,1l-1,0.2l-1,0.3l-0.2,0.3l-0.3,0.2l-0.3,0.2l-0.2,0.3l-0.2,0.3l-0.3,0.2l-0.3,0.2l-0.2,0.3l-1,0.3l-1,0.2l-0.2,-1l-0.3,-1l-0.3,0l-0.2,0l0,-122zm72.2,-49.8q0.3,-0.2 0.6,0q0.2,0.3 -0.3,0.3q-0.5,0 -0.3,-0.3z"/>
  <path id="svg_31" fill="#CDCCD2" fill-rule="evenodd" stroke="#CDCCD2" stroke-width="0.5px" d="m722.8,5.5l-2.8,-5.5l73,0l73,0l0,0.2q0,0.3 1.5,0.6q1.5,0.2 2.7,3.7q1.3,3.5 -3,9.5q-4.2,6 -5.2,6q-1,0 -2,1.8q-1,1.7 -12.5,11.7q-11.5,10 -14.7,12.7l-3.3,2.8l0,2l0,2l0.5,1l0.5,1l3.3,3.2q3.2,3.3 16.2,9.8q13,6.5 21,9q8,2.5 31.5,6q23.5,3.5 42,5.5q18.5,2 23.5,4.5q5,2.5 7.2,3.2q2.3,0.8 2.6,4.8q0.2,4 1.2,4.2q1,0.3 2,0.6l1,0.2l0,0.2l0,0.3l0.2,0.3l0.3,0.2l0.3,0.2l0.2,0.3l8.5,1.5q8.5,1.5 12.3,3.8q3.7,2.2 7.4,7q3.8,4.7 4.8,5q1,0.2 4.8,6.2q3.7,6 4.2,14.5q0.5,8.5 1,10.5l0.5,2l0,1.5l0,1.5l-0.3,1l-0.2,1l-1,0.2l-1,0.3l-0.2,0.3l-0.3,0.2l-0.3,-0.2l-0.2,-0.3l-0.2,-0.3l-0.3,-0.2l-0.3,-0.2l-0.2,-0.3l-1,-0.5l-1,-0.5l-0.2,-0.3l-0.3,-0.2l-0.3,-0.2l-0.2,-0.3l-0.2,-0.3l-0.3,-0.2l-0.3,-0.2l-0.2,-0.3l-0.2,-0.3l-0.3,-0.2l-0.5,-1q-0.5,-1 -1.5,-3q-1,-2 -3.7,-5.5l-2.8,-3.5l0,-1q0,-1 -1,-1l-1,0l0,-0.2q0,-0.3 -4,-1.8l-4,-1.5l-4,-0.3l-4,-0.2l-0.5,-0.2q-0.5,-0.3 -4.5,-1.3q-4,-1 -10.2,-4.7q-6.3,-3.8 -8,-3.8q-1.8,0 -1.8,-1q0,-1 -4.5,0.8q-4.5,1.7 -10,6.4q-5.5,4.8 -12.5,14.8q-7,10 -9.8,12q-2.7,2 -6.4,5.5q-3.8,3.5 -4,4.5q-0.3,1 -5.6,4q-5.2,3 -5.2,4q0,1 -1.5,0.8q-1.5,-0.3 -7,0.2q-5.5,0.5 -10,-2.5q-4.5,-3 -9.5,-7.5q-5,-4.5 -6.2,-8.2q-1.3,-3.8 -4.6,-9.3q-3.2,-5.5 -14,-10.5q-10.7,-5 -19,-9.5q-8.2,-4.5 -10.2,-6.7q-2,-2.3 -2.2,-4q-0.3,-1.8 -3,-5q-2.8,-3.3 -18.8,-13.3q-16,-10 -22,-11q-6,-1 -5,0.7q1,1.8 -1,2.6q-2,0.7 -2.8,2.4q-0.7,1.8 -4.2,5.3q-3.5,3.5 -5.8,10l-2.2,6.5l-1,0.2l-1,0.3l-0.2,0.3l-0.3,0.2l-0.3,0.2l-0.2,0.3l-1,0l-1,0l-1,-0.5l-1,-0.5l-1,-0.5l-1,-0.5l-0.2,-0.3l-0.3,-0.2l-0.3,-0.2l-0.2,-0.3l-0.2,-0.3l-0.3,-0.2l-0.5,-1l-0.5,-1l-0.3,-0.2l-0.2,-0.3l-0.2,-0.3l-0.3,-0.2l0,-1l0,-1l2.5,-4q2.5,-4 3.5,-5.5q1,-1.5 2.3,-7q1.2,-5.5 7.7,-8.3q6.5,-2.7 7.3,-2q0.7,0.8 1.4,-2.2q0.8,-3 1.8,-3l1,0l-0.2,-1.5q-0.3,-1.5 -3,-5l-2.8,-3.5l-0.2,-0.5q-0.3,-0.5 -4.6,-6.5q-4.2,-6 -11.7,-11.2q-7.5,-5.3 -7.3,-6.6q0.3,-1.2 -1,-2q-1.2,-0.7 -1.4,-2q-0.3,-1.2 -1.8,-5.7q-1.5,-4.5 -5.5,-10.5q-4,-6 -6.5,-11.5q-2.5,-5.5 -5.2,-11zm179.4,175.3q-0.2,-0.3 0,-0.6q0.3,-0.2 0.3,0.3q0,0.5 -0.3,0.3z"/>
  <path id="svg_32" fill="#D5D4DA" fill-rule="evenodd" stroke="#D5D4DA" stroke-width="0.5px" d="m280,73l-1,0l0,1l0,1l-1,0l-1,0l0.2,1l0.3,1l0.3,1l0.2,1l1,0.2l1,0.3l0.2,0.3l0.3,0.2l7.3,2.8q7.2,2.7 10,6q2.7,3.2 3,4.2q0.2,1 1.2,1q1,0 3.2,8q2.3,8 2.8,15.5q0.5,7.5 0.8,9l0.2,1.5l-2,0.2q-2,0.3 -7,0.8q-5,0.5 -4.5,1.8q0.5,1.2 -3.5,1.2l-4,0l0,-0.2q0,-0.3 -10.5,-4.3q-10.5,-4 -28.3,-4.7q-17.7,-0.8 -25,-2q-7.2,-1.3 -11.7,-3.3q-4.5,-2 -8.3,-5.7q-3.7,-3.8 -4,-7.3l-0.2,-3.5l0.2,-2q0.3,-2 2.6,-6q2.2,-4 3.2,-4.2q1,-0.3 1.2,-3l0.3,-2.8l-0.3,-0.2l-0.2,-0.3l0.2,-0.3l0.3,-0.2l0,-1l0,-1l-0.5,-1l-0.5,-1l-0.3,-0.2l-0.2,-0.3l-2,-0.5q-2,-0.5 -7,-1l-5,-0.5l-1.5,-0.5l-1.5,-0.5l3,-0.5l3,-0.5l-0.2,-0.3l-0.3,-0.2l-0.3,-0.2l-0.2,-0.3l-2,-0.5l-2,-0.5l-0.2,-0.3l-0.3,-0.2l-0.3,-2l-0.2,-2l4,0.8q4,0.7 9.5,2.2q5.5,1.5 8.7,0.2q3.3,-1.2 2.8,-2.2q-0.5,-1 2,-2q2.5,-1 2.8,-2q0.2,-1 5.7,-3.8q5.5,-2.7 11.5,-8.2q6,-5.5 8.5,-7.5q2.5,-2 3,-2.3l0.5,-0.2l2,-0.2l2,-0.3l0.2,-0.3l0.3,-0.2l0.3,-0.2l0.2,-0.3l10,-2q10,-2 14,0q4,2 8.2,6.3q4.3,4.2 5.8,8.7q1.5,4.5 0.2,9q-1.2,4.5 -3.7,6.3q-2.5,1.7 -4.5,2q-2,0.2 -2,1.2q0,1 -1,1z"/>
  <path id="svg_33" fill="#B9B8BD" fill-rule="evenodd" stroke="#B9B8BD" stroke-width="0.5px" d="m1259.5,349l1.5,0.5l0.2,0.3l0.3,0.2l0.3,-0.2l0.2,-0.3l1,0l1,0l0.5,0.3l0.5,0.2l0,21l0,21l-0.5,-0.2l-0.5,-0.3l-0.2,-0.3l-0.3,-0.2l-0.3,-0.2l-0.2,-0.3l-0.2,-0.3l-0.3,-0.2l-0.3,-0.2l-0.2,-0.3l-0.2,-0.3l-0.3,-0.2l-0.3,-0.2l-0.2,-0.3l-0.2,-0.3l-0.3,-0.2l-0.3,-0.2l-0.2,-0.3l-0.2,-0.3l-0.3,-0.2l-0.3,-0.2l-0.2,-0.3l-0.2,-0.3l-0.3,-0.2l-0.3,-0.2q-0.2,-0.3 -7.7,-10q-7.5,-9.8 -11,-12.3q-3.5,-2.5 -5.3,-5q-1.7,-2.5 -15,-10.3q-13.2,-7.7 -23.2,-6.7q-10,1 -10.8,0.7q-0.7,-0.2 -9.4,3.3q-8.8,3.5 -8.8,4.5q0,1 -1.5,1.8q-1.5,0.7 -6.5,4.2l-5,3.5l-1.5,0.5l-1.5,0.5l-0.2,0.3l-0.3,0.2l-0.3,0.2l-0.2,0.3l-1,0.3l-1,0.2l-0.2,-1l-0.3,-1l-0.3,-0.2l-0.2,-0.3l0.2,-0.3l0.3,-0.2l0.5,-1.5l0.5,-1.5l0.3,-0.2l0.2,-0.3l0.2,-0.3l0.3,-0.2l0.3,-1l0.2,-1l5.5,-9.8q5.5,-9.7 9.5,-16.2q4,-6.5 4.5,-9.2q0.5,-2.8 8.5,-6q8,-3.3 15,-3.3q7,0 9.8,0.7q2.7,0.8 4.4,3.6q1.8,2.7 7.3,7.2q5.5,4.5 7.5,7.8q2,3.2 6.5,5q4.5,1.7 15.5,8.7q11,7 12,6.5q1,-0.5 1.5,0q0.5,0.5 2,1z"/>
  <path id="svg_34" fill="#D9D8DE" fill-rule="evenodd" stroke="#D9D8DE" stroke-width="0.5px" d="m1044.8,4.5l-4.8,-4.5l112.5,0l112.5,0l0,24.5l0,24.5l-0.5,-0.2l-0.5,-0.3l-1.5,-0.5l-1.5,-0.5l-1,0q-1,0 -15.5,4.5q-14.5,4.5 -15.5,6.8q-1,2.2 -2,2.4q-1,0.3 -2.5,2.6q-1.5,2.2 -4.5,4q-3,1.7 -15.5,7.4q-12.5,5.8 -12.5,6.8q0,1 -1,1.2q-1,0.3 -6.2,6q-5.3,5.8 -19.3,14.8q-14,9 -17,12.5q-3,3.5 -9.7,9.3q-6.8,5.7 -11.3,6.2q-4.5,0.5 -8,-4q-3.5,-4.5 -16.5,-5l-13,-0.5l-0.2,-0.3l-0.3,-0.2l-0.5,-2.5l-0.5,-2.5l-0.5,-3.5q-0.5,-3.5 0.8,-4q1.2,-0.5 3,-4q1.7,-3.5 5.2,-6q3.5,-2.5 5.2,-4.7q1.8,-2.3 2,-2.6l0.3,-0.2l0.3,-1l0.2,-1l1,0l1,0l0,-1l0,-1l-1,-0.2l-1,-0.3l0.2,-0.3l0.3,-0.2l0.3,-0.2l0.2,-0.3l0.2,-0.3l0.3,-0.2l0.3,-0.2l0.2,-0.3l-1,-0.5q-1,-0.5 -3,0l-2,0.5l-0.2,0.3l-0.3,0.2l-0.3,0.2l-0.2,0.3l-1,0.3l-1,0.2l0,-1l0,-1l0.2,0l0.3,0l0.3,-0.5l0.2,-0.5l0.2,0l0.3,0l0.3,-0.2l0.2,-0.3l2.5,-1.5q2.5,-1.5 2.7,-1.8l0.3,-0.2l0.3,-0.2l0.2,-0.3l1,-0.3l1,-0.2l0.2,-1l0.3,-1l0,-0.5l0,-0.5l-0.3,-0.2l-0.2,-0.3l0.2,-0.3l0.3,-0.2l0.3,-0.2l0.2,-0.3l0.2,-0.3l0.3,-0.2l0.3,-0.2l0.2,-0.3l-1,-0.5l-1,-0.5l-0.2,-0.3l-0.3,-0.2l-0.3,-0.2l-0.2,-0.3l-1,-0.5l-1,-0.5l-0.2,-0.3l-0.3,-0.2l-0.3,-0.2l-0.2,-0.3l-1,-0.5q-1,-0.5 -13,-1q-12,-0.5 -14,-2.5l-2,-2l-0.2,-0.3l-0.3,-0.2l-0.3,-0.2l-0.2,-0.3l-0.2,-0.3l-0.3,-0.2l-0.5,-1l-0.5,-1l-0.3,-0.2l-0.2,-0.3l0.2,-0.3q0.3,-0.2 1.3,-3.2q1,-3 3,-6q2,-3 3,-7q1,-4 -4.5,-7.5q-5.5,-3.5 -11.5,-11.5q-6,-8 -9.5,-11.5q-3.5,-3.5 -8.2,-8z"/>
  <path id="svg_35" fill="#D5D3DA" fill-rule="evenodd" stroke="#D5D3DA" stroke-width="0.5px" d="m479.5,560.5l0.5,0l1.2,-0.7q1.3,-0.8 2,-2.6q0.8,-1.7 4.3,-2.7q3.5,-1 5,-1.3l1.5,-0.2l0,0.2l0,0.3l0.2,0.3l0.3,0.2l0.3,0.2l0.2,0.3l-0.2,0.3l-0.3,0.2l-0.3,1l-0.2,1l-1.5,0.2l-1.5,0.3l1,0.5l1,0.5l0.2,0.3l0.3,0.2l0.3,0.2l0.2,0.3l0.5,0.3l0.5,0.2l0,0.2q0,0.3 -3.5,0.6l-3.5,0.2l0.2,4.5q0.3,4.5 0.6,7q0.2,2.5 -0.8,2.7q-1,0.3 -0.2,1q0.7,0.8 0.4,2.8q-0.2,2 1,2.5q1.3,0.5 1.6,2.5q0.2,2 1.4,2.5q1.3,0.5 4,7q2.8,6.5 3.8,6.5q1,0 17.8,30q16.7,30 17.2,31.5q0.5,1.5 1,3l0.5,1.5l0.3,3l0.2,3l-4.5,-0.2q-4.5,-0.3 -13,-5.3q-8.5,-5 -12.5,-9.7q-4,-4.8 -5,-5q-1,-0.3 -2.8,-3q-1.7,-2.8 -4.2,-8.3q-2.5,-5.5 -3,-9q-0.5,-3.5 -2.2,-9q-1.8,-5.5 -2.8,-5.5q-1,0 -1.2,-2q-0.3,-2 -2.8,-9l-2.5,-7l-0.3,-0.2l-0.2,-0.3l-0.2,-0.3l-0.3,-0.2l-0.3,0.2l-0.2,0.3l-0.5,0l-0.5,0l-3,0l-3,0l-0.5,1.3q-0.5,1.2 -1.5,1.2q-1,0 -1,1.5q0,1.5 -4,4q-4,2.5 -4,3.5q0,1 -2.8,2.5q-2.7,1.5 -8.7,5q-6,3.5 -6.5,5q-0.5,1.5 -0.2,2.3q0.2,0.7 -0.8,1q-1,0.2 -1,1.2q0,1 -1,1q-1,0 -4.8,7.5q-3.7,7.5 -5,9.3q-1.2,1.7 -2.2,2.2l-1,0.5l-0.2,0.3l-0.3,0.2l-0.3,0.2l-0.2,0.3l-1,0.5l-1,0.5l-1,0.5l-1,0.5l-0.2,0.3l-0.3,0.2l-0.3,0.5l-0.2,0.5l-0.2,0q-0.3,0 -2,0.8l-1.8,0.7l-0.5,0l-0.5,0l-3,-0.5l-3,-0.5l-0.2,-0.3l-0.3,-0.2l-0.3,-0.2l-0.2,-0.3l-0.2,-0.3l-0.3,-0.2l0,-3q0,-3 0.5,-4.5q0.5,-1.5 1,-7.5q0.5,-6 1,-8q0.5,-2 -0.2,-7.2q-0.8,-5.3 -7.3,-6.6q-6.5,-1.2 -7,-2.4q-0.5,-1.3 -6.5,-4.3q-6,-3 -12.5,-3q-6.5,0 -12.5,2.5q-6,2.5 -10.8,2.8q-4.7,0.2 -10,1.4q-5.2,1.3 -18.2,7q-13,5.8 -13,6.8q0,1 -17.5,6.8q-17.5,5.7 -18,6.4q-0.5,0.8 -3.5,1q-3,0.3 -7.5,-1.2q-4.5,-1.5 -8,-5.8q-3.5,-4.2 -4.5,-4.2q-1,0 -1.2,-4q-0.3,-4 0.4,-4.8q0.8,-0.7 6.8,-5.2q6,-4.5 11.5,-8.8l5.5,-4.2l1,-0.2q1,-0.3 1,-0.6l0,-0.2l7.2,-3q7.3,-3 23,-8.8q15.8,-5.7 19.3,-6.2l3.5,-0.5l1.5,-0.5l1.5,-0.5l2,-0.5l2,-0.5l0,-0.3l0,-0.2l10,-3.8q10,-3.7 22,-5.7q12,-2 18,-1.5q6,0.5 11.5,2.5q5.5,2 10.5,5.7q5,3.8 8,7q3,3.3 7,2.8q4,-0.5 11.2,-8.8q7.3,-8.2 7.3,-11.7l0,-3.5l-0.5,-1l-0.5,-1l-0.3,-0.2l-0.2,-0.3l-0.2,-0.3l-0.3,-0.2l-0.5,-1l-0.5,-1l-0.3,-0.2l-0.2,-0.3l-0.2,-0.3l-0.3,-0.2l-0.3,-1l-0.2,-1l-1,-0.2l-1,-0.3l-1,0l-1,0l-0.5,0q-0.5,0 -4,1q-3.5,1 -4.7,3.7q-1.3,2.8 -2.6,3l-1.2,0.3l-3,-0.5l-3,-0.5l-0.2,-0.3l-0.3,-0.2l-0.3,-0.2l-0.2,-0.3l-1,-0.3l-1,-0.2l0.2,-1.5l0.3,-1.5l0.5,-1.5l0.5,-1.5l0.3,-0.2l0.2,-0.3l4.5,-1.5q4.5,-1.5 7.7,-2.8q3.3,-1.2 3.6,-2.2q0.2,-1 3.7,-1.8q3.5,-0.7 21,5.3q17.5,6 19.5,6.3q2,0.2 2.5,2.4q0.5,2.3 1,2.3z"/>
  <path id="svg_36" fill="#E3E1E8" fill-rule="evenodd" stroke="#E3E1E8" stroke-width="0.5px" d="m605.8,128.8l0.2,-0.3l1,0l1,0l0.2,0.3l0.3,0.2l0.3,0.2l0.2,0.3l1,0.5l1,0.5l0.2,0.3l0.3,0.2l0.3,0.2l0.2,0.3l1,0.5l1,0.5l0.2,0.3l0.3,0.2l0,1l0,1l0,1l0,1l0,0.5l0,0.5l-0.5,1q-0.5,1 -3,4q-2.5,3 -4.2,3.2q-1.8,0.3 -2,1.6q-0.3,1.2 -1,2q-0.8,0.7 -4,9.4l-3.3,8.8l-0.3,0.2l-0.2,0.3l-0.2,0.3l-0.3,0.2l-0.3,0.2l-0.2,0.3l-0.2,0.3l-0.3,0.2l-0.3,0.2l-0.2,0.3l0.5,0.5q0.5,0.5 0.7,0.8l0.3,0.2l0.5,-1l0.5,-1l0.3,-0.2l0.2,-0.3l0.2,-0.3l0.3,-0.2l0.3,-0.2l0.2,-0.3l1.8,-2.3q1.7,-2.2 4.4,-8.4q2.8,-6.3 6,-9.6q3.3,-3.2 3.6,-2.7l0.2,0.5l-0.2,0.5q-0.3,0.5 -1.3,2q-1,1.5 -2.5,10q-1.5,8.5 -3.8,12.3q-2.2,3.7 -3.7,6.4q-1.5,2.8 -6.3,6.8q-4.7,4 -5.7,10.5q-1,6.5 -3.5,12.5q-2.5,6 -2,7.5l0.5,1.5l-0.3,0.2l-0.2,0.3l-0.2,0.3l-0.3,0.2l-0.3,0.2l-0.2,0.3l-0.2,0.3l-0.3,0.2l-0.3,1q-0.2,1 1.3,0.8l1.5,-0.3l9.8,-3.7q9.7,-3.8 18.2,-15.3q8.5,-11.5 8.8,-17.7q0.2,-6.3 -0.8,-6.6q-1,-0.2 0,-3.4q1,-3.3 1.5,-4.6q0.5,-1.2 1.5,-1.2q1,0 2,-1.8q1,-1.7 2,-2q1,-0.2 5.5,-7.2q4.5,-7 5.5,-7q1,0 2,-1.8q1,-1.7 7.5,-1.7q6.5,0 9,1q2.5,1 13.7,9.3q11.3,8.2 16,11.4q4.8,3.3 10.3,5.3q5.5,2 10.5,1.5q5,-0.5 8.8,-3.2q3.7,-2.8 8.4,-7q4.8,-4.3 6.3,-4.8l1.5,-0.5l0.5,-0.3l0.5,-0.2l2,0l2,0l0,0.2l0,0.3l0.2,0.3l0.3,0.2l0.3,0.2l0.2,0.3l0.2,0.3l0.3,0.2l0.3,0.2l0.2,0.3l1,0.3l1,0.2l0,0.2l0,0.3l-1.5,0.3l-1.5,0.2l-0.2,1l-0.3,1l-0.3,0.2l-0.2,0.3l-1,0.5q-1,0.5 -4,2.5q-3,2 -4.8,7.7q-1.7,5.8 -5.4,10.3q-3.8,4.5 -7.3,5.7q-3.5,1.3 -31,2.3q-27.5,1 -35.5,-2.5l-8,-3.5l-1,0l-1,0l-0.2,0.3l-0.3,0.2l-0.3,0.2l-0.2,0.3l-0.2,0.3l-0.3,0.2l-0.5,2l-0.5,2l-0.3,0.2l-0.2,0.3l1.2,10.7q1.3,10.8 3.6,15.8q2.2,5 3.2,5q1,0 3.2,6q2.3,6 6.6,13q4.2,7 5,7.5q0.7,0.5 2,2.7q1.2,2.3 4.7,4.8q3.5,2.5 10.5,6q7,3.5 25.5,18.5q18.5,15 19.5,15.3q1,0.2 3.5,3.7q2.5,3.5 9.3,8q6.7,4.5 11.2,8.5q4.5,4 4.8,4.2l0.2,0.3l1,0.5l1,0.5l1,0.5l1,0.5l1,0.5l1,0.5l1,0.3l1,0.2l-0.2,-1l-0.3,-1l-0.3,-0.2l-0.2,-0.3l-0.2,-0.3l-0.3,-0.2l-0.5,-6q-0.5,-6 -0.2,-12.5l0.2,-6.5l1,0l1,0l0.2,-1.5l0.3,-1.5l0,-0.5l0,-0.5l-0.3,-0.2l-0.2,-0.3l1,0l1,0l6,3q6,3 10.5,2.5q4.5,-0.5 9,-5q4.5,-4.5 5.5,-4.8q1,-0.2 1,-1.2q0,-1 13,-8.2q13,-7.3 17.5,-8.8q4.5,-1.5 5.5,-2q1,-0.5 2.5,-1l1.5,-0.5l0.2,-0.3l0.3,-0.2l0.3,-0.2l0.2,-0.3l0.2,-0.3l0.3,-0.2l0.3,-0.2l0.2,-0.3l1.5,-0.3l1.5,-0.2l-0.2,0.5l-0.3,0.5l-0.3,0.2l-0.2,0.3l-0.2,0.3l-0.3,0.2l-0.3,0.2l-0.2,0.3l-1,0.3l-1,0.2l0,1.5l0,1.5l-1,0.2l-1,0.3l-0.2,0.3q-0.3,0.2 -8.6,4.7q-8.2,4.5 -8.2,5.5q0,1 -1.8,2q-1.7,1 -5.2,6.5q-3.5,5.5 -5.8,7.5q-2.2,2 -3,8q-0.7,6 -2,6.5q-1.2,0.5 -1.2,2q0,1.5 -2.5,1.5q-2.5,0 -3,1.2q-0.5,1.3 -4,3l-3.5,1.8l0,-1q0,-1 -1.5,-1.2q-1.5,-0.3 -2.3,-1.6q-0.7,-1.2 -3.4,-3l-2.8,-1.7l-0.2,-0.3l-0.3,-0.2l-0.3,-0.2l-0.2,-0.3l-1.5,-0.5l-1.5,-0.5l-1,0l-1,0l-0.2,0.3l-0.3,0.2l0,1l0,1l0.5,1l0.5,1l0.5,1l0.5,1l0.3,0.2l0.2,0.3l1,0.5l1,0.5l0.2,0.3l0.3,0.2l4,0.5q4,0.5 4.7,2.3q0.8,1.7 2.3,2q1.5,0.2 4.3,7.2q2.7,7 2.4,8.5q-0.2,1.5 -1.2,1.5q-1,0 -1.5,1.8q-0.5,1.7 -2.3,3.4q-1.7,1.8 -4,8.6q-2.2,6.7 -7.2,10.2q-5,3.5 -6.5,3.8q-1.5,0.2 -1.5,1.2q0,1 -2.8,3.5q-2.7,2.5 -6.4,6.3q-3.8,3.7 -3.8,4l0,0.2l-0.5,0.2q-0.5,0.3 -0.5,0.6l0,0.2l-0.5,0.2q-0.5,0.3 -0.5,0.6l0,0.2l-1,0.2q-1,0.3 -4,1.8q-3,1.5 -5.8,0.8q-2.7,-0.8 -8.4,-0.3l-5.8,0.5l-0.5,0.2q-0.5,0.3 -0.5,0.6l0,0.2l-1,0.2q-1,0.3 -3,1.3l-2,1l-1,0.5l-1,0.5l-0.2,0.3l-0.3,0.2l-0.3,0.2l-0.2,0.3l-0.2,0.3l-0.3,0.2l-0.3,0.2l-0.2,0.3l-0.2,0.3l-0.3,0.2l-0.3,0.2l-0.2,0.3l-0.2,0.3l-0.3,0.2l0,-1.5l0,-1.5l0.3,-0.2l0.2,-0.3l0.2,-0.3l0.3,-0.2l0.3,-0.2l0.2,-0.3l1.5,-0.5l1.5,-0.5l0.2,-0.3l0.3,-0.2l0.3,-0.2l0.2,-0.3l4.5,-3.5q4.5,-3.5 5.5,-4l1,-0.5l1,-0.3l1,-0.2l0.2,-1.5l0.3,-1.5l0.3,-1l0.2,-1l-1,-0.2l-1,-0.3l-1.5,-0.5q-1.5,-0.5 -5,-1.5q-3.5,-1 -5.3,-3.7q-1.7,-2.8 -0.7,-8.8q1,-6 0.3,-9.5q-0.8,-3.5 -2.3,-3.7q-1.5,-0.3 -2.5,-1.6q-1,-1.2 -11.5,-1.4q-10.5,-0.3 -16,-3.8q-5.5,-3.5 -12,-4l-6.5,-0.5l-1,0.5l-1,0.5l-1,0.5l-1,0.5l-0.2,0.3l-0.3,0.2l-0.3,0.2l-0.2,0.3l-0.2,0.3l-0.3,0.2l0,1.5l0,1.5l2.3,4.2q2.2,4.3 4.4,9q2.3,4.8 3,10q0.8,5.3 5,10q4.3,4.8 6.3,8.8q2,4 3.7,6.8q1.8,2.7 7.8,4.7q6,2 6.8,11.3q0.7,9.2 2.2,13.7q1.5,4.5 2,7l0.5,2.5l0.5,1.5l0.5,1.5l0.3,1l0.2,1l-0.5,-0.2l-0.5,-0.3l-0.2,-0.3l-0.3,-0.2l-0.3,-0.2l-0.2,-0.3l-0.2,-0.3l-0.3,-0.2l-0.5,-1l-0.5,-1l-0.3,-0.2l-0.2,-0.3l-0.2,-0.3l-0.3,-0.2l-0.3,-0.2l-0.2,-0.3l-0.2,-0.3l-0.3,-0.2l-0.3,-0.2l-0.2,-0.3l-1,-0.5q-1,-0.5 -1.2,-1.2q-0.3,-0.8 -1.6,-1.3q-1.2,-0.5 -4.7,-6.3q-3.5,-5.7 -11.5,-4.7q-8,1 -12.5,3.5q-4.5,2.5 -15.5,6.2q-11,3.8 -11,0.3q0,-3.5 -1,-3.7q-1,-0.3 -4.8,-5q-3.7,-4.8 -7.2,-11.8q-3.5,-7 -6.8,-10q-3.2,-3 -3.7,-5q-0.5,-2 -2.5,-2.8q-2,-0.7 -3.5,-3.4q-1.5,-2.8 -2.5,-2.8q-1,0 -1,-1q0,-1 -1,-1.2q-1,-0.3 -7.8,-11.6q-6.7,-11.2 -7.4,-9q-0.8,2.3 -3.8,1q-3,-1.2 -5.5,-4.7q-2.5,-3.5 -3.5,-3.7q-1,-0.3 -5.2,-8q-4.3,-7.8 -9,-15.6q-4.8,-7.7 -6.8,-8.4l-2,-0.8l-0.2,-0.5q-0.3,-0.5 -0.6,-0.5l-0.2,0l-0.2,-0.5q-0.3,-0.5 -0.6,-0.5l-0.2,0l-0.5,-0.2q-0.5,-0.3 -4.3,-4q-3.7,-3.8 -7.4,-7.3q-3.8,-3.5 -10.3,-11.3q-6.5,-7.7 -13.3,-17q-6.7,-9.2 -18.2,-18.2q-11.5,-9 -15.8,-11.2q-4.2,-2.3 -12.7,-9.8l-8.5,-7.5l-1,-0.5l-1,-0.5l-1,-0.5l-1,-0.5l-0.2,-0.3l-0.3,-0.2l-0.3,0.2l-0.2,0.3l-0.2,0.3l-0.3,0.2l-0.3,0.2l-0.2,0.3l-0.2,0.3l-0.3,0.2l-0.3,0.2l-0.2,0.3l-0.2,0.3l-0.3,0.2l-0.3,0.2l-0.2,0.3l-0.2,0.3l-0.3,0.2l-1.5,12q-1.5,12 -1.8,13l-0.2,1l-1,0.2l-1,0.3l-0.2,0.3l-0.3,0.2l-0.3,0.2l-0.2,0.3l-3.5,0q-3.5,0 -5.5,-0.7q-2,-0.8 -2,-1.8q0,-1 -1,-1.2q-1,-0.3 -4.5,-4.3q-3.5,-4 -14,-3l-10.5,1l-2.5,0.3l-2.5,0.2l0,-1l0,-1l1,-0.2l1,-0.3l1,-0.5l1,-0.5l-1,-0.3l-1,-0.2l0,-0.2l0,-0.3l1,-0.5l1,-0.5l0.2,-0.3l0.3,-0.2l0.3,-0.2l0.2,-0.3l0.2,-0.3l0.3,-0.2l0.3,-0.2l0.2,-0.3l0.2,-0.3l0.3,-0.2l0.3,-0.2l0.2,-0.3l0.2,-0.3l0.3,-0.2l14,-11q14,-11 16,-13.5q2,-2.5 2.3,-4q0.2,-1.5 -1.8,-2.3q-2,-0.7 -3,-1.2l-1,-0.5l1,-0.5l1,-0.5l0.2,-0.3l0.3,-0.2l0.5,-1l0.5,-1l0.3,-0.5l0.2,-0.5l0.2,0l0.3,0l0.3,-0.2l0.2,-0.3l0.2,-0.3l0.3,-0.2l0.3,1l0.2,1l2,0.2l2,0.3l1.5,0l1.5,0l-1.2,-2.3q-1.3,-2.2 0.4,-1q1.8,1.3 3.3,1.3l1.5,0l-0.2,-0.3l-0.3,-0.2l-0.3,-1.5q-0.2,-1.5 -1.2,-1.5l-1,0l0,-1l0,-1l1,0.2l1,0.3l0.2,0.3l0.3,0.2l0.3,0.2l0.2,0.3l0.2,0.3l0.3,0.2l0.3,0.2l0.2,0.3l0.2,0.3l0.3,0.2l7.3,3.8q7.2,3.7 15.2,3.2q8,-0.5 13,-4q5,-3.5 8.5,-4q3.5,-0.5 14,-0.5l10.5,0l1,-0.3l1,-0.2l0.2,-1l0.3,-1l0,-0.5l0,-0.5l-0.5,-1.5l-0.5,-1.5l-0.3,-0.2l-0.2,-0.3l-0.2,-0.3l-0.3,-0.2l-0.3,-0.2l-0.2,-0.3l-0.2,-0.3l-0.3,-0.2l-0.3,-0.2l-0.2,-0.3l-0.2,-0.3q-0.3,-0.2 -6.6,-3.4q-6.2,-3.3 -9.2,-9.6q-3,-6.2 -4,-6.2q-1,0 -0.8,-1q0.3,-1 -0.4,-1.5q-0.8,-0.5 -0.8,-2l0,-1.5l-1,0.2l-1,0.3l-1,0l-1,0l0,-0.3l0,-0.2l0.2,0l0.3,0l0.3,-0.2l0.2,-0.3l1.5,-0.5l1.5,-0.5l0.2,-0.3l0.3,-0.2l0.3,-0.2l0.2,-0.3l0.2,-0.3l0.3,-0.2l0.3,-0.2l0.2,-0.3l1.5,0l1.5,0l1.5,0.5l1.5,0.5l1,0.3q1,0.2 3.8,7.7q2.7,7.5 9,11.7q6.2,4.3 7.2,4.6l1,0.2l0.2,1l0.3,1l0.3,0.2l0.2,0.3l1,0.5l1,0.5l0.2,0.3l0.3,0.2l0.3,-0.2l0.2,-0.3l1,-0.3l1,-0.2l-0.2,-2l-0.3,-2l-0.3,0.2l-0.2,0.3l-0.8,-0.3q-0.7,-0.2 -0.7,-4.2q0,-4 1.7,-7.2q1.8,-3.3 3.3,-4.3q1.5,-1 13.3,-2.3q11.7,-1.2 13.7,-3.2q2,-2 5.3,-8.2q3.2,-6.3 4.2,-6.6q1,-0.2 3,-3q2,-2.7 5.5,-4q3.5,-1.2 3.5,-2.2q0,-1 2.8,-2q2.7,-1 4.2,-2q1.5,-1 1.8,-3q0.2,-2 1,-2.5q0.7,-0.5 3,-1.7q2.2,-1.3 3.2,-1.8l1,-0.5l0.2,-0.3l0.3,-0.2l0.3,-0.2zm18.4,43q-0.2,-0.3 0,-0.6q0.3,-0.2 0.3,0.3q0,0.5 -0.3,0.3zm-32.2,1.2q1,0 1,1q0,1 -1,1l-1,0l0,-1q0,-1 1,-1z"/>
  <path id="svg_37" fill="#C0BFC4" fill-rule="evenodd" stroke="#C0BFC4" stroke-width="0.5px" d="m667,502.8l4,0.2l4,0.2l4,0.3l8,2q8,2 9.5,2.5l1.5,0.5l0.2,0.3l0.3,0.2l0.3,0.2l0.2,0.3l0.2,0.3l0.3,0.2l0,4q0,4 -1,6q-1,2 -12.5,11q-11.5,9 -14.8,10.2q-3.2,1.3 -9.2,4.3l-6,3l-2.5,0.5l-2.5,0.5l-1,0.5l-1,0.5l-0.2,0.3l-0.3,0.2l-0.3,0.2l-0.2,0.3l0,0.3l0,0.2l-1,0.2q-1,0.3 -8.5,5.3q-7.5,5 -21,6.5q-13.5,1.5 -18.5,4.5q-5,3 -9,3.5q-4,0.5 -7.5,-2q-3.5,-2.5 -11,-5q-7.5,-2.5 -17,-7q-9.5,-4.5 -18,-4.5q-8.5,0 -13,2q-4.5,2 -16.5,3.3l-12,1.2l-0.5,-0.2l-0.5,-0.3l-0.2,-0.3l-0.3,-0.2l-0.3,-0.2l-0.2,-0.3l-1,-0.5l-1,-0.5l1.5,-0.3l1.5,-0.2l0.2,-1l0.3,-1l0.3,-0.2l0.2,-0.3l-0.2,-0.3l-0.3,-0.2l-0.3,-0.2l-0.2,-0.3l0,-0.3l0,-0.2l0,-0.2l0,-0.3l1,-0.5l1,-0.5l23,-6.5q23,-6.5 38.5,-7.5q15.5,-1 16.5,-2q1,-1 29,-8q28,-7 37.8,-12.3q9.7,-5.2 13.2,-7.2q3.5,-2 4.2,-3.8q0.8,-1.7 2.8,-1.7q2,0 6,0.3z"/>
 </g>
</svg>